<svg width="19" height="20" viewBox="0 0 19 20" fill="none" xmlns="http://www.w3.org/2000/svg">
    <rect x="0.456055" y="0.879883" width="18.24" height="18.24" rx="1.52" fill="#5C9EFF"/>
    <path fill-rule="evenodd" clip-rule="evenodd" d="M4.04832 12.0674C4.06103 11.986 4.09935 11.9107 4.15772 11.8525L11.9767 4.0335C12.0495 3.96078 12.1481 3.91992 12.251 3.91992C12.3538 3.91992 12.4525 3.96078 12.5252 4.0335L15.5433 7.05155C15.6158 7.12426 15.6565 7.22275 15.6565 7.32542C15.6565 7.4281 15.6158 7.52658 15.5433 7.5993L7.72274 15.4191C7.66444 15.4772 7.58918 15.5152 7.50783 15.5277L3.94281 16.0754C3.88262 16.0847 3.8211 16.0796 3.76323 16.0606C3.70536 16.0417 3.65277 16.0094 3.60971 15.9663C3.56666 15.9232 3.53434 15.8707 3.51538 15.8128C3.49642 15.7549 3.49135 15.6934 3.50057 15.6332L4.04832 12.0674ZM4.79624 12.311L4.34858 15.2282L7.26499 14.7798L14.7201 7.32542L12.2506 4.85668L4.79624 12.311Z" fill="white"/>
    <path fill-rule="evenodd" clip-rule="evenodd" d="M12.9922 9.26168L10.248 6.52293L10.7966 5.97363L13.54 8.71238L12.9922 9.26168Z" fill="white"/>
</svg>
