<svg width="37" height="37" viewBox="0 0 37 37" fill="none" xmlns="http://www.w3.org/2000/svg">
    <path d="M19.0732 23.0488L23.0488 19.0732M23.0488 19.0732L19.0732 14.1037M23.0488 19.0732H7.14637M7.14637 11.122V11.122C7.14637 9.42996 6.81703 8.78687 7.14637 8.14027C7.43643 7.57073 7.57073 7.43643 8.14027 7.14637C8.78687 6.81703 9.42996 7.14637 11.122 7.14637H26.0305C27.7225 7.14637 28.3671 6.81703 29.0122 7.14637C29.5817 7.43643 29.716 7.57073 30.0061 8.14027C30.3354 8.78536 31 9.43298 31 11.122V26.0305C31 27.7195 30.3354 28.3671 30.0061 29.0122C29.7159 29.5808 29.5811 29.7165 29.0122 30.0061C28.3671 30.3354 27.7195 31 26.0305 31H11.122C9.43298 31 8.78536 30.3354 8.14027 30.0061C7.57178 29.7164 7.43605 29.5807 7.14637 29.0122C6.81703 28.3656 7.14637 27.7225 7.14637 26.0305V26.0305" stroke="#FF0000" stroke-width="2" stroke-linecap="round" stroke-linejoin="round"/>
</svg>
