<svg width="570" height="380" viewBox="0 0 570 380" fill="none" xmlns="http://www.w3.org/2000/svg">
    <path d="M534 326H33.0004C31.9514 326 32.0004 325.104 32.0004 324C32.0004 322.896 31.9514 322 33.0004 322H534C535.049 322 536 322.896 536 324C536 325.104 535.049 326 534 326Z" fill="#8A9EFF"/>
    <path d="M141.819 320.001C141.819 320.001 88.5587 182.803 126.847 152.173C152.44 131.701 180.305 177.048 212.682 153.172C241.507 131.916 200.518 78.2716 248.613 64.2638C299.166 49.5402 340.937 168.66 383.354 152.173C434.825 132.168 486.487 173.16 442.241 321L141.819 320.001Z" fill="#D4E8FF"/>
    <path d="M100.061 310C99.1676 307.259 98.912 303.86 98.0617 301L100.061 300C100.906 302.842 101.173 306.277 102.061 309L100.061 310ZM475.001 306H473.001C473.361 303.082 473.687 299.878 474.001 297H476.001C475.685 299.888 475.362 303.072 475.001 306ZM95.0622 293C94.297 290.173 93.7609 286.852 93.0626 284L95.0622 283C95.7566 285.835 96.3012 289.19 97.0619 292L95.0622 293ZM477 288H475.001C475.277 285.07 475.772 281.882 476.001 279L478 280C477.771 282.893 477.278 285.06 477 288ZM91.0629 275C90.4313 272.12 89.6167 269.864 89.0632 267L91.0629 266C91.613 268.846 92.4352 272.138 93.0626 275H91.0629ZM478 271H476.001C476.186 268.072 476.866 264.896 477 262H479C478.865 264.908 478.186 268.06 478 271ZM88.0634 258C87.5773 255.085 86.4651 251.883 86.0637 249H88.0634C88.4623 251.863 89.5802 255.104 90.063 258H88.0634ZM479 253H477C477.086 250.06 476.97 246.89 477 244H479C478.969 246.903 479.086 250.046 479 253ZM85.0639 241C84.7378 238.055 84.2976 234.896 84.064 232H87.0635C87.2956 234.875 86.74 237.077 87.0635 240L85.0639 241ZM477 236C476.975 233.057 477.085 229.886 477 227H479C479.085 229.901 479.974 233.042 480 236H477ZM84.064 223C83.9189 220.038 84.1086 216.903 84.064 214H86.0637C86.1079 216.879 85.9199 220.062 86.0637 223H84.064ZM477 218C476.85 215.061 476.214 211.877 476.001 209H478C478.215 211.894 478.849 215.044 479 218H477ZM86.0637 205H84.064C84.125 202.03 83.8933 198.897 84.064 196H86.0637C85.8945 198.869 86.1239 202.058 86.0637 205ZM475.001 200C474.709 197.062 475.361 194.85 475.001 192L477 191C477.363 193.869 477.706 197.043 478 200H475.001ZM87.0635 188H85.0639C85.3608 185.041 85.6465 181.874 86.0637 179H88.0634C87.6507 181.842 87.3573 185.073 87.0635 188ZM473.001 183C472.546 180.08 472.531 176.817 472.001 174H474.001C474.535 176.839 474.542 180.058 475.001 183H473.001ZM215.043 183C212.005 182.521 209.088 181.39 206.044 179L208.044 177C210.711 179.088 212.505 180.568 215.043 181V183ZM222.042 178L220.042 177C221.043 175.039 222.297 171.406 223.042 168L225.041 169C224.246 172.64 223.143 175.842 222.042 178ZM200.045 172C198.304 170.059 196.133 167.654 194.046 165L196.046 164C198.104 166.617 200.335 169.095 202.045 171L200.045 172ZM89.0632 170H87.0635C87.63 167.08 88.3658 163.823 89.0632 161L91.0629 162C90.3742 164.787 89.6224 167.116 89.0632 170ZM470.002 166C469.354 163.11 468.732 159.76 468.002 157H470.002C470.739 159.787 471.348 162.083 472.001 165L470.002 166ZM227.041 160H224.041C224.377 157.388 224.758 154.272 225.041 151H227.041C226.755 154.302 227.381 157.358 227.041 160ZM189.047 158C187.27 155.598 185.636 153.191 184.048 151L185.048 150C186.633 152.187 189.275 154.606 191.047 157L189.047 158ZM349.021 158C347.319 158 345.614 158.004 344.022 157L345.022 155C347.413 156.511 350.48 156.205 353.021 155V157C351.518 157.717 350.456 158 349.021 158ZM93.0626 153H91.0629C91.9316 150.157 93.0515 146.733 94.0624 144L96.0621 145C95.0658 147.694 93.9189 150.197 93.0626 153ZM361.019 151L359.02 150C360.677 148.203 362.021 145.763 364.019 143L366.018 144C363.969 146.834 362.736 149.139 361.019 151ZM338.023 150C336.608 147.816 335.493 145.107 334.024 142L336.023 141C337.451 144.019 338.661 146.898 340.023 149L338.023 150ZM466.002 149C465.122 146.165 463.976 143.669 463.003 141L465.002 140C465.987 142.702 467.111 145.132 468.002 148L466.002 149ZM179.049 144C177.048 141.264 174.629 139.087 173.05 137L175.049 136C176.636 138.096 178.041 140.254 180.049 143L179.049 144ZM228.041 142H226.041C226.207 139.437 225.86 137.363 226.041 134H229.041C228.859 137.371 228.207 139.429 228.041 142ZM100.061 137L98.0617 136C99.2618 133.28 99.7023 130.612 101.061 128L103.061 129C101.724 131.57 101.243 134.323 100.061 137ZM371.018 137L369.018 136C370.572 133.636 372.393 130.53 374.017 128L376.017 130C374.389 132.536 372.578 134.625 371.018 137ZM330.024 134C329.034 131.514 328.14 129.093 327.025 126L329.024 125C330.131 128.07 331.043 130.537 332.024 133L330.024 134ZM460.003 132C458.828 129.26 457.281 127.509 456.004 125L458.004 124C459.302 126.552 460.809 129.216 462.003 132H460.003ZM168.05 130C166.067 127.536 163.866 125.048 162.051 123L164.051 122C165.889 124.074 168.045 126.508 170.05 129L168.05 130ZM229.041 125H227.041C227.188 122.077 226.885 118.976 227.041 116H230.04C229.885 118.974 229.188 122.079 229.041 125ZM381.016 122L379.016 121C380.843 118.234 382.481 116.156 384.016 114L386.015 115C384.496 117.135 382.828 119.255 381.016 122ZM108.06 122L106.06 120C107.779 117.307 109.284 115.104 111.06 113L113.059 115C111.346 117.029 109.726 119.389 108.06 122ZM324.025 117C323.023 114.06 321.856 111.49 321.026 109L323.025 108C323.854 110.487 325.024 113.066 326.025 116L324.025 117ZM156.052 117C153.818 114.823 152.152 112.616 150.053 111L151.053 110C153.219 111.667 155.757 112.764 158.052 115L156.052 117ZM452.005 117C450.438 114.442 448.678 112.214 447.005 110L448.005 108C449.721 110.27 451.401 113.381 453.004 116L452.005 117ZM119.058 109L118.059 107C120.669 105.007 123.309 103.842 126.057 103V105C123.558 105.766 121.462 107.165 119.058 109ZM391.014 108L389.015 107C391.065 104.468 393.067 101.95 395.014 100L397.013 102C395.121 103.896 393.017 105.528 391.014 108ZM230.04 107H228.041C228.23 103.82 227.843 100.761 228.041 98H231.04C230.844 100.752 230.229 103.828 230.04 107ZM142.055 107C139.327 105.641 136.62 104.352 134.056 104L135.056 102C137.856 102.384 140.113 103.535 143.054 105L142.055 107ZM441.006 103C438.902 100.842 437.2 99.5987 435.007 98L436.007 96C438.299 97.6705 440.816 99.7542 443.006 102L441.006 103ZM318.026 100C316.939 96.7446 316.863 94.4438 316.027 92L318.026 91C318.865 93.4489 318.937 96.7395 320.026 100H318.026ZM403.012 96L402.013 94C404.701 92.1176 407.344 90.8669 410.011 90L411.011 92C408.55 92.8 405.524 94.2419 403.012 96ZM427.009 93C424.301 91.857 421.708 91.2522 419.01 91V89C421.93 89.2731 425.095 89.77 428.008 91L427.009 93ZM231.04 90L229.041 89C229.313 85.9303 229.728 83.7774 230.04 81H232.04C231.73 83.7605 231.311 86.9472 231.04 90ZM313.027 84C311.97 81.0491 311.019 78.5981 310.027 76L312.027 75C313.024 77.6123 313.965 80.0346 315.027 83L313.027 84ZM233.04 72H231.04C231.482 68.9368 232.523 65.7467 233.04 63H235.04C234.529 65.7166 233.478 68.9672 233.04 72ZM306.028 67C304.853 64.1722 304.19 61.5082 303.029 59L305.028 58C306.201 60.5342 306.842 64.1454 308.028 67H306.028ZM237.039 55L234.04 54C234.802 50.9447 236.144 48.6207 237.039 46H239.039C238.164 48.5621 237.787 52.0044 237.039 55ZM299.029 51C297.591 48.2898 296.489 46.3075 295.03 44L296.03 43C297.518 45.3543 299.565 47.241 301.029 50L299.029 51ZM242.038 38H240.039C241.474 35.0892 243.334 32.1654 245.038 30L247.038 31C245.427 33.0458 243.407 35.2254 242.038 38ZM290.031 37C288.12 34.6034 286.01 32.7903 284.032 31L285.032 29C287.097 30.8695 289.047 32.5112 291.031 35L290.031 37ZM253.037 26L252.037 24C254.627 22.3412 256.998 21.4682 260.036 21L261.035 23C258.301 23.4217 255.368 24.5066 253.037 26ZM277.033 26C274.486 24.6261 271.719 23.4785 269.034 23V21C271.949 21.5193 275.281 22.5155 278.033 24L277.033 26Z" fill="#DCE6FF"/>
    <path d="M489 275.008C470.868 272.329 473.845 296.004 448 296.004C424.37 296.004 417.193 203.662 400 230.016C311.858 365.122 363.098 173.474 293 171.027C261.304 169.92 239.789 203.347 232 263.01C220.71 316.948 194.945 221.176 168 230.016C150.875 235.634 152.63 296.004 129 296.004C103.155 296.004 106.132 272.329 88 275.008C68.4783 277.893 63 321 63 321H515C515 321 508.522 277.893 489 275.008Z" fill="#EEF7FF"/>
    <path d="M474 301.054C457.313 299.906 459.787 310.03 436 310.03C414.252 310.03 415.554 287.044 401 282.105C374.199 273.01 351.391 319.168 341 296.067C321.265 234.77 264.554 204.03 238 296.067C227.609 319.168 202.598 277.819 178 282.105C162.859 284.743 164.748 310.03 143 310.03C119.213 310.03 121.687 299.906 105 301.054C87.0331 302.289 82 321 82 321H498C498 321 491.967 302.289 474 301.054Z" fill="#DCE6FF"/>
    <path d="M448 191.584C447.912 187.938 445.068 185.501 443.012 182.704C438.672 176.664 431.737 171.5 426.054 166.918C419.661 161.156 415.195 153.798 411.09 146.197C409.835 143.692 406.371 145.492 407.1 148.171C409.457 157.764 412.781 165.874 419.071 173.824C433.485 192.044 447.947 200.137 448 191.584Z" fill="#F99370"/>
    <path d="M426.347 187.006C426.638 187.263 427.025 187.755 427.335 188.005C427.333 188.005 427.337 188.007 427.335 188.005C431.964 191.728 438.211 195 438.211 195C438.392 194.763 439.038 194.175 439.2 194.001C440.386 192.71 441.187 192.635 442.166 190.004C444.071 184.885 445.475 178.883 441.177 176.014C431.445 169.517 427.678 163.578 423.38 164.024C421.236 169.497 416.459 169.008 416.459 169.02C414.022 174.551 421.865 183.06 426.347 187.006Z" fill="#3A72AA"/>
    <path d="M404.693 139.931C403.037 139.433 404.752 138.441 405.66 139.407C406.532 139.654 405.55 140.19 404.693 139.931Z" fill="#F99370"/>
    <path d="M405.32 139.743C404.356 137.924 405.881 137.291 405.855 139.004C405.847 138.969 405.859 138.987 405.855 139.004C405.839 138.973 405.862 139.036 405.855 139.004C405.855 139.005 405.866 139.021 405.855 139.004C406.264 139.648 405.718 140.407 405.32 139.743Z" fill="#F99370"/>
    <path d="M406.101 138.453V137.547C405.715 136.823 406.535 136.812 406.899 137.547V138.453C407.285 139.177 406.465 139.188 406.101 138.453Z" fill="#F99370"/>
    <path d="M412.874 147C412.874 147 413.746 141.614 410.91 139L406 141C406 141 406.294 146.731 408.946 150L412.874 147Z" fill="#F99370"/>
    <path d="M409.927 140.016C409.913 138.865 406.521 131.907 405.304 133.147C404.799 133.626 405.012 133.734 405.304 134.129C406.406 135.606 407.533 137.279 408.078 139.035C408.45 139.869 407.751 140.932 409.002 140.997C409.763 141.033 410.178 140.705 409.927 140.016Z" fill="#F99370"/>
    <path d="M411.039 136.616C410.317 138.821 410.02 141.466 409.145 143.594C408.426 145.418 410.588 145.519 411.039 143.594C411.553 141.219 411.644 139.013 411.985 136.616C412.121 135.779 411.27 135.811 411.039 136.616Z" fill="#F99370"/>
    <path d="M405.118 140.445C405.392 139.552 405.758 140.245 405.118 140.445C404.782 141.265 405.287 140.227 405.118 140.445C405.07 140.833 404.967 140.488 405.118 140.445Z" fill="#E57D61"/>
    <path d="M405.806 139.964C406.058 139.952 406.065 139.338 405.806 139.059C405.609 139.127 406.328 139.947 405.806 139.964C405.469 139.965 405.138 139.445 405.022 139.059C404.945 138.918 405.193 139.077 405.022 139.059C404.975 139.066 405.017 138.991 405.022 139.059C405.063 139.818 405.167 140.109 405.806 139.964Z" fill="#E57D61"/>
    <path d="M406.769 137.805C407.176 137.737 406.96 137.446 406.769 137.073C406.72 136.976 406.722 136.975 406.769 137.073C407.048 137.617 406.283 138.356 406.021 137.805C406.016 137.796 406.054 137.464 406.021 137.073C406.017 137.027 406.067 137.069 406.021 137.073C405.976 137.077 406.017 137.027 406.021 137.073C406.181 137.832 406.121 137.854 406.769 137.805Z" fill="#E57D61"/>
    <path d="M408.032 142.958C408.33 140.928 409.914 139.116 410 139.167C409.933 138.348 408.256 140.693 408.032 142.958C408.024 143.043 407.964 142.975 408.032 142.958Z" fill="#E57D61"/>
    <path d="M447.22 317.016C448.59 316.579 449.383 314.45 449.213 313.029C449.213 313.029 428.264 248.275 441.24 219.328C445.103 210.709 457.654 211.406 472.138 218.331C476.434 233.97 474.576 247.514 481.108 258.204C485.898 266.043 495.864 272.574 514 274.153L511.01 290.102C510.862 291.01 509.71 291.707 509.016 291.099C506.992 288.831 507.672 285.261 507.023 282.127C506.799 280.714 505.47 280.205 504.033 280.134C463.344 278.104 459.705 260.564 456.19 244.248C456.19 244.248 452.505 282.123 456.19 315.022C456.352 316.466 456.474 321.139 456.19 322L440.243 321.003C439.307 320.997 438.735 320.786 439.246 320.006C441.202 317.694 444.209 318.131 447.22 317.016Z" fill="#F99370"/>
    <path d="M429 189C433.696 192.652 440 196 440 196C440.183 195.768 439.836 195.171 440 195L441 189C441 189 437.61 191.746 436 192C434.422 192.249 429.225 189.133 429 189Z" fill="#23659B"/>
    <path d="M450.851 150.13C450.851 150.13 447.734 147.017 444.006 151.124C440.278 155.23 442.223 155.748 437.162 160.062C432.101 164.377 436.976 172.599 441.073 173.967C445.17 175.336 439.704 179.414 447.917 180.92C456.131 182.425 477.915 162.437 450.851 150.13Z" fill="#C92828"/>
    <path d="M445.086 176.946V178.892C443.871 180.038 443.914 195.635 444.096 196.404C444.449 197.89 446.549 199.482 448.054 195.431C448.543 194.113 452.702 179.401 453 178.892C453 178.892 452.099 175.969 452.011 175L445.086 176.946Z" fill="#F99370"/>
    <path d="M512.05 273.264C512.603 273.41 513.551 272.932 514 273.264L511.075 289.572C510.942 290.32 509.854 289.934 509.124 289.572C507.421 288.72 505.344 286.171 506.199 279.02C506.199 279.02 507.255 277.347 507.174 273.264C507.174 273.264 509.806 272.67 512.05 273.264Z" fill="#EB5648"/>
    <path d="M511 290.551L513 274.123C513.489 274.271 514.604 273.784 515 274.123L512 290.551C511.882 291.326 511.644 290.944 511 290.551Z" fill="#CE3932"/>
    <path d="M455.875 321C455.806 321.523 456.148 322.543 455.875 323L440.062 322C439.28 321.995 438.81 321.716 439.074 321C439.697 319.327 441.532 317.329 448.957 317C448.957 317 451.718 317.703 455.875 317C455.875 317 456.156 318.878 455.875 321Z" fill="#EB5648"/>
    <path d="M439.085 321H457C456.931 321.653 456.281 322.43 456.005 323L440.08 322C439.278 321.995 438.795 321.897 439.085 321Z" fill="#CE3932"/>
    <path d="M451.076 167.369C451.074 167.484 451.089 167.255 451.076 167.369C450.914 167.287 452.651 171.878 453 174.856C450.52 176.605 445.887 175.841 445.306 175.792C444.799 172.027 445.011 168.657 445.306 166.433C446 162.646 451.204 163.527 451.076 167.369Z" fill="#E57D61"/>
    <path d="M439.002 221.812C439.002 221.812 452.12 231.166 472 217.829C472 217.829 467.89 214.724 467 206.877C466.861 205.665 467 204.301 467 202.895C467 201.939 467.028 200.734 467 199.908C466.871 196.133 466.057 194.128 466 192.939C466.907 185.32 456.701 180.715 452.001 179C450.116 182.011 447.673 195.542 445.002 195.926C442.045 195.301 445.075 179.826 445.002 179C443.206 182.326 439.713 187.242 438.002 189.952C436.331 192.641 436.092 195.096 436.002 197.917C435.854 204.457 442.767 210.118 439.002 221.812Z" fill="#3A72AA"/>
    <path d="M441.509 171.842C443.756 174.217 446.344 174.22 450.197 173.767C456.578 173.015 458.374 163.32 455.989 158.374C454.563 155.009 450.845 152.982 447.301 154.526C444.83 155.688 443.648 157.823 442.474 160.298C442.126 160.941 441.177 161.662 440.544 162.222C438.109 164.432 438.646 168.664 441.509 171.842Z" fill="#F99370"/>
    <path d="M450.049 161C454.992 162.796 454.021 167 454.021 167L457 164L453.028 157L448.063 155C447.011 155.094 446.914 155.348 446.077 156C446.077 156 445.106 159.204 450.049 161Z" fill="#E57D61"/>
    <path d="M446.203 163.446C445.924 162.855 445.941 162.847 446.203 163.446C446.464 164.045 446.481 164.036 446.203 163.446Z" fill="#C16256"/>
    <path d="M442.203 162.446C441.924 161.855 441.941 161.847 442.203 162.446C442.464 163.045 442.482 163.036 442.203 162.446Z" fill="#C16256"/>
    <path d="M442.937 167C443.067 166.985 442.96 166.365 442.937 166.041C442.921 165.945 442.992 166.014 442.937 166.041C442.583 166.235 441.821 165.488 442.236 165.082C442.835 164.564 442.918 163.244 442.937 163.163C442.984 162.943 442.987 162.948 442.937 163.163C442.932 163.182 442.763 164.626 442.236 165.082C441.585 165.818 442.435 166.959 442.937 167Z" fill="#C16256"/>
    <path d="M437.292 264.575C437.824 266.849 438.286 267.552 438.286 267.552C465.132 276.346 484 258.62 484 258.62C483.383 257.853 482.477 256.885 482.012 255.643C479.502 248.928 478.675 236.187 478.037 228.848C477.254 219.817 471.32 212.688 469.093 209.992C469.093 209.992 469.095 209.992 469.093 209.992C468.56 209.346 468.099 209 468.099 209C451.882 214.119 440.274 210.985 440.274 210.985C440.274 210.985 439.548 212.179 439.28 212.97C438.226 216.043 435.969 224.284 435.305 233.81C434.27 248.603 436.106 259.486 437.292 264.575Z" fill="#1D3F70"/>
    <path d="M445.3 178.048C445.3 178.048 443.705 176.73 441.42 177.05C441.42 177.05 439.115 194.874 445.3 198C445.3 198 453.034 196.569 455 177.05C455 177.05 451.669 176.823 451.12 178.048C451.12 178.048 447.908 184.614 445.3 194.01C445.3 194.01 444.878 185.982 445.3 178.048Z" fill="#23659B"/>
    <path d="M463 199C463 199 466.596 203.347 468 206C468 206.002 469 206.998 469 207C468.86 205.716 468 203.489 468 202C468 200.988 468.028 200.875 468 200L463 199Z" fill="#23659B"/>
    <path d="M443.051 167.06C444.673 167.423 445.011 167.099 445.051 167.06C445.12 167.144 445.127 166.983 445.051 167.06C444.982 166.976 445.127 166.984 445.051 167.06C445.014 167.095 444.614 167.51 443.051 167.06C443.077 166.95 442.95 167.033 443.051 167.06C443.025 167.17 442.951 167.031 443.051 167.06C443.131 167.083 442.974 167.043 443.051 167.06Z" fill="#C16256"/>
    <path d="M442.064 161.053C442.042 161.054 442.084 161.057 442.064 161.053H443.064C443.071 161.171 443.203 161.047 443.064 161.053C443.056 160.936 443.202 161.048 443.064 161.053H442.064C442.056 160.936 441.924 161.06 442.064 161.053C442.069 161.153 441.953 161.035 442.064 161.053Z" fill="#C16256"/>
    <path d="M447.933 161.966C447.882 161.993 447.987 161.976 447.933 161.966C447.998 162.067 448.043 161.906 447.933 161.966C447.902 161.916 447.776 161.34 446.061 161.057C445.936 161.036 446.083 160.94 446.061 161.057C445.936 161.042 446.039 161.173 446.061 161.057C447.563 161.308 447.927 161.955 447.933 161.966C447.968 162.02 447.871 161.954 447.933 161.966Z" fill="#C16256"/>
    <path d="M463.712 180.149C470.359 185.539 479.452 191.141 481.43 199.931C484.975 215.684 471.235 225.468 460.759 230.593C460.439 230.774 459.136 231.428 458.79 231.583C457.41 232.198 457.645 232.329 456.821 230.593C456.234 229.162 456.806 227.444 457.805 226.637C458.564 226.024 459.172 226.253 459.774 225.648C475.495 211.674 470.84 202.493 456.821 192.018C450.032 186.945 456.759 175.322 463.712 180.149Z" fill="#F99370"/>
    <path d="M462 232C462 232 462.336 228.659 459 227C459 227 459.106 227.131 460 227C460 227 463.234 227.598 464 231C464 231 462.987 231.942 462 232Z" fill="#EB5648"/>
    <path d="M453 191.036C453 191.036 459.989 196.383 466.738 202.012C473.488 207.642 465.778 215.233 467.72 216.979C467.72 216.979 473.047 217.543 474.589 221.969C474.589 221.969 481.073 223.153 483.421 210.993C487.87 187.941 465.541 175.989 455.944 177.067C455.944 177.067 455.17 186.205 453 191.036Z" fill="#3A72AA"/>
    <path d="M447.021 154.637C447.954 150.081 458.094 142.311 464.847 154.637C469.605 164.344 483.476 175.42 470.79 180.223C466.033 180.877 470.98 185.944 467.819 188.095C464.657 190.247 461.28 187.608 460.886 193.016C460.492 198.423 456.73 199.309 452.963 198.92C448.106 198.419 445.864 188.214 449.992 185.143C454.46 181.819 448.737 178.856 450.982 174.318C453.227 169.781 455.934 169.398 455.934 169.398L454.944 164.478C455.036 159.055 446.528 159.63 447.021 154.637Z" fill="#C92828"/>
    <path d="M457.888 166C457.165 168.664 454.416 168.67 455.112 166C455.835 163.337 458.584 163.33 457.888 166Z" fill="#F99370"/>
    <path d="M456.745 166.956C456.73 167.024 456.789 166.959 456.745 166.956C457.26 164.974 456.972 164.724 456.095 165.219C455.968 165.285 455.969 165.29 456.095 165.219C456.847 164.793 457.175 165.301 456.745 166.956C456.721 167.055 456.676 166.955 456.745 166.956Z" fill="#C16256"/>
    <path d="M456.179 168C456.408 167.966 455.997 166.151 456.969 166.049C456.971 166.157 457.038 166.046 456.969 166.049C456.966 165.941 457.039 166.043 456.969 166.049C456.002 166.121 455.801 167.894 456.179 168Z" fill="#C16256"/>
    <path d="M456.947 169.454C456.697 170.629 455.771 169.713 456.053 168.546C456.303 167.372 457.23 168.287 456.947 169.454Z" fill="#FDFFDE"/>
    <path d="M450.16 227.491C450.18 228.412 452.296 228.098 453.02 228.464C451.973 229.589 451.115 230.4 451.113 230.41C449.36 231.052 447.199 231.9 445.392 232.357C443.265 234.389 450.464 232.421 451.113 232.357C451.109 232.348 451.117 232.366 451.113 232.357C449.451 233.416 447.178 234.469 445.392 235.276C443.67 237.873 451.431 233.606 452.067 233.33C452.063 233.327 452.07 233.333 452.067 233.33C450.664 234.603 448.941 236.315 447.299 237.223C445.785 240.002 452.5 234.796 453.02 234.303C453.014 234.299 453.027 234.307 453.02 234.303C452.058 235.471 451.305 237.224 450.16 238.196C449.18 240.951 454.447 235.782 454.927 235.276C455.551 234.871 456.732 234.381 458.742 231.384C459.368 230.452 458.78 227.906 457.788 227.491C456.673 227.023 454.462 227.419 453.974 227.491C453.087 227.451 450.384 226.407 450.16 227.491Z" fill="#F99370"/>
    <path d="M440 212.292C454.277 214.787 469.798 209.889 470 209.823C469.465 209.283 469 209 469 209C452.745 213.276 440 210.646 440 210.646C440 210.646 440.269 211.632 440 212.292Z" fill="#10325B"/>
    <path d="M437.01 264.777C437.536 266.943 437.01 267.693 437.01 267.693C463.58 276.069 483 258.944 483 258.944C482.389 258.213 481.46 258.183 481 257C481 257 462.849 271.489 437.01 264.777C437.046 264.786 436.975 264.768 437.01 264.777Z" fill="#10325B"/>
    <path d="M382 320.822L396 312.879C395.768 312.018 392.653 309.195 392 307.915C391.461 307.201 385.573 297.048 385 296L378 299.972L385 309.9C385.927 310.985 385.919 311.788 385 312.879C383.066 315.409 380.354 316.863 380 319.829C380.006 320.736 381.214 321.309 382 320.822Z" fill="#F99370"/>
    <path d="M394.009 311.898C394.251 312.377 394.973 313.297 395 313.83L380.133 321.557C379.455 321.969 379.326 322.303 379.142 321.557C378.717 319.811 378.869 316.126 385.089 311.898C385.089 311.898 387.852 311.806 391.036 309C391.036 309 393.03 309.954 394.009 311.898Z" fill="#1D3F70"/>
    <path d="M380 321.535L394.897 312C395.142 312.494 394.87 312.405 394.897 312.953L380.993 321.535C380.299 321.967 380.168 322.319 380 321.535Z" fill="#395B96"/>
    <path d="M331.163 323L347.01 322C347.279 321.137 345.867 317.448 346.019 316C345.962 315.1 347.907 304.206 348 303H338.096L340.076 315C340.25 316.426 339.418 317.552 338.096 318C335.189 319.145 332.034 318.639 330.172 321C329.696 321.782 330.268 323 331.163 323Z" fill="#F99370"/>
    <path d="M346.882 321C346.817 321.528 347.152 321.538 346.882 322L331.061 323C330.277 323 329.813 321.723 330.072 321C330.683 319.311 332.531 317.382 339.96 317C339.96 317 342.726 317.736 346.882 317C346.882 317 347.148 318.861 346.882 321Z" fill="#1D3F70"/>
    <path d="M330.083 321H348C347.934 321.7 347.278 321.387 347.005 322H331.078C330.276 322.002 329.798 321.963 330.083 321Z" fill="#395B96"/>
    <path d="M329.151 306.534C329.349 308.569 329.151 309.506 329.151 309.506C336.265 313.135 347.048 312.197 354.096 310.497C354.008 309.892 354.179 309.115 354.096 308.516C354.026 308.005 353.164 308.03 353.098 307.525C353.098 307.525 353.1 307.525 353.098 307.525C348.048 268.825 355.094 241.139 355.094 241.139C357.687 259.775 358.588 272.901 372.057 305.543C372.513 306.647 372.568 308.355 373.055 309.506C381.319 308.195 391.815 303.293 398 298.607C397.367 297.53 396.585 296.711 396.004 295.635C378.623 263.518 383.001 232.301 374.052 215.378C374.052 215.378 338.584 213.117 338.131 214.387C324.907 251.562 328.001 294.726 329.151 306.534Z" fill="#1D3F70"/>
    <path d="M358.735 150.188C358.735 150.188 366.462 145.364 371.545 155.156C373.951 159.792 375.106 164.414 378.442 166.084C380.793 167.26 382.301 171.135 379.427 175.025C375.983 179.689 380.532 179.019 380.413 182.973C380.294 186.928 378.412 191.732 373.515 189.928C368.618 188.124 368.361 191.955 363.662 192.908C358.963 193.861 354.452 187.055 348.881 187.941C343.31 188.827 339.758 184.861 340.013 181.98C340.267 179.098 344.552 176.91 344.94 174.032C345.327 171.154 343.34 166.588 346.91 163.104C350.481 159.619 358.735 150.188 358.735 150.188Z" fill="#8E4A35"/>
    <path d="M349.557 191.413C350.581 187.881 349.649 184.84 348.589 181.536C346.391 174.43 341.819 167.891 337.932 161.783C333.745 154.329 331.688 145.628 330.182 137.092C329.777 134.307 325.474 134.298 325.338 137.092C324.618 147.02 324.816 156.207 328.245 165.734C336.102 187.567 346.916 199.618 349.557 191.413Z" fill="#F99370"/>
    <path d="M325.479 172C326.552 176.1 328.65 179.636 330.445 183C330.444 182.998 330.445 183.002 330.445 183C334.426 190.466 338.392 196 338.392 196C340.435 194.544 343.386 191.549 345.346 189C348.704 184.635 350.539 179.1 347.333 175C340.074 165.714 332.99 150.077 330.445 139C327.7 140.309 325.48 138.989 325.479 139C324.581 145.939 322.656 161.6 325.479 172Z" fill="#F4D4BE"/>
    <path d="M360.302 180.003C363.926 179.929 367.269 181.096 370.133 182.998C376.314 187.006 380.087 193.57 384.878 198.967C390.871 205.01 400.75 210.23 408.471 213.938C411.013 215.064 410.179 218.531 407.488 217.931C397.863 216.032 387.141 212.797 378.98 206.952C360.278 193.555 351.813 180.433 360.302 180.003Z" fill="#F99370"/>
    <path d="M331 184C334.988 191.154 339 196 339 196C341.047 194.605 344.036 192.442 346 190L343 186C343 186 340.081 188.541 338 190C336.668 190.933 335.022 190 331 184Z" fill="#EABFAC"/>
    <path d="M360 178.056C360.886 179.359 371.563 207.248 372.997 207.003C380.213 215.065 395.417 217.203 403.989 216.985C406.275 213.842 405.988 211.994 405.988 211.994C397.606 206.994 388.68 201.378 381.994 191.033C372.743 176.401 360 178.056 360 178.056Z" fill="#F4D4BE"/>
    <path d="M371.012 196V208C370.97 207.955 371.053 208.045 371.012 208C372.81 209.992 375.663 211.73 378.004 213C378.921 213.498 380.044 213.595 381.001 214C381.293 214.123 381.704 214.886 382 215C380.274 213.693 378.343 211.964 377.006 210C374.934 206.96 375.581 201.822 371.012 196Z" fill="#EABFAC"/>
    <path d="M401 217.823C401 217.823 402.614 218.222 403.988 217.823C403.986 217.822 403.99 217.823 403.988 217.823C406.341 214.678 405.98 212.97 405.98 212.97C405.98 212.97 405.982 212.973 405.98 212.97C405.891 212.901 404.98 212.273 403.988 212C403.988 212 404.78 212.386 403.988 212.97C403.198 213.557 401.925 213.762 401.996 214.911C402.069 216.061 402.836 216.277 401.996 216.852C401.156 217.429 401.256 217.016 401 217.823Z" fill="#EABFAC"/>
    <path d="M363 152.544C363 152.544 359.713 148.457 355 150.643C350.287 152.829 350 163 350 163L363 152.544Z" fill="#8E4A35"/>
    <path d="M351.53 176V177.996C350.301 179.162 351.463 180.897 352.454 180.99C353.964 181.131 356.525 179.762 357.076 178.994C357.076 178.994 357.924 176.963 358 176H351.53Z" fill="#F99370"/>
    <path d="M359.916 167.107C359.892 167.213 359.949 167.927 359.916 168.031C359.765 167.928 359.105 171.673 358.928 174.497C355.963 175.554 353.583 174.639 353 174.497C353.157 170.916 353.29 168.2 353.988 166.183C355.373 162.781 360.733 163.559 359.916 167.107Z" fill="#E57D61"/>
    <path d="M363.845 165.969C362.534 168.601 360.745 171.596 357.947 172.763C356.819 173.229 356.231 172.885 354.998 172.763C347.896 172.674 342.248 163.04 349.1 159.175C351.496 158.037 352.984 155.564 354.998 154.323C358.123 151.883 362.051 152.985 363.845 156.264C365.465 159.227 365.302 162.682 363.845 165.969Z" fill="#F99370"/>
    <path d="M351 166H355C354.679 167.346 352.079 167.32 351 166Z" fill="#F9F8F3"/>
    <path d="M355.085 161.491C354.963 160.838 354.981 160.835 355.085 161.491C355.188 162.147 355.207 162.143 355.085 161.491Z" fill="#C16256"/>
    <path d="M351.085 159.491C350.963 158.838 350.981 158.835 351.085 159.491C351.188 160.147 351.207 160.144 351.085 159.491Z" fill="#C16256"/>
    <path d="M350.127 165.155C350.217 165.219 354.025 165.144 354.127 165.155C354.145 165.243 354.226 165.139 354.127 165.155C354.277 164.776 350.208 165.221 350.127 165.155C349.964 165.099 349.952 165.177 350.127 165.155Z" fill="#C16256"/>
    <path d="M350.707 162.854C350.98 162.92 351.607 163.146 351.704 162.854C351.702 162.779 351.8 162.853 351.704 162.854C351.085 162.862 350.739 162.174 350.707 161.951C350.581 161.971 350.696 161.872 350.707 161.951C351.794 161.805 353.749 160.77 352.7 161.047C352.689 161.059 351.684 161.795 350.707 161.951C349.564 162.235 349.988 162.594 350.707 162.854Z" fill="#C16256"/>
    <path d="M338.463 213.313C353.42 220.992 373.675 214.294 373.675 214.294C373.675 214.294 374.406 206.945 373.675 203.502C372.181 196.467 366.442 178.281 358.025 177.012C358.025 177.012 354.684 181.324 351.179 178.974C349.82 178.063 351.611 176.867 351.179 177.012C349.062 177.72 343.982 181.689 342.376 183.88C330.524 200.043 338.914 202.465 338.463 213.313Z" fill="#F4D4BE"/>
    <path d="M363.883 166.176C362.657 168.899 360.895 172.792 358.279 174V173.022C359.871 171.846 362.015 169.11 362.015 169.11V167.154C353.74 160.931 356.411 153.461 356.411 153.461C363.537 150.835 366.922 160.015 363.883 166.176Z" fill="#E57D61"/>
    <path d="M357.643 152.511C357.643 152.511 354.366 160.331 362.608 166L366.58 165.037C371.75 160.096 368.576 149.565 357.643 152.511Z" fill="#8E4A35"/>
    <path d="M365.62 167.803C364.186 170.23 360.886 168.594 362.38 166.197C363.813 163.77 367.114 165.406 365.62 167.803Z" fill="#F99370"/>
    <path d="M365.668 169C366.303 168.557 365.868 166.671 365.668 166.361C365.316 165.734 365.009 166.05 365 166.361C365.077 166.703 365.327 165.736 365.668 166.361C366.029 166.957 365.451 168.657 365.668 169Z" fill="#C16256"/>
    <path d="M364.127 167.362C364.54 167.429 364.518 167.153 366.127 167.362C366.239 167.379 367.101 167.436 367.127 167.362C366.281 166.597 363.36 167.268 364.127 167.362Z" fill="#C16256"/>
    <path d="M364.14 169.475C363.944 170.104 363.963 170.11 364.14 169.475C364.317 168.839 364.335 168.845 364.14 169.475Z" fill="#F4D4BE"/>
    <path d="M351.174 185.826C351.247 186.178 351.473 185.898 351.826 185.826C352.179 185.754 351.898 185.527 351.826 185.174C351.754 184.822 351.527 185.102 351.174 185.174C350.821 185.246 351.102 185.473 351.174 185.826Z" fill="#EABFAC"/>
    <path d="M351.174 189.826C351.246 190.178 351.473 189.898 351.826 189.826C352.179 189.754 351.898 189.527 351.826 189.174C351.754 188.822 351.527 189.102 351.174 189.174C350.821 189.246 351.102 189.473 351.174 189.826Z" fill="#EABFAC"/>
    <path d="M373.548 213C373.548 213 352.786 218.669 337.197 213C337.197 213 336.753 213.085 337.197 214.822C337.197 214.822 347.74 222.856 373.548 216.643C373.548 216.643 374.565 214.481 373.548 213Z" fill="#244C7C"/>
    <path d="M354 223C356.209 223 358 220.209 358 218C358 215.791 356.209 215 354 215C351.791 215 350 215.791 350 218C350 220.209 351.791 223 354 223Z" fill="#10325B"/>
    <path d="M356.042 161.074C356.024 161.078 356.059 161.081 356.042 161.074C356.053 161.213 356.121 161.056 356.042 161.074C356.037 161.008 356.672 160.09 356.042 159.074C355.984 158.98 356.097 158.971 356.042 159.074C355.984 158.979 355.988 159.177 356.042 159.074C356.593 159.963 356.041 161.06 356.042 161.074C356.05 161.181 355.986 161.05 356.042 161.074Z" fill="#C16256"/>
    <path d="M351.047 158.053C351.03 158.054 351.063 158.057 351.047 158.053H352.047C352.05 158.171 352.153 158.05 352.047 158.053C352.045 157.935 352.154 158.05 352.047 158.053H351.047C351.045 157.935 350.942 158.056 351.047 158.053C351.05 158.152 350.965 158.031 351.047 158.053Z" fill="#C16256"/>
    <path d="M325.27 129.712C324.463 128.364 325.711 127.011 325.849 129.019C326.282 129.701 325.687 130.411 325.27 129.712Z" fill="#F99370"/>
    <path d="M326.201 129.671C325.376 127.653 327.387 127.509 326.889 128.991C326.888 128.957 326.899 128.977 326.889 128.991C326.875 128.957 326.89 129.022 326.889 128.991C326.889 128.992 326.899 129.011 326.889 128.991C327.274 129.737 326.565 130.43 326.201 129.671Z" fill="#F99370"/>
    <path d="M327.025 129.43V128.5C326.832 127.288 327.815 126.351 327.975 127.57V128.5C328.168 129.712 327.185 130.649 327.025 129.43Z" fill="#F99370"/>
    <path d="M331.193 138C331.193 138 333.009 133.058 331.193 130H325.65C325.65 130 324.187 135.426 325.65 139L331.193 138Z" fill="#F99370"/>
    <path d="M329.944 130.943C330.215 129.824 329.475 122.235 328.252 123.063C327.753 123.372 328.128 123.576 328.252 124.048C328.726 125.817 329.113 128.09 329.098 129.958C329.177 130.88 328.168 131.481 329.098 131.928C329.665 132.196 329.967 131.687 329.944 130.943Z" fill="#F99370"/>
    <path d="M332.001 128.212C330.732 129.86 329.736 131.138 328.348 132.677C327.185 134.005 329.232 135.954 330.175 134.464C331.298 132.612 331.944 131.025 332.915 129.105C333.269 128.439 332.435 127.601 332.001 128.212Z" fill="#F99370"/>
    <path d="M325.189 130.393C326.408 130.611 326.972 129.408 326.189 130.393C325.317 131.232 325.564 130.23 325.189 130.393C324.976 130.874 324.901 130.335 325.189 130.393Z" fill="#E57D61"/>
    <path d="M326.306 128.855C326.543 128.928 327.149 129.141 326.966 128.855C326.769 128.84 326.795 129.013 326.306 128.855C325.993 128.745 326.333 128.361 326.306 128.044C326.265 127.917 326.461 128.113 326.306 128.044C326.261 128.034 326.316 127.993 326.306 128.044C326.185 128.606 325.682 128.751 326.306 128.855Z" fill="#E57D61"/>
    <path d="M327.31 128.653C327.734 128.699 328.062 128.97 327.989 128.653V128.062C327.97 127.979 327.973 127.979 327.989 128.062V128.653C328.095 129.115 327.397 129.116 327.31 128.653C327.307 128.645 327.22 128.354 327.31 128.062C327.32 128.027 327.356 128.07 327.31 128.062C327.263 128.054 327.32 128.027 327.31 128.062C327.232 128.652 326.653 128.535 327.31 128.653Z" fill="#E57D61"/>
    <path d="M328.05 134C329.079 132.208 330.898 130.127 330.989 130.207C331.17 129.415 329.063 131.013 328.05 133.052C328.012 133.128 327.96 133.99 328.05 134Z" fill="#E57D61"/>
    <path d="M360.704 178.015C360.704 178.015 361.814 179.313 359.737 180.008C357.661 180.703 358.285 183.092 355.872 182.997C353.46 182.902 353.426 180.885 351.041 182.001C348.469 183.205 347.379 181.239 348.143 180.008C348.906 178.776 346.319 177.821 347.176 176.022C347.176 176.022 349.664 175.764 351.041 177.018C351.041 177.018 351.543 178.662 352.974 179.011C353.913 179.24 356.381 178.008 357.805 177.018C357.805 177.018 359.057 177.051 360.704 178.015Z" fill="#EABFAC"/>
    <path d="M325.001 143C325.817 142.709 325.599 141.154 326 141.001C326.552 140.79 326.977 141.922 328 142C329.026 142.079 329.36 141.635 330 141.001C330.624 140.385 331.934 141.924 332 142C331.368 139.941 331 139.002 331 139.002C328.064 140.412 325.001 139.002 325.001 139.002C325.001 139.002 325.003 138.998 325.001 139.002C324.986 139.087 325.263 140.722 325.001 143Z" fill="#EABFAC"/>
    <path d="M416.062 213.111C416.114 213.379 416.328 214.034 416.062 214.086C415.846 214.129 415.307 214.039 415.093 214.086C414.882 214.142 414.332 214.019 414.125 214.086C413.745 214.191 413.515 213.939 413.156 214.086C414.407 214.918 416.058 216.027 416.062 216.037C416.345 216.072 416.747 216.006 417.031 216.037C417.549 216.091 418.446 215.997 418.968 216.037C420.01 216.117 420.825 216.013 421.874 216.037C421.848 215.785 422.118 216.042 421.874 216.037C421.901 216.309 422.144 216.984 421.874 217.012C420.812 217.121 420.037 216.961 418.968 217.012C418.433 217.038 417.568 217.001 417.031 217.012C416.819 217.016 416.272 217.01 416.062 217.012C416.06 217.021 416.064 217.003 416.062 217.012C416.627 217.208 417.427 217.812 417.999 217.987C418.642 218.185 419.285 217.821 419.936 217.987C420.587 218.158 421.215 218.829 421.874 218.962C421.9 218.707 422.118 219.013 421.874 218.962C421.846 219.234 422.144 219.965 421.874 219.937C421.185 219.866 420.619 220.047 419.936 219.937C419.252 219.832 418.677 219.101 417.999 218.962C417.332 218.827 416.724 219.126 416.062 218.962C416.059 218.966 416.065 218.958 416.062 218.962C415.85 218.856 416.269 219.075 416.062 218.962C416.54 219.204 417.503 219.728 417.999 219.937C418.495 220.147 418.457 219.761 418.968 219.937C419.477 220.12 420.384 220.763 420.905 220.913C421.141 220.98 420.944 221.638 420.905 221.888C420.862 222.158 421.173 221.931 420.905 221.888C420.348 221.798 419.52 222.014 418.968 221.888C418.414 221.768 417.576 221.07 417.031 220.913C416.485 220.755 416.599 221.108 416.062 220.913C415.793 220.815 415.36 220.046 415.093 219.937C414.973 219.887 414.243 219.989 414.125 219.937C414.119 219.943 414.13 219.932 414.125 219.937C414.241 220.025 414.974 219.852 415.093 219.937C415.449 220.191 415.688 220.678 416.062 220.913C416.437 221.147 416.642 221.671 417.031 221.888C417.419 222.105 417.6 222.661 417.999 222.863C418.214 222.972 419.046 222.627 418.968 222.863C418.882 223.122 418.257 222.95 417.999 222.863C417.563 222.716 417.463 223.028 417.031 222.863C416.598 222.699 415.52 222.075 415.093 221.888C414.667 221.7 414.545 222.104 414.125 221.888C413.915 221.779 413.365 221.032 413.156 220.913C413.117 220.888 413.194 220.936 413.156 220.913C412.631 220.841 410.757 220.245 408.313 217.987C407.512 217.247 408.398 214.688 409.282 214.086C410.277 213.409 411.696 213.148 412.188 213.111C412.431 213.023 412.91 213.181 413.156 213.111C413.631 212.987 413.646 213.172 414.125 213.111C414.363 213.071 414.856 213.137 415.093 213.111C415.332 213.094 415.824 213.122 416.062 213.111C416.302 213.099 416.015 212.867 416.062 213.111Z" fill="#F99370"/>
    <path d="M397 297C397 297 385.051 305.609 373 307C373.462 308.11 373.507 309.842 374 311C382.38 309.681 392.728 304.713 399 300C398.358 298.916 397.589 298.082 397 297Z" fill="#10325B"/>
    <path d="M330 308C330.197 309.893 330 310.693 330 310.693C337.066 314.068 348 313.171 355 311.59C354.837 310.549 354.142 309.921 354 308.898C354 308.898 354.002 308.898 354 308.898C353.811 308.95 342.198 312.355 330 308Z" fill="#10325B"/>
    <path d="M350.437 311L353.175 310C353.115 309.485 353.231 309.509 353.175 309C353.175 309 353.176 309 353.175 309C348.833 270.003 355 243 355 243C354.909 243.454 352.59 245.118 351.349 252C350.108 258.884 347.292 289.005 350.437 311Z" fill="#10325B"/>
    <path d="M239 126.251L240 124H234C234 124 234.201 125.577 234 126.251C234 126.251 235.422 127.936 239 126.251Z" fill="#F99370"/>
    <path d="M295 125.492C295 125.492 294.087 124.574 294 124H289V125.492C289 125.492 292.111 126.635 295 125.492Z" fill="#F99370"/>
    <path d="M287.77 323H271.985C270.563 322.944 270.736 321.094 270.999 320C271.896 316.057 270.306 307.055 270.012 303C269.934 302.258 270.231 302 270.999 302H277.905C278.684 302 278.988 302.248 278.891 303L277.905 313C277.403 317.695 282.516 318.353 285.797 319C287.086 319.315 288.129 320.064 288.757 321C289.343 321.838 288.812 323 287.77 323Z" fill="#F99370"/>
    <path d="M271.065 320.999C271.109 321.827 271.12 322.019 272.056 321.999H288.906C289.789 322 290.211 321.845 289.897 320.999C289.233 319.085 287.073 316.468 278.994 316C277.834 316.116 275.885 316.533 272.056 316C272.056 316 270.691 317.872 271.065 320.999Z" fill="#1D3F70"/>
    <path d="M288.918 320.003H271.113C271.182 320.705 270.827 321.386 271.113 322H287.929C288.758 322 289.193 320.963 288.918 320.003C288.921 320.015 288.915 319.992 288.918 320.003Z" fill="#395B96"/>
    <path d="M252 319.016L242.237 320C242.237 318.83 241.704 317.953 242.237 317.048C244.198 314.524 242.169 303.269 242.237 300.32C241.783 299.513 250.882 300.511 251.024 300.32C251.04 300.125 251.226 300.32 251.024 300.32L250.047 313.112C249.573 315.56 251.932 316.708 252 319.016Z" fill="#F99370"/>
    <path d="M243.003 321H249.996C250.866 321 251.033 320.942 250.995 320C250.995 319.99 250.996 320.01 250.995 320C250.909 317.94 251.099 315.041 246.999 315C242.885 314.961 242.087 317.914 242.004 320C242.003 320.012 242.004 319.988 242.004 320C241.971 320.939 242.135 321 243.003 321Z" fill="#1D3F70"/>
    <path d="M243.003 322H249.996C250.866 322 251.033 321.076 250.995 320.004H242.004C242.003 320.018 242.004 319.99 242.004 320.004C241.971 321.073 242.135 322 243.003 322Z" fill="#395B96"/>
    <path d="M240.829 312.61C240.829 312.61 249.471 313.599 253.56 311.614C253.56 311.614 253.265 311.393 253.56 309.622C255.296 299.218 261.552 253.195 263.354 230.93C263.354 230.93 267.377 296.303 268.251 309.622C268.357 311.264 268.258 311.478 268.251 311.614C268.251 311.614 269.742 312.312 271.189 312.61C273.765 313.14 277.382 313.389 280.003 311.614C280.003 311.614 279.838 311.285 280.003 309.622C281.187 297.689 287.751 252.243 280.982 214.992C280.982 214.992 257.56 217.277 242.787 213C242.787 213 238.161 249.832 240.829 309.622C240.905 311.347 240.854 312.467 240.829 312.61Z" fill="#1D3F70"/>
    <path d="M271 310.622C270.166 299.245 267.542 246.589 267 239.962C266.377 232.341 264 232 264 232C264 232 268.896 301.267 269 304.651C269 304.65 269 304.652 269 304.651C269.002 304.703 269.001 312.593 269 312.612C269 312.612 270.483 313.309 272 313.608C274.701 314.139 278.252 314.392 281 312.612C281 312.612 281.827 312.29 282 310.622C282 310.622 276.695 311.788 271 310.622Z" fill="#10325B"/>
    <path d="M277.71 312C280.336 285.665 280.396 260.853 279.42 245C278.362 227.822 276.017 217.11 276 217C276.017 217.11 277.51 227.858 278.565 245C279.538 260.818 280.33 284.727 277.71 311V312Z" fill="#10325B"/>
    <path d="M248 312C252.555 264.577 254.983 218.46 255 218H254C253.983 218.46 252.553 263.6 248 311V312Z" fill="#10325B"/>
    <path d="M270 166L280.879 185C286.275 179.002 289.361 172.266 291.759 166C298.018 149.654 295.801 134.444 294.726 129C294.464 127.672 294.726 127 294.726 127C292.17 128.354 288.792 127 288.792 127C288.797 127.663 288.812 127.358 288.792 128C288.08 150.231 272.492 161.426 270 166Z" fill="#3A72AA"/>
    <path d="M264.898 164.893C265.282 161.61 265.362 157.372 264.898 155.433C264.058 151.588 257.26 152.599 258.291 156.379C258.491 156.255 259.677 163.905 259.235 165.839C253.414 167.556 270.365 172.482 264.898 164.893Z" fill="#F99370"/>
    <path d="M259.258 155.951C259.25 155.906 259.265 155.996 259.258 155.951C259.269 156.014 259.244 156.825 259.258 156.886C259.396 156.791 259.255 160.603 259.258 163.436C261.809 164.647 264.346 163.548 264.866 163.436C264.98 160.441 265.099 157.34 264.866 155.951C264.797 155.625 264.875 155.055 264.866 155.015C264.846 154.927 264.894 155.1 264.866 155.015C264.582 154.126 263.786 153.469 262.997 153.144C262.995 153.144 262.997 153.144 262.997 153.144C262.449 152.919 261.743 152.989 261.128 153.144C260.519 153.298 259.644 153.624 259.258 154.079C259.241 154.097 259.274 154.061 259.258 154.079C258.738 154.725 259.146 155.067 259.258 155.951Z" fill="#E57D61"/>
    <path d="M241.01 313.273C241.01 313.273 248.748 314.908 253.001 313.273C253.001 313.273 253.693 312.459 254 311C254 311 248.285 312.237 241.01 311C240.978 312.422 241.036 313.155 241.01 313.273Z" fill="#10325B"/>
    <path d="M271 151C271 151 269.502 147.342 268 145L267 146L271 151Z" fill="#1D3F70"/>
    <path d="M271.32 158.888C269.392 161.584 266.313 162.004 263.363 161.854C262.444 161.821 261.208 162.198 260.378 161.854C260.098 161.738 259.645 162.006 259.384 161.854C246.762 152.783 259.079 132.65 268.336 147.02C271.322 151.006 275.311 152.622 271.32 158.888Z" fill="#F99370"/>
    <path d="M265.138 151.138C265.222 150.875 265.401 151.222 265.138 151.138C264.875 151.054 265.222 150.875 265.138 151.138C265.054 151.401 264.875 151.054 265.138 151.138C265.401 151.222 265.054 151.401 265.138 151.138Z" fill="#C16256"/>
    <path d="M268.138 150.138C268.222 149.875 268.401 150.222 268.138 150.138C267.875 150.054 268.222 149.875 268.138 150.138C268.054 150.401 267.875 150.054 268.138 150.138C268.401 150.222 268.054 150.401 268.138 150.138Z" fill="#C16256"/>
    <path d="M267.911 152.887C267.657 152.945 267.284 152.915 267.049 152.887C266.956 152.877 267.035 152.96 267.049 152.887C266.958 152.877 267.062 152.814 267.049 152.887C267.638 152.957 268.705 153.101 268.773 152.887C268.797 152.812 268.89 152.92 268.773 152.887C267.742 152.604 267.087 151.095 267.049 151.039C266.966 151.074 267.004 150.974 267.049 151.039C267.004 150.974 267.134 151.002 267.049 151.039C267.058 151.051 267.866 151.714 268.773 151.963C269.268 152.099 268.804 152.789 268.773 152.887C268.692 153.144 268.409 152.775 267.911 152.887Z" fill="#C16256"/>
    <path d="M267 146.245C264.53 145.376 260.205 146.902 258.176 147.231C258.176 147.231 259.312 150.948 256.216 154.13C256.438 157.518 256.233 158.5 260.137 162.014V163C259.867 162.882 259.409 162.17 259.157 162.014C247.451 153.205 258.12 133.323 267 146.245Z" fill="#E57D61"/>
    <path d="M267.809 139.399C266.041 136.947 262.124 135.531 259.226 139.399C256.995 142.377 253.97 142.58 254.458 145.249C249.553 148.555 253.504 155 253.504 155L256.365 154.025C258.999 151.042 258.273 147.199 258.273 147.199C258.954 147.122 259.576 146.491 260.18 146.224C262.052 145.398 264.52 144.791 266.855 145.249C269.19 145.707 269.785 142.139 267.809 139.399Z" fill="#1D3F70"/>
    <path d="M253.165 155.903C253.59 157.092 254.059 157.175 254.945 156.805C255.831 156.435 256.26 155.287 255.835 154.097C255.41 152.908 254.941 152.825 254.055 153.195C253.169 153.565 252.74 154.713 253.165 155.903Z" fill="#F99370"/>
    <path d="M254.964 154.255C254.93 154.246 254.474 153.686 254.11 154.255C254.017 154.399 254.124 154.898 254.11 155.11C254.11 155.109 254.11 155.11 254.11 155.11C254.109 155.13 254.111 155.09 254.11 155.11C254.11 155.11 254.11 155.11 254.11 155.11C254.11 155.11 254.11 155.11 254.11 155.11C254.099 155.501 253.868 155.366 254.11 155.965C254.053 155.985 254.137 156.032 254.11 155.965C254.103 155.969 254.117 155.963 254.11 155.965C254.14 156.041 254.172 155.928 254.11 155.965C253.914 155.479 254.126 155.429 254.11 155.11C254.842 155.124 254.959 155.956 254.964 155.965C254.912 155.983 254.994 156.024 254.964 155.965C254.953 155.973 254.975 155.962 254.964 155.965C255 156.037 255.022 155.921 254.964 155.965C254.94 155.92 254.97 154.277 254.11 154.255C254.068 154.32 254.128 154.164 254.11 154.255C254.378 153.837 254.957 154.253 254.964 154.255C255.032 154.272 254.949 154.337 254.964 154.255C255.031 154.273 254.978 154.173 254.964 154.255Z" fill="#C16256"/>
    <path d="M282 214.972C282 214.972 281.296 216.266 278.041 217.929C274.787 219.591 266.166 219.9 266.166 219.9C266.166 219.9 264.854 219.252 264.186 217.929C264.186 217.929 263.497 219.062 262.207 219.9C262.207 219.9 252.911 221.127 242.414 214.972C242.414 214.972 241.483 214.629 242.414 213L282 214.972Z" fill="#F4D4BE"/>
    <path d="M255.892 155.972L255.031 155.142C255.025 155.097 255.052 155.186 255.031 155.142C254.906 154.884 254.477 155.037 254.169 155.142C253.861 155.247 254.044 154.884 254.169 155.142C254.291 155.393 253.867 156.062 254.169 155.972H255.892C255.985 156.021 255.794 155.996 255.892 155.972C255.978 155.952 255.842 156.04 255.892 155.972C256.067 156.063 256.001 155.826 255.892 155.972Z" fill="#FDFFDE"/>
    <path d="M280.518 214.557C280.518 214.557 260.446 221.201 242.398 212.575C242.398 212.575 240.69 209.87 244.353 196.72C245.697 191.893 244.963 185.231 245.33 182.846C246.85 172.957 253.708 167.404 257.059 166L259.014 166.991C260.376 170.285 262.561 169.628 263.901 168.973C265.508 168.187 264.928 167.196 264.879 166.991C267.117 167.698 267.811 166 267.811 166C271.448 169.125 278.314 178.281 279.54 185.819C280.662 192.712 281.608 207.521 280.518 214.557Z" fill="#3A72AA"/>
    <path d="M292.029 176.037C291.944 176.1 292.145 175.929 292.029 176.037C291.928 176.124 292.13 175.953 292.029 176.037Z" fill="#A523A2"/>
    <path d="M235.017 173.026C234.959 172.95 235.073 173.102 235.017 173.026C234.962 172.942 235.074 173.094 235.017 173.026Z" fill="#A523A2"/>
    <path d="M268.87 166C268.87 166 269.759 170.442 266.894 171.988C266.894 171.988 264.944 172.183 263.93 170.99C263.93 170.99 263.397 171.537 261.954 171.988C261.954 171.988 257.877 171.102 258.003 166C258.003 166 258.228 166.224 258.991 166.998C258.991 166.998 261.179 169.026 263.93 168.994C265.723 168.973 265.906 166.998 265.906 166.998C265.906 166.998 266.848 166.202 268.87 166Z" fill="#F4D4BE"/>
    <path d="M267.098 155.936C266.816 155.848 267.248 156.1 267.098 155.936C266.934 155.757 267.015 155.362 267.098 155.197C267.263 154.87 267.422 155.007 268.033 155.197C268.644 155.388 269.132 155.608 268.968 155.936C268.885 156.1 268.307 155.894 268.033 155.936C267.957 155.947 268.114 155.936 268.033 155.936C267.841 155.935 267.295 155.997 267.098 155.936ZM268.968 155.936C269.074 155.725 268.489 155.34 268.033 155.197C267.576 155.055 267.204 154.987 267.098 155.197C267.049 155.293 266.989 155.817 267.098 155.936C266.863 155.862 267.219 156.068 267.098 155.936C267.332 156.009 267.829 155.966 268.033 155.936C268.215 155.908 268.919 156.031 268.968 155.936Z" fill="#C16256"/>
    <path d="M267.062 148.374C267.02 148.429 267.126 148.374 267.062 148.374C267.528 147.765 268.053 148.369 268.062 148.374C268.166 148.429 269.007 148.478 269.062 148.374C269.117 148.27 269.166 148.429 269.062 148.374C268.623 148.145 267.607 147.661 267.062 148.374C266.991 148.468 266.969 148.303 267.062 148.374C267.101 148.403 267.017 148.374 267.062 148.374Z" fill="#C16256"/>
    <path d="M264.126 149.961C264.106 150.045 264.219 149.961 264.126 149.961C264.198 149.647 263.895 149.259 264.126 149.129C264.486 148.925 265.058 149.128 265.062 149.129C265.169 149.151 265.974 149.224 265.999 149.129C266.025 149.034 265.17 149.151 265.062 149.129C265.038 149.124 264.634 148.841 264.126 149.129C263.801 149.313 264.22 149.55 264.126 149.961C264.104 150.057 264.017 149.942 264.126 149.961C264.139 149.964 264.112 149.961 264.126 149.961Z" fill="#C16256"/>
    <path d="M293.766 116.727C294.534 115.378 293.167 114.039 293.132 115.955C292.719 116.639 293.37 117.427 293.766 116.727Z" fill="#F99370"/>
    <path d="M291.856 116.683C292.544 114.661 290.514 114.525 291.111 115.932C291.1 115.92 291.11 115.9 291.111 115.932C291.112 115.963 291.123 115.899 291.111 115.932C291.103 115.953 291.111 115.934 291.111 115.932C290.778 116.686 291.544 117.446 291.856 116.683Z" fill="#F99370"/>
    <path d="M290.992 115.378V114.622C291.101 113.794 290.085 113.791 290.008 114.622V115.378C289.9 116.206 290.915 116.209 290.992 115.378Z" fill="#F99370"/>
    <path d="M289.516 124C289.516 124 286.913 119.333 288.528 116H294.457C294.457 116 295.679 121.152 294.457 125L289.516 124Z" fill="#F99370"/>
    <path d="M288.093 118.925C287.743 117.835 288.395 110.331 289.733 111.048C290.278 111.311 289.837 111.552 289.733 112.033C289.336 113.834 288.789 116.083 288.913 117.94C288.884 118.865 289.869 119.383 288.913 119.909C288.331 120.226 288.113 119.668 288.093 118.925Z" fill="#F99370"/>
    <path d="M286.038 115.199C287.464 116.778 289.143 118.236 290.683 119.696C291.975 120.958 288.974 122.937 287.896 121.496C286.605 119.701 286.248 117.973 285.109 116.098C284.697 115.45 285.548 114.611 286.038 115.199Z" fill="#F99370"/>
    <path d="M292.601 117.201C291.662 117.395 291.951 116.664 292.601 117.201C293.314 117.647 293.302 117.125 293.601 117.201C293.787 117.472 292.822 117.151 292.601 117.201Z" fill="#E57D61"/>
    <path d="M291.691 116.986C291.461 117.106 290.865 116.414 291.028 116.022C291.222 115.983 291.217 116.277 291.691 116.022C291.994 115.848 291.684 115.473 291.691 115.057C291.542 115.162 291.724 114.887 291.691 115.057C291.678 114.992 291.735 115.039 291.691 115.057C291.846 115.778 292.302 116.789 291.691 116.986Z" fill="#E57D61"/>
    <path d="M290.679 116.979C290.257 117.105 289.96 116.641 290.004 116.047V115.115C290.013 114.962 290.015 114.961 290.004 115.115V116.047C289.941 116.914 290.635 116.913 290.679 116.047C290.681 116.032 290.797 115.649 290.679 115.115C290.634 115.135 290.666 115.053 290.679 115.115C290.665 115.052 290.725 115.097 290.679 115.115C290.813 116.202 291.329 116.698 290.679 116.979Z" fill="#E57D61"/>
    <path d="M290.954 120.972C289.899 119.365 288.092 118.093 288.016 118.172C287.797 117.446 289.897 119.134 290.954 120.972C291.034 120.958 290.993 121.041 290.954 120.972Z" fill="#E57D61"/>
    <path d="M234.159 162.002C236.283 168.764 239.574 176.371 245.083 183C245.61 183.637 245.509 184.37 246.076 185L257 166.001C254.5 161.426 238.872 151.223 238.132 129.004C238.109 128.343 238.126 127.685 238.132 127.005C238.132 127.005 234.741 128.36 232.173 127.005C232.173 127.005 232.406 126.874 232.173 128.004C231.198 132.775 229.358 146.703 234.159 162.002Z" fill="#3A72AA"/>
    <path d="M234.217 116.719C233.467 115.348 234.902 114.057 234.875 115.954C235.28 116.65 234.605 117.429 234.217 116.719Z" fill="#F99370"/>
    <path d="M235.117 116.676C234.504 114.634 236.523 114.549 235.867 115.928C235.87 115.895 235.879 115.916 235.867 115.928C235.857 115.894 235.865 115.958 235.867 115.928C235.867 115.929 235.875 115.948 235.867 115.928C236.173 116.692 235.401 117.449 235.117 116.676Z" fill="#F99370"/>
    <path d="M237.003 115.378V114.622C236.936 113.794 237.961 113.792 237.997 114.622V115.378C238.064 116.206 237.039 116.208 237.003 115.378Z" fill="#F99370"/>
    <path d="M237.724 124C237.724 124 239.881 119.394 238.586 116H233.416C233.416 116 232.48 120.107 233.416 124H237.724Z" fill="#F99370"/>
    <path d="M238.9 118.595C239.256 117.559 238.642 109.403 237.385 110.035C236.875 110.264 237.304 110.517 237.385 110.986C237.698 112.743 237.556 114.905 237.385 116.692C237.385 117.587 236.519 118.043 237.385 118.595C237.913 118.926 238.86 119.311 238.9 118.595Z" fill="#F99370"/>
    <path d="M241.973 116.19C240.517 117.721 238.992 119.301 237.429 120.71C236.116 121.928 238.136 123.924 239.246 122.517C240.579 120.764 241.694 118.933 242.881 117.094C243.31 116.458 242.475 115.619 241.973 116.19Z" fill="#F99370"/>
    <path d="M234.156 117.184C235.087 117.414 235.826 116.673 235.156 117.184C234.426 117.602 234.458 117.12 234.156 117.184C233.96 117.448 233.937 117.126 234.156 117.184Z" fill="#E57D61"/>
    <path d="M235.312 116.984C235.538 117.116 236.127 116.421 235.975 116.02C235.782 115.97 235.779 116.301 235.312 116.02C235.014 115.829 235.308 115.472 235.312 115.057C235.283 114.885 235.458 115.17 235.312 115.057C235.268 115.036 235.327 114.992 235.312 115.057C235.138 115.767 234.707 116.752 235.312 116.984Z" fill="#E57D61"/>
    <path d="M236.324 116.973C236.742 117.121 237.025 116.638 236.998 116.044V115.115C236.992 114.961 236.994 114.962 236.998 115.115V116.044C237.037 116.911 236.344 116.909 236.324 116.044C236.323 116.029 236.192 115.641 236.324 115.115C236.34 115.053 236.369 115.137 236.324 115.115C236.279 115.094 236.34 115.053 236.324 115.115C236.16 116.191 235.685 116.658 236.324 116.973Z" fill="#E57D61"/>
    <path d="M236.047 120.973C237.164 119.403 238.906 118.085 238.979 118.167C239.227 117.448 237.176 119.172 236.047 120.973C236.005 121.041 235.967 120.956 236.047 120.973Z" fill="#E57D61"/>
    <path d="M278 177C278.059 177.101 279.34 180.395 280 184C285.455 177.994 289.576 172.273 292 166C291.863 166.248 287.347 173.444 284 176C280.657 178.551 278.095 177.051 278 177Z" fill="#23659B"/>
    <path d="M235 162C237.139 168.763 240.452 175.37 246 182C246.135 178.222 249 174 249 174C243.315 178.189 235 162 235 162Z" fill="#23659B"/>
    <path d="M289 126C289.006 126.606 289.021 126.326 289 126.913C292.389 128.592 295 127.826 295 127.826C294.736 126.612 294 126 294 126C291.416 127.238 289 126 289 126Z" fill="#23659B"/>
    <path d="M233 127.85C235.612 129.78 239 128.697 239 128.697C238.977 128.137 238.994 127.58 239 127.004C239 127.004 235.586 128.152 233 127.004C233 127.004 233.234 126.894 233 127.85Z" fill="#23659B"/>
    <path d="M171.847 164.461C176.535 155.596 183.733 156.645 183.733 156.645C183.733 156.645 190.155 153.654 195.618 160.553C205.374 172.872 191.822 186.99 182.742 192.793C177.729 195.997 156.042 197.167 156 185.954C155.965 176.76 166.37 174.819 171.847 164.461Z" fill="#1D3F70"/>
    <path d="M190.189 196.079C189.507 192.481 190.785 189.349 192.176 186.183C195.085 179.365 200.583 173.042 205.093 167.379C210.038 160.414 212.675 151.93 215.029 143.628C215.711 140.911 220.135 141.838 219.997 144.618C219.745 154.518 217.427 164.225 213.042 173.317C202.992 194.156 192.039 204.465 190.189 196.079Z" fill="#F99370"/>
    <path d="M195.069 195C196.314 197.012 197.513 198.503 198.962 200C199.475 200.528 199.448 200.571 199.936 201C199.936 201 204.75 195.773 207.722 192C207.72 192.004 207.726 191.996 207.722 192C207.774 191.935 208.645 192.065 208.695 192C208.693 192.002 208.697 191.998 208.695 192C209.4 191.099 209.289 190.618 209.669 190C212.147 185.964 217.586 171.874 213.562 171C210.25 170.282 208.348 168.571 205.775 167C202.129 167.27 200.726 174.682 194.096 181C190.372 184.549 192.188 190.339 195.069 195Z" fill="#F4D4BE"/>
    <path d="M220.705 137.768C221.52 136.524 220.415 134.959 220.157 136.951C219.723 137.577 220.284 138.412 220.705 137.768Z" fill="#F99370"/>
    <path d="M219.761 136.715C220.633 134.787 218.815 134.419 219.12 135.946C219.112 135.932 219.124 135.913 219.12 135.946C219.116 135.977 219.134 135.914 219.12 135.946C219.11 135.965 219.12 135.947 219.12 135.946C218.729 136.651 219.387 137.433 219.761 136.715Z" fill="#F99370"/>
    <path d="M218.953 135.291C219.218 134.351 218.284 133.456 218.047 134.405V135.291C217.782 136.232 218.716 136.24 218.953 135.291Z" fill="#F99370"/>
    <path d="M215.29 144C215.29 144 214.213 139.019 216.211 136L220.816 137C220.816 137 221.611 141.406 219.895 145L215.29 144Z" fill="#F99370"/>
    <path d="M216.019 137.968C215.809 136.821 217.379 129.108 218.711 130.085C219.257 130.455 218.896 130.617 218.711 131.071C218.007 132.772 217.964 135.122 217.813 136.983C217.64 137.892 218.027 138.625 216.916 138.954C216.24 139.149 215.927 138.707 216.019 137.968Z" fill="#F99370"/>
    <path d="M214.005 134.539C215.152 136.42 216.494 138.432 217.777 140.21C218.846 141.74 215.771 142.835 214.948 141.156C213.973 139.073 213.87 136.678 213.062 134.539C212.764 133.796 213.618 133.846 214.005 134.539Z" fill="#F99370"/>
    <path d="M220.575 137.276C219.618 137.311 220.025 136.638 220.575 137.276C221.202 137.836 221.294 137.152 221.575 137.276C221.713 137.575 220.802 137.264 220.575 137.276Z" fill="#E57D61"/>
    <path d="M219.223 137.996C218.903 138.059 218.949 137.377 219.223 137.027C219.485 137.036 219.446 137.164 220.109 137.027C220.534 136.929 220.036 136.469 220.109 136.059C219.897 136.127 220.179 135.898 220.109 136.059C220.17 136.051 220.988 135.99 220.994 136.059C221.087 136.812 220.057 137.95 219.223 137.996Z" fill="#E57D61"/>
    <path d="M219.019 136.999C218.393 137.026 217.87 136.639 218.038 136.056V135.114C218.077 134.962 218.081 134.962 218.038 135.114V136.056C217.794 136.907 218.802 136.911 219.019 136.056C219.024 136.041 219.093 135.674 219.019 135.114C218.95 135.122 219.01 135.047 219.019 135.114C219.088 135.106 219.991 135.047 220 135.114C219.999 136.23 219.997 136.869 219.019 136.999Z" fill="#E57D61"/>
    <path d="M218.957 141C218.197 139.211 216.092 137.128 216.002 137.196C215.915 136.429 218.236 138.027 218.957 140.049C218.983 140.125 219.039 140.999 218.957 141Z" fill="#E57D61"/>
    <path d="M199 192V200C199.526 200.528 200.498 201.571 201 202C201 202 205.947 196.773 209 193C207.852 194.326 204.13 195.939 203 195C201.809 194.008 199 192 199 192Z" fill="#EABFAC"/>
    <path d="M190.315 179V180.994C190.315 180.994 191.856 193.92 190.315 194.954C188.95 195.87 185.544 182.84 185 181.991C185 181.991 185.028 179.987 185 179H190.315Z" fill="#F99370"/>
    <path d="M130 294.438L128 278.888C128.81 278.484 132.591 278.293 134 277.916C134.901 277.832 145.821 275.281 147 275L149 283.747H137C135.559 283.798 134.224 285.279 134 286.663C133.35 289.731 134.028 292.219 132 294.438C131.305 295.034 130.149 295.327 130 294.438Z" fill="#F99370"/>
    <path d="M128.975 278.273C128.455 278.423 128.422 277.93 128 278.273L129.95 294.905C130.075 295.678 131.214 296.258 131.9 295.883C133.501 295.003 135.628 292.512 134.824 285.121C134.824 285.121 133.773 282.492 133.85 278.273C133.85 278.273 131.084 277.659 128.975 278.273Z" fill="#1D3F70"/>
    <path d="M132 294.872L129 278.125C128.466 278.276 128.433 277.78 128 278.125L130 293.887C130.129 294.676 131.297 295.272 132 294.872Z" fill="#395B96"/>
    <path d="M201.834 322H186.092C185.827 321.128 186.231 316.456 186.092 315C186.089 314.387 186.148 311.611 186.092 311L187.076 302H193.963L192.979 314C192.787 315.428 193.604 316.536 194.947 317C197.895 318.176 200.93 317.637 202.817 320C203.307 320.794 202.756 322.01 201.834 322Z" fill="#F99370"/>
    <path d="M185.11 320C185.17 320.552 184.84 321.514 185.11 322H200.986C201.78 322.009 203.225 320.758 202.97 320C202.369 318.228 199.583 316.48 192.055 316C192.055 316 189.314 316.815 185.11 316C185.11 316 184.863 317.762 185.11 320Z" fill="#1D3F70"/>
    <path d="M202.965 321H185.107C185.167 321.552 184.838 321.514 185.107 322H200.981C201.787 322.01 203.243 321.761 202.965 321Z" fill="#395B96"/>
    <path d="M184.046 171.298C184.063 171.411 184.019 172.145 184.046 172.256C184.203 172.156 184.043 175.984 184.046 178.957C186.943 180.227 190.403 180.031 190.994 179.914C191.059 176.148 190.574 172.495 190.002 170.341C188.829 166.696 183.449 167.532 184.046 171.298Z" fill="#E57D61"/>
    <path d="M179.361 169.3C180.191 172.127 181.657 175.319 184.202 176.946C185.23 177.598 185.874 177.814 187.107 177.902C194.1 179.01 201.881 170.458 195.822 165.477C193.665 163.946 192.742 160.356 190.98 158.787C188.335 155.844 183.631 156.798 181.297 159.742C179.189 162.404 178.502 165.799 179.361 169.3Z" fill="#F99370"/>
    <path d="M193 171H191C191.259 172.334 192.322 172.333 193 171Z" fill="#F9F8F3"/>
    <path d="M190.153 166.421C190.348 165.857 190.365 165.863 190.153 166.421C189.941 166.979 189.957 166.985 190.153 166.421Z" fill="#C16256"/>
    <path d="M194.153 165.421C194.348 164.857 194.365 164.863 194.153 165.421C193.941 165.979 193.958 165.985 194.153 165.421Z" fill="#C16256"/>
    <path d="M193.028 171.099C192.977 171.143 191.086 171.091 191.028 171.099C190.97 171.091 191.019 171.157 191.028 171.099C190.934 170.855 192.982 171.144 193.028 171.099C193.129 171.111 193.12 171.06 193.028 171.099Z" fill="#C16256"/>
    <path d="M136.02 275.973C136.02 275.973 135.772 280.569 137.014 284.924C138.074 284.836 138.979 285.015 139.997 284.924C168.871 282.396 180.894 279.094 185.723 242.158C185.723 242.158 193.889 268.114 183.735 306.805C183.44 307.939 183.068 309.646 182.741 310.783C182.741 310.783 187.163 313.844 192.681 312.772C199.564 299.686 213.745 264.467 200.634 223.261C192.818 214.215 174.43 209.847 168.824 219.282C159.469 235.033 176.529 263.892 139.002 274.979C137.969 275.285 137.137 275.697 136.02 275.973Z" fill="#1D3F70"/>
    <path d="M193.002 168.835C192.802 168.869 192.31 169.188 192.288 168.835C192.221 168.819 192.301 168.748 192.288 168.835C192.719 168.94 193.659 168.169 193.716 167.915C193.736 167.826 193.087 167.958 193.002 167.915C192.268 167.577 191.6 165.592 192.288 166.075C192.294 166.091 193.06 167.583 193.716 167.915C194.47 168.423 193.545 168.646 193.002 168.835Z" fill="#C16256"/>
    <path d="M179.447 169.366C180.257 172.188 181.686 175.375 184.169 177C182.731 175.59 181.336 172.229 181.336 172.229L182.28 170.32C191.784 165.864 189.835 157.915 189.835 157.915C182.963 154.124 177.345 162.933 179.447 169.366Z" fill="#E57D61"/>
    <path d="M188.827 157.296C188.827 157.296 190.695 165.545 182.155 170L178.343 168.046C174.46 162.145 179.314 152.496 188.827 157.296Z" fill="#1D3F70"/>
    <path d="M177.575 154.882C180.668 161.918 189.291 159.237 186.425 152.117C183.332 145.082 174.709 147.763 177.575 154.882Z" fill="#1D3F70"/>
    <path d="M177.191 171.425C178.187 174.503 181.873 172.63 180.809 169.575C179.813 166.497 176.127 168.37 177.191 171.425Z" fill="#F99370"/>
    <path d="M178.363 171C177.708 170.446 178.085 169.571 178.363 169.316C178.868 168.789 180.039 169.016 179.999 169.316C179.855 169.627 178.855 168.788 178.363 169.316C177.854 169.812 178.668 170.716 178.363 171Z" fill="#C16256"/>
    <path d="M179.871 171C179.545 171.02 179.298 170.155 178.038 170.179C177.95 170.183 178.043 170.258 178.038 170.179C178.831 169.494 180.471 170.994 179.871 171Z" fill="#C16256"/>
    <path d="M181.047 173.378C181.101 173.882 181.116 173.88 181.047 173.378C180.977 172.875 180.992 172.873 181.047 173.378Z" fill="#F4D4BE"/>
    <path d="M184.079 310.869C184.079 310.869 187.501 313.811 193.014 312.781C193.014 312.781 194.026 311.722 195 309.913C195 309.913 187.621 311.189 184.079 308C183.791 309.071 184.408 309.767 184.079 310.869Z" fill="#10325B"/>
    <path d="M191 312C195.804 300.244 199.038 287.822 200.638 276C201.918 266.54 202.42 257.072 201.602 248C200.207 232.541 195.859 224.092 195.819 224C195.859 224.091 199.259 232.657 200.638 248C201.911 262.158 201.814 285.535 191 312Z" fill="#10325B"/>
    <path d="M139 284C150.128 282.929 158.052 280.862 164 278C169.942 275.141 173.654 271.354 176 266C181.85 252.646 182.003 223.298 182 223H181C181.003 223.296 180.785 251.795 175 265C170.491 275.293 160.701 280.911 139 283V284Z" fill="#10325B"/>
    <path d="M169.125 219.353C177.979 223.563 190.487 225.734 200.844 222.303C200.844 222.303 202.435 219.519 201.835 217.386C198.375 205.077 208.163 203.528 198.862 191.818C196.461 188.795 192.325 184.549 190.932 181.983C190.932 181.983 190.78 193.854 188.949 193.784C186.443 193.689 183.993 181 183.993 181C182.858 181.053 175.067 181.376 170.116 207.552C169.617 210.207 166.304 216.351 169.125 219.353Z" fill="#F4D4BE"/>
    <path d="M189.054 165.993C189.12 165.985 189.026 165.096 189.054 165.025C189.513 163.857 189.94 164.06 189.947 164.057C189.984 164.163 190.045 164.017 189.947 164.057C189.911 163.951 190.046 164.018 189.947 164.057C189.91 164.072 189.582 163.684 189.054 165.025C189.012 165.13 188.957 165.948 189.054 165.993C189.085 166.007 189.022 165.996 189.054 165.993Z" fill="#C16256"/>
    <path d="M194.054 164.052C194.032 164.142 194.141 164.042 194.054 164.052C194.08 163.938 194.168 164.079 194.054 164.052C194.029 164.046 193.447 164.03 192.054 164.052C191.934 164.053 192.052 163.934 192.054 164.052C191.936 164.054 192.055 164.169 192.054 164.052C193.383 164.031 194.048 164.051 194.054 164.052C194.077 164.057 194.03 164.055 194.054 164.052Z" fill="#C16256"/>
    <path d="M136.02 276.076C136.02 276.076 135.771 280.644 137.015 284.974C138.076 284.885 138.981 285.064 140 284.974C138.274 280.15 138.988 276.202 139.005 276.076C137.971 276.38 137.138 275.802 136.02 276.076Z" fill="#10325B"/>
    <path d="M173.658 181.702C166.298 185.969 158.988 191.27 155.271 199.385C150.456 211.914 160.2 224.188 169.787 230.822C170.351 231.264 172.04 231.539 172.691 231.805C173.697 232.215 173.813 232.02 174.626 230.822C175.301 229.701 175.276 228.709 174.626 227.875C173.937 226.99 172.325 226.728 171.723 225.91C158.266 209.794 161.265 202.087 179.465 193.491C187.016 189.752 181.237 178.034 173.658 181.702Z" fill="#F99370"/>
    <path d="M169 230C169 230 169.775 228.125 173 227.035C173 227.035 172.781 226.289 172 226.046C172 226.046 169.238 225.391 168 229.012C168 229.012 168.124 229.812 169 230Z" fill="#10325B"/>
    <path d="M155 201C155.42 190.08 168.324 182.062 180.996 180C180.996 180 185.297 183.596 185.996 193C186.187 195.579 180.203 197.813 175.997 199C169.137 200.811 168.736 207.513 163.999 208C163.999 208 156.942 206.864 155 201Z" fill="#F4D4BE"/>
    <path d="M190.927 181.455C190.927 181.455 192.206 180.395 193.906 180.483C193.906 180.483 194.973 194.698 189.935 197C189.935 197 185.537 194.258 183.978 189.227C182.42 184.2 182.421 181.426 181 179.512C181 179.512 182.872 178.361 183.978 179.512C183.978 179.512 185.833 182.322 186.956 186.313C188.08 190.303 189.935 192.142 189.935 192.142C189.935 192.142 190.667 186.516 190.927 181.455Z" fill="#EABFAC"/>
    <path d="M180.939 230.03C180.883 230.303 180.228 230.086 179.954 230.03C179.731 229.984 180.176 230.07 179.954 230.03C179.731 229.998 179.193 230.048 178.969 230.03C178.566 229.978 178.384 230.033 177.984 230.03C178.846 231.311 179.954 231.984 179.954 231.994C180.21 232.14 180.681 232.836 180.939 232.977C181.411 233.234 181.443 232.732 181.924 232.977C182.885 233.466 183.89 234.503 184.879 234.941C184.954 234.694 185.11 235.043 184.879 234.941C184.797 235.209 185.147 236.004 184.879 235.923C183.824 235.604 182.962 235.317 181.924 234.941C181.404 234.753 180.469 234.162 179.954 233.959C179.751 233.879 179.17 234.041 178.969 233.959C178.964 233.967 178.975 233.951 178.969 233.959C179.429 234.368 180.463 234.549 180.939 234.941C181.472 235.383 182.355 235.508 182.909 235.923C183.461 236.342 183.32 237.5 183.894 237.888C184.019 237.657 184.106 238.032 183.894 237.888C183.76 238.133 184.14 239.003 183.894 238.87C183.266 238.529 182.531 237.28 181.924 236.905C181.315 236.534 180.544 236.324 179.954 235.923C179.372 235.53 178.55 235.358 177.984 234.941C177.98 234.944 177.988 234.938 177.984 234.941C178.136 235.13 178.81 235.738 178.969 235.923C179.329 236.341 179.564 236.511 179.954 236.905C180.343 237.3 180.523 237.519 180.939 237.888C181.351 238.262 181.487 238.522 181.924 238.87C182.122 239.027 182.061 239.632 181.924 239.852C181.776 240.089 182.162 239.999 181.924 239.852C181.429 239.546 180.429 239.208 179.954 238.87C179.474 238.537 179.426 238.253 178.969 237.888C178.511 237.522 178.418 237.303 177.984 236.905C177.767 236.707 177.211 236.131 176.999 235.923C176.904 235.828 177.092 236.019 176.999 235.923C176.992 235.926 177.006 235.921 176.999 235.923C176.92 235.795 177.075 236.052 176.999 235.923C177.237 236.303 177.721 236.535 177.984 236.905C178.249 237.275 177.7 238.511 177.984 238.87C178.268 239.229 178.669 239.503 178.969 239.852C179.131 240.04 179.137 239.66 178.969 239.852C178.785 240.062 179.18 240.036 178.969 239.852C178.612 239.54 178.331 239.197 177.984 238.87C177.637 238.543 176.347 238.233 176.014 237.888C175.683 237.541 175.344 237.276 175.03 236.905C174.873 236.719 175.181 237.1 175.03 236.905V235.923C175.001 235.884 175.056 235.96 175.03 235.923C174.558 235.647 172.942 235.002 171.09 231.994C170.503 231.041 172.944 228.026 174.045 228.066C174.815 228.093 176.516 227.905 176.999 228.066C177.266 228.079 177.722 228.034 177.984 228.066C178.485 228.137 178.489 228.915 178.969 229.048C179.212 229.104 179.717 228.978 179.954 229.048C180.189 229.126 180.708 228.964 180.939 229.048C181.172 229.131 180.99 229.781 180.939 230.03Z" fill="#F99370"/>
    <path d="M178 197C178 197 173.024 198.354 171 201C171 201 171.255 202.821 171 204C171 204 172.359 200.881 178 197Z" fill="#EABFAC"/>
    <path d="M137 138.841V136.921L132 135V136.921C132 136.921 133.019 139.68 137 138.841Z" fill="#F99370"/>
    <path d="M62 233V231H57.0296C57.0296 231 56.963 233.38 57.0296 235L62 233Z" fill="#F99370"/>
    <path d="M99 166L100.995 186C103.725 184.564 105.647 183.579 107.976 182C114.307 177.708 119.131 172.716 122.936 168C122.936 168 122.939 167.996 122.936 168C132.185 156.539 135.139 145.579 135.901 141C136.124 139.645 135.901 139 135.901 139C133.013 139.35 130.914 137 130.914 137C130.664 137.676 130.19 137.356 129.917 138C121.272 158.417 102.964 162.616 99 166Z" fill="#3A72AA"/>
    <path d="M56.4127 227.422C56.5212 228.631 56.4127 229.402 56.4127 229.402C58.4258 230.747 62.321 229.402 62.321 229.402C62.5586 228.749 63.0568 228.161 63.3057 227.422C66.0747 219.219 69.3274 206.574 71.1834 198.706C73.6549 188.223 81.3479 186.353 83 183.853L78.0764 169C53.6379 179.874 55.5932 218.414 56.4127 227.422Z" fill="#3A72AA"/>
    <path d="M139.3 128.92C140.971 128.102 139.24 126 138.348 127.562C137.467 127.968 138.436 129.344 139.3 128.92Z" fill="#F99370"/>
    <path d="M137.679 128.762C138.649 126.974 137.106 126.284 137.148 127.947C137.143 127.93 137.155 127.913 137.148 127.947C137.14 127.978 137.164 127.917 137.148 127.947C137.137 127.964 137.147 127.948 137.148 127.947C136.734 128.582 137.278 129.416 137.679 128.762Z" fill="#F99370"/>
    <path d="M136.896 127.31C137.287 126.396 136.472 125.454 136.104 126.381V127.31C135.713 128.223 136.528 128.237 136.896 127.31Z" fill="#F99370"/>
    <path d="M133.084 135C133.084 135 132.377 129.539 135.06 127L140 129C140 129 139.533 133.838 137.036 137L133.084 135Z" fill="#F99370"/>
    <path d="M134.064 129.032C134.061 127.864 137.661 120.906 138.876 122.148C139.381 122.626 138.196 122.726 137.914 123.131C136.85 124.646 136.501 126.259 135.989 128.048C135.633 128.901 136.257 130.914 135.026 130.999C134.278 131.046 133.826 129.735 134.064 129.032Z" fill="#F99370"/>
    <path d="M131.983 125.568C132.761 127.602 133.946 129.181 134.88 131.141C135.65 132.821 132.476 133.847 131.983 132.07C131.419 129.876 131.404 127.785 131.018 125.568C130.866 124.795 131.733 124.826 131.983 125.568Z" fill="#F99370"/>
    <path d="M138.528 129.363C137.583 129.21 138.114 128.629 138.528 129.363C139.034 130.034 139.276 129.186 139.528 129.363C139.605 129.683 138.753 129.395 138.528 129.363Z" fill="#E57D61"/>
    <path d="M137.244 128.974C136.927 128.967 136.921 128.325 137.244 128.056C137.494 128.117 136.586 128.967 137.244 128.974C137.669 128.968 137.967 128.423 138.108 128.056C138.203 127.921 138.758 128.076 138.972 128.056C138.978 127.991 139.032 128.061 138.972 128.056C138.93 128.774 138.05 129.099 137.244 128.974Z" fill="#E57D61"/>
    <path d="M136.298 128.997C135.769 128.907 136.057 127.648 136.298 127.106C136.357 126.964 136.361 126.965 136.298 127.106C135.947 127.897 136.806 128.852 137.135 128.052C137.142 128.038 137.937 127.672 137.973 127.106C137.914 127.101 137.977 127.039 137.973 127.106C137.977 127.039 138.032 127.111 137.973 127.106C137.779 128.205 137.14 129.054 136.298 128.997Z" fill="#E57D61"/>
    <path d="M135.962 132.961C135.579 131.058 134.101 129.095 134 129.145C134.068 128.374 135.664 130.836 135.962 132.961C136.042 132.975 135.972 133.041 135.962 132.961Z" fill="#E57D61"/>
    <path d="M91.447 165V166.999C92.6941 168.254 91.5863 170.953 90.5391 170.998C88.945 171.067 86.5487 168.813 86 167.999C86 167.999 86.0412 165.989 86 165H91.447Z" fill="#F99370"/>
    <path d="M85.0544 156.425C85.0725 156.542 85.0255 157.307 85.0544 157.422C85.2095 157.316 85.0095 161.305 85.0544 164.4C87.9677 165.683 91.4105 164.529 91.9998 164.4C92.0111 160.478 91.6106 157.664 91.0076 155.428C89.7833 151.649 84.4036 152.512 85.0544 156.425Z" fill="#E57D61"/>
    <path d="M94 148C94 148 93.9172 143.119 89 142L87 144L94 148Z" fill="#8E4A35"/>
    <path d="M80.3621 154.301C81.206 157.101 82.6714 160.364 85.2076 161.962C86.2377 162.604 86.8882 162.84 88.1148 162.919C95.116 163.916 102.861 155.443 96.8365 150.471C94.634 148.907 93.844 145.436 91.9911 143.768C89.3471 140.865 84.5923 141.785 82.3003 144.725C80.2291 147.383 79.4846 150.832 80.3621 154.301Z" fill="#F99370"/>
    <path d="M91.1481 151.418C91.3376 150.858 91.3539 150.864 91.1481 151.418C90.9425 151.973 90.9589 151.979 91.1481 151.418Z" fill="#C16256"/>
    <path d="M94.1483 150.418C94.3377 149.858 94.354 149.864 94.1483 150.418C93.9425 150.973 93.9588 150.979 94.1483 150.418Z" fill="#C16256"/>
    <path d="M80.3625 154.194C81.2069 157.032 82.6734 160.339 85.2114 161.959C85.4217 162.092 85.9572 161.852 86.1812 161.959C84.2144 160.456 82.3021 157.106 82.3021 157.106V154.194C84.7415 150.977 83.2719 147.4 83.2719 147.4C88.1444 148.107 89.0906 145.459 89.0906 145.459C90.6017 145.457 92 144.489 92 144.489C89.4548 141.086 84.7686 141.256 82.3021 144.489C80.2289 147.182 79.4843 150.678 80.3625 154.194Z" fill="#E57D61"/>
    <path d="M80.113 148C82.1783 148.546 83.3947 153.094 79.1597 157C79.1597 157 75.9993 149.567 80.113 148Z" fill="#8E4A35"/>
    <path d="M93.879 154.866C94.5195 154.754 95.5399 154.484 94.6541 153.913C93.7532 153.491 93.41 151.893 93.1038 152.006C92.8372 152.159 93.0801 153.472 93.879 153.913C94.4399 154.221 93.5713 154.988 93.1038 154.866C93.0313 154.85 93.1171 154.777 93.1038 154.866C93.097 155.165 93.7106 154.871 93.879 154.866Z" fill="#C16256"/>
    <path d="M78.1862 156.428C79.254 159.492 82.8527 157.645 81.8138 154.571C80.7461 151.508 77.1474 153.355 78.1862 156.428Z" fill="#F99370"/>
    <path d="M79.319 156.961C79.3477 157.055 79.3851 156.949 79.319 156.961C78.8378 155.471 79.0754 154.821 79.9046 155.133C80.0309 155.186 80.0327 155.179 79.9046 155.133C79.0253 154.771 78.7015 155.077 79.319 156.961C79.3377 157.025 79.2761 156.97 79.319 156.961Z" fill="#C16256"/>
    <path d="M80.8843 157C81.3694 156.893 80.2475 155.961 79.0403 156.039C78.9526 156.046 79.0345 155.948 79.0403 156.039C78.9526 156.045 79.0459 156.131 79.0403 156.039C80.2809 156.005 80.5893 156.997 80.8843 157Z" fill="#C16256"/>
    <path d="M80.4535 143C81.8038 140.959 83.9279 139.99 84.3239 138C84.3239 138 86.1084 138.9 86.2591 141C86.905 140.022 86.8134 139.102 87.2267 138C88.0939 138.696 88.9202 140.076 89.162 141C91.526 140.125 94 141 94 141C93.2102 144.82 90.4805 145.679 88.1943 146C86.5327 148.133 83.6198 149.465 80.4535 148L77.5506 152C73.3056 146.263 78.9617 143.643 80.4535 143Z" fill="#8E4A35"/>
    <path d="M80.0754 156.782C80.3868 157.322 81.2599 156.751 80.9246 156.218C80.6132 155.677 79.7402 156.249 80.0754 156.782Z" fill="#FDFFDE"/>
    <path d="M81.7719 157.994C82.094 157.958 82.0575 157.309 81.7719 157.11L80.2963 156.225C79.897 155.932 79.9055 155.918 80.2963 156.225C80.4459 156.294 81.6212 158.114 81.7719 157.994Z" fill="#FDFFDE"/>
    <path d="M93.0489 156.994C93.0432 156.994 93.0546 156.995 93.0489 156.994C94.7742 157.086 95.8921 156.085 95.941 156.057C95.9978 156.153 96.0389 156.002 95.941 156.057C95.8844 155.962 96.0387 156.002 95.941 156.057C95.93 156.064 94.6452 156.143 93.0489 156.057C92.9359 156.051 93.0551 155.947 93.0489 156.057C93.043 156.162 92.9441 156.98 93.0489 156.994Z" fill="#C16256"/>
    <path d="M115.779 322H100.005C99.2738 322 97.9964 321.739 98.0329 321C98.0505 320.642 97.9507 319.479 98.0329 319C98.2643 317.648 99.0428 316.371 99.0188 315C99.0078 314.344 99.0853 313.654 99.0188 313L98.0329 302C97.9561 301.24 98.2649 301 99.0188 301H105.92C106.686 301 107.001 301.23 106.906 302L105.92 312C105.639 314.27 106.686 316.447 108.878 317C110.439 317.394 112.673 317.704 113.807 318C113.666 317.959 113.953 318.039 113.807 318C115.01 318.348 116.19 319.144 116.765 320C117.34 320.857 116.802 322 115.779 322Z" fill="#F99370"/>
    <path d="M98.1612 320.999C98.2043 321.794 98.2382 322.018 99.1476 321.999H115.916C116.774 322 117.207 321.811 116.903 320.999C116.258 319.164 113.9 316.449 106.052 316C104.925 316.111 101.881 316.512 98.1612 316C98.1612 316 97.7985 318 98.1612 320.999Z" fill="#1D3F70"/>
    <path d="M116.913 321.003H98.1162C98.1867 321.592 97.8226 321.484 98.1162 322H115.924C116.773 322 117.195 321.809 116.913 321.003C116.917 321.012 116.91 320.993 116.913 321.003Z" fill="#395B96"/>
    <path d="M78.9091 321H70.231C70.231 319.801 69.7113 318.977 70.231 318.049C72.1414 315.462 70.165 304.351 70.231 301.328C69.7882 300.501 78.7709 301.524 78.9091 301.328C78.9246 301.128 79.1056 301.328 78.9091 301.328L77.9448 314.115C77.4832 316.625 78.8433 318.634 78.9091 321Z" fill="#F99370"/>
    <path d="M71.0043 322H78.0002C78.9048 322 80.0381 321.903 79.999 321C79.9986 320.99 79.9994 321.01 79.999 321C79.909 319.024 79.2651 316.04 75.002 316C70.7238 315.963 70.0913 318.999 70.0049 321C70.0043 321.012 70.0055 320.988 70.0049 321C69.9701 321.901 70.102 322 71.0043 322Z" fill="#1D3F70"/>
    <path d="M71.0043 322H78.0002C78.9048 322 80.0381 321.904 79.999 321.003H70.0049C70.0043 321.015 70.0055 320.992 70.0049 321.003C69.9701 321.901 70.102 322 71.0043 322Z" fill="#395B96"/>
    <path d="M67.8432 312.081C67.8432 312.081 76.6226 314.063 80.783 312.081C80.783 312.081 80.4827 310.877 80.783 309.108C82.5492 298.719 88.9034 253.071 90.7368 230.835C90.7368 230.835 94.8246 295.807 95.7136 309.108C95.8224 310.749 95.7216 311.945 95.7136 312.081C95.7136 312.081 97.228 311.784 98.6997 312.081C101.321 312.61 104.991 313.853 107.658 312.081C107.658 312.081 108.486 310.769 108.653 309.108C109.859 297.191 115.54 252.184 108.653 214.982C108.653 214.982 84.8638 217.271 69.834 213C69.834 213 65.1295 249.398 67.8432 309.108C67.9215 310.831 67.8689 311.938 67.8432 312.081Z" fill="#1D3F70"/>
    <path d="M98 309.622C97.187 298.241 94.5282 245.591 94 238.962C93.3928 231.338 91 231 91 231C91 231 95.8982 300.266 96 303.65C96 303.649 96.0002 303.651 96 303.65C96.0015 303.703 96.0011 311.593 96 311.612C96 311.612 96.5214 312.309 98 312.607C100.634 313.139 105.321 313.392 108 311.612C108 311.612 107.831 311.29 108 309.622C108 309.622 103.552 310.788 98 309.622Z" fill="#10325B"/>
    <path d="M103.985 312C106.936 285.616 106.075 260.882 104.978 245C103.789 227.79 102.019 217.11 102 217C102.019 217.11 103.792 227.826 104.978 245C106.072 260.848 105.937 285.678 102.993 312H103.985Z" fill="#10325B"/>
    <path d="M74 312C78.6622 264.255 80.9831 218.463 81 218H80C79.9831 218.463 78.6599 264.278 74 312Z" fill="#10325B"/>
    <path d="M68.0098 311.384C68.0098 311.384 75.8236 312.769 80 311.384C80 311.384 79.6985 311.236 80 310C80 310 75.1548 311.048 68.0098 310C67.9781 311.204 68.0356 311.285 68.0098 311.384Z" fill="#10325B"/>
    <path d="M69 217.504C80.8902 222.009 96.3458 222.319 108.709 217.504C108.709 217.504 109.814 193.666 107.717 180.874C105.17 178.767 97.2746 168.613 91.833 167.014C91.826 166.969 91.8416 167.049 91.833 167.014C92.1785 170.347 90.1527 170.474 84.8838 167.014C73.461 168.056 71.5736 179.244 70.9855 189.784C70.6341 194.483 69 217.504 69 217.504Z" fill="#3A72AA"/>
    <path d="M78.0139 169.041C78.0456 169.35 77.9705 169.733 78.0139 170.04C78.5283 173.811 78.9771 177.424 80.0018 180.027C80.9383 182.399 80.9957 184.022 80.9957 184.022L85.9654 187.019L83.9776 191.014C86.0086 195.992 91.9291 202 91.9291 202C96.2915 197.913 98.8867 191.014 98.8867 191.014L96.8988 186.02L99.8806 182.025C99.9764 181.055 99.8754 180.02 99.8806 179.028C99.8933 176.783 100.143 174.034 99.8806 172.037C99.3566 168.046 97.8928 166.045 97.8928 166.045C96.6229 166.266 95.9241 165.873 94.9109 166.045C93.3221 166.312 92.2666 166.989 91.9291 167.043C91.9112 167.035 91.947 167.052 91.9291 167.043C91.9251 167.031 91.9317 167.051 91.9291 167.043C91.8919 167.05 91.9291 167.043 91.9291 167.043C91.884 166.997 91.9291 167.043 91.9291 167.043C91.9291 167.043 91.9293 167.041 91.9291 167.043C91.9982 167.413 91.4065 168.388 90.9352 169.041C90.3078 169.911 89.3114 169.993 84.9715 167.043C83.6917 167.323 82.044 167.589 80.9957 168.042C80.9955 168.042 80.125 168.291 78.0139 169.041Z" fill="#23659B"/>
    <path d="M82.1829 168C82.1786 167.99 82.1829 168 82.1829 168C82.2199 168.115 81.7535 168.738 82.1829 170C82.1835 169.996 82.1842 170.004 82.1829 170C83.3556 173.435 85.5596 180.609 88.0563 187C89.4602 190.598 91.6959 194.461 92.9508 197C92.9508 197 93.9039 192.414 94.9086 186C95.3902 182.911 95.8686 178.774 95.8875 175C95.8991 172.884 96.1347 171.202 95.8875 169C95.8003 168.219 95.0349 167.785 94.9086 167C93.3536 167.265 92.0088 167.005 91.9719 167C91.9745 167.008 92.5191 168.47 91.9719 169C91.0855 169.858 88.3415 169.559 85.1196 167C83.859 167.28 83.2153 167.546 82.1829 168Z" fill="#F4D4BE"/>
    <path d="M90 172C89.631 177.23 89.3179 184.088 89 187C90.0336 190.316 91.2702 194.245 93 197C93 197 94.5387 192.148 95 186C93.8579 177.768 92 172 92 172H90Z" fill="#1D3F70"/>
    <path d="M92 171.637C92 171.637 91.555 172.454 90 171.637V170H91L92 171.637Z" fill="#1D3F70"/>
    <path d="M91.986 167.035C91.986 167.035 92.9724 166.956 94.9813 167.035C94.9813 167.035 95.4251 169.203 91.986 172.006C91.986 172.006 90.6849 170.406 89.9891 170.018L88.9907 173C88.9907 173 84.0261 171.248 83 168.029C83 168.029 83.9017 166.817 84.9969 167.035C84.9969 167.035 87.5383 168.265 89.9891 169.023C89.9891 169.023 91.2391 168.48 91.986 167.035Z" fill="#EABFAC"/>
    <path d="M91.253 207.253C91.1793 207.783 90.7225 208.918 91.253 208.991C91.7835 209.065 92.9178 208.653 92.9915 208.122C93.0651 207.592 92.6527 207.327 92.1222 207.253C91.5918 207.179 91.3267 206.723 91.253 207.253Z" fill="#23659B"/>
    <path d="M91.253 215.253C91.1793 215.784 90.7225 216.918 91.253 216.991C91.7835 217.065 92.9178 216.653 92.9915 216.122C93.0651 215.592 92.6527 215.327 92.1222 215.253C91.5918 215.179 91.3265 214.722 91.253 215.253Z" fill="#23659B"/>
    <path d="M93.0592 149.059C93.0256 149.071 93.0922 149.064 93.0592 149.059H94.0592C94.0991 149.17 94.1696 149.019 94.0592 149.059C94.0195 148.949 94.1703 149.019 94.0592 149.059H93.0592C93.0193 148.949 92.9488 149.099 93.0592 149.059C93.0871 149.136 92.9834 149.049 93.0592 149.059Z" fill="#C16256"/>
    <path d="M90.0549 150.979C90.0151 151.006 90.0982 150.986 90.0549 150.979L90.9451 150.057C91.0018 150.148 91.0331 149.998 90.9451 150.057C90.8885 149.966 91.0334 149.998 90.9451 150.057H90.0549C89.9669 150.116 89.9982 150.888 90.0549 150.979C90.0861 151.029 90.0021 150.972 90.0549 150.979Z" fill="#C16256"/>
    <path d="M63.7675 239.863C62.9238 240.213 62.5727 238.413 61.8759 237.954C61.4935 239.381 60.9376 240.811 60.9301 240.817C61.2868 242.614 62.2897 243.837 62.8217 245.591C62.183 248.301 60.2903 242.399 59.9843 241.772C59.9753 241.773 59.9932 241.771 59.9843 241.772C59.9607 243.691 59.7438 245.596 59.9843 247.5C58.7188 250.135 58.2062 241.535 58.0927 240.817C58.0884 240.816 58.0972 240.819 58.0927 240.817C57.7679 242.618 58.0043 244.715 58.0927 246.545C56.5839 249.086 57.0227 241.543 57.1469 240.817C57.1406 240.814 57.1532 240.821 57.1469 240.817C56.6877 242.195 56.4111 243.197 56.2011 244.636C54.4592 246.799 55.0705 240.515 55.2553 239.863C55.1597 239.349 55.306 236.884 56.2011 234.135C56.5328 233.116 60.3096 231.378 60.9301 232.226C61.5119 233.02 62.6366 235.595 62.8217 236.044C63.3234 236.861 64.4965 239.034 63.7675 239.863Z" fill="#F99370"/>
    <path d="M56 229C56.109 230.196 56 229.979 56 229.979C58.0213 231.309 61.9323 230.958 61.9323 230.958C62.1709 230.313 61.6825 229.731 61.9323 229C61.8496 229.02 60.0521 230.032 56 229Z" fill="#23659B"/>
    <path d="M131.069 138C133.49 140.352 136.012 141 136.012 141C136.233 139.645 137 139 137 139C134.138 139.35 131.069 137 131.069 137C130.821 137.676 131.34 137.356 131.069 138Z" fill="#23659B"/>
    <path d="M108 175C108 175 108.552 177.732 109 181C115.348 176.708 120.185 172.716 124 168C123.73 168.247 113.918 179.075 108 175Z" fill="#23659B"/>
    <path d="M74 189C74 189 70.9213 196.085 70 203V210C70 210 73.4665 191.959 74 189Z" fill="#23659B"/>
</svg>
