<svg width="445" height="400" viewBox="0 0 445 400" fill="none" xmlns="http://www.w3.org/2000/svg">
    <path d="M255.958 282.44C229.029 266.892 185.51 266.892 158.756 282.44C132.001 297.988 132.142 323.196 159.072 338.744C186.003 354.292 229.521 354.292 256.277 338.743C283.031 323.196 282.89 297.988 255.958 282.44Z" fill="#E0E0E0"/>
    <path d="M102.648 20.8291L87.3423 29.7233L86.7334 244.601L340.923 391.357L356.228 382.463L356.837 167.586L102.648 20.8291ZM175.624 125.776L174.402 124.578L174.15 123.843L175.624 125.776ZM272.543 298.177L266.92 301.444L266.924 301.469L264.689 297.777L243.992 296.056L234.487 276.924L224.933 276.526L218.598 264.165L206.779 251.437L191.474 260.331L190.736 261.898L186.757 259.602L183.602 249.253L169.309 235.708L169.334 226.522L165.771 221.273L169.861 222.46L185.166 213.566L180.597 186.13L174.232 184.162L173.296 179.044L187.008 171.075L187.057 153.741L174.338 146.398L173.645 144.85L187.104 137.029L178.819 128.908L192.571 122.809L200.509 131.546L212.96 124.31L220.842 129.248L227.527 156.774L238.665 155.108L251.877 175.954L246.892 187.316L268.416 198.452L264.964 200.365L249.659 209.259L260.762 226.271L268.711 230.86L269.981 239.276L263.366 243.121L271.141 256.626L267.034 260.589L275.115 275.036L265.384 280.691L272.543 298.177Z" fill="#5C9EFF"/>
    <path opacity="0.1" d="M102.648 20.8291L87.3423 29.7233L86.7334 244.601L340.923 391.357L356.228 382.463L356.837 167.586L102.648 20.8291ZM175.624 125.776L174.402 124.578L174.15 123.843L175.624 125.776ZM272.543 298.177L266.92 301.444L266.924 301.469L264.689 297.777L243.992 296.056L234.487 276.924L224.933 276.526L218.598 264.165L206.779 251.437L191.474 260.331L190.736 261.898L186.757 259.602L183.602 249.253L169.309 235.708L169.334 226.522L165.771 221.273L169.861 222.46L185.166 213.566L180.597 186.13L174.232 184.162L173.296 179.044L187.008 171.075L187.057 153.741L174.338 146.398L173.645 144.85L187.104 137.029L178.819 128.908L192.571 122.809L200.509 131.546L212.96 124.31L220.842 129.248L227.527 156.774L238.665 155.108L251.877 175.954L246.892 187.316L268.416 198.452L264.964 200.365L249.659 209.259L260.762 226.271L268.711 230.86L269.981 239.276L263.366 243.121L271.141 256.626L267.034 260.589L275.115 275.036L265.384 280.691L272.543 298.177Z" fill="black"/>
    <path opacity="0.2" d="M169.336 226.521L154.03 235.417L154.004 244.603L169.31 235.709L169.336 226.521Z" fill="black"/>
    <path opacity="0.3" d="M165.773 221.272L162.957 220.455L149.273 228.408L154.03 235.416L169.336 226.521L165.773 221.272Z" fill="black"/>
    <path opacity="0.2" d="M183.604 249.254L168.298 258.148L171.453 268.497L186.758 259.602L183.604 249.254Z" fill="black"/>
    <path opacity="0.3" d="M169.31 235.709L154.004 244.603L168.298 258.148L183.604 249.254L169.31 235.709Z" fill="black"/>
    <path opacity="0.4" d="M149.307 216.492L149.273 228.41L162.957 220.457L149.307 216.492Z" fill="black"/>
    <path opacity="0.1" d="M171.454 268.496L184.177 275.842L190.737 261.898L186.759 259.602L171.454 268.496Z" fill="black"/>
    <path opacity="0.1" d="M206.78 251.438L191.475 260.332L203.293 273.06L218.599 264.166L206.78 251.438Z" fill="black"/>
    <path opacity="0.2" d="M218.599 264.166L203.293 273.06L209.629 285.421L224.934 276.526L218.599 264.166Z" fill="black"/>
    <path opacity="0.3" d="M174.233 184.162L158.928 193.056L165.293 195.023L180.598 186.129L174.233 184.162Z" fill="black"/>
    <path opacity="0.2" d="M180.597 186.129L165.292 195.023L169.862 222.46L185.167 213.565L180.597 186.129Z" fill="black"/>
    <path opacity="0.2" d="M234.487 276.924L219.182 285.819L228.687 304.95L243.993 296.055L234.487 276.924Z" fill="black"/>
    <path opacity="0.1" d="M224.934 276.525L209.628 285.42L219.182 285.819L234.487 276.924L224.934 276.525Z" fill="black"/>
    <path opacity="0.4" d="M173.298 179.043L171.704 179.97L155.792 175.898L158.928 193.056L174.233 184.162L173.298 179.043Z" fill="black"/>
    <path opacity="0.4" d="M173.648 144.85L171.801 145.924L154.288 144.68L159.035 155.293L174.34 146.399L173.648 144.85Z" fill="black"/>
    <path opacity="0.1" d="M243.993 296.057L228.687 304.952L249.384 306.672L264.69 297.778L243.993 296.057Z" fill="black"/>
    <path opacity="0.2" d="M266.924 301.47L264.69 297.777L249.384 306.672L254.139 314.529L267.686 306.656L266.924 301.47Z" fill="black"/>
    <path opacity="0.2" d="M187.01 171.076L187.059 153.742L171.754 162.636L171.704 179.971L173.298 179.044L187.01 171.076Z" fill="black"/>
    <path opacity="0.3" d="M174.34 146.398L159.035 155.293L171.754 162.636L187.059 153.742L174.34 146.398Z" fill="black"/>
    <path opacity="0.2" d="M174.15 123.842L170.171 118.625L154.359 119.65L159.097 133.471L174.402 124.577L174.15 123.842Z" fill="black"/>
    <path opacity="0.1" d="M187.106 137.03L178.822 128.91L178.218 129.176L175.624 125.776L174.402 124.578L159.097 133.472L171.801 145.925L173.648 144.851L187.106 137.03Z" fill="black"/>
    <path opacity="0.3" d="M254.139 314.529L268.26 310.569L267.685 306.656L254.139 314.529Z" fill="black"/>
    <path opacity="0.3" d="M273.294 300.011L272.543 298.176L266.92 301.443L273.294 300.011Z" fill="black"/>
    <path opacity="0.3" d="M278.74 281.513L275.117 275.037L265.387 280.692L278.74 281.513Z" fill="black"/>
    <path opacity="0.3" d="M271.171 247.142L269.984 239.277L263.368 243.122L271.171 247.142Z" fill="black"/>
    <path opacity="0.4" d="M203.732 118.527L200.51 131.545L212.962 124.31L203.732 118.527Z" fill="black"/>
    <path opacity="0.3" d="M249.661 209.26L268.805 198.653L268.418 198.453L264.966 200.366L249.661 209.26Z" fill="black"/>
    <path opacity="0.3" d="M341.532 176.48L340.923 391.357L356.228 382.462L356.838 167.586L341.532 176.48Z" fill="white"/>
    <path opacity="0.4" d="M356.837 167.586L102.648 20.8291L87.3423 29.7233L341.532 176.48L356.837 167.586Z" fill="white"/>
    <g opacity="0.2">
        <path d="M140.32 151.779L150.067 156.758L139.638 153.086L133.184 145.573L122.072 140.069L115.593 141.551L105.059 131.684L115.035 139.529L121.619 138.501L133.75 144.725L140.32 151.779Z" fill="black"/>
        <path d="M147.271 179.844L158.381 185.732L147.113 180.617L142.06 175.614L136.089 173.303L133.147 170.036L112.211 157.948L103.412 150.125L112.36 156.993L126.416 165.108L126.45 153.384L128.571 146.125L127.282 153.685L127.633 165.631L132.62 168.341L136.165 172.127L142.292 174.188L147.271 179.844Z" fill="black"/>
        <path d="M265.012 158.069L272.38 160.785L264.587 159.073L259.83 152.477L251.624 147.067L246.85 147.099L239.152 140.92L246.347 145.559L251.211 145.961L260.164 151.706L265.012 158.069Z" fill="black"/>
        <path d="M286.068 193.472L292.683 196.043L286.18 194.307L270.722 185.382L268.543 185.282L264.134 181.905L260.393 181.285L252.079 175.458L260.28 180.574L263.974 180.654L268.492 184.351L271.116 184.583L274.798 186.841L275.1 178.344L274.183 171.676L275.715 178.824L275.69 187.481L286.068 193.472Z" fill="black"/>
        <path d="M226.766 317.029L236.359 320.757L226.93 318.24L204.512 305.297L201.352 305.152L194.959 300.255L189.533 299.355L177.477 290.905L189.369 298.325L194.727 298.441L201.278 303.802L205.084 304.139L210.424 307.413L210.861 295.091L209.531 285.422L211.753 295.787L211.717 308.341L226.766 317.029Z" fill="black"/>
        <path d="M143.734 99.4342L151.378 105.262L160.193 110.928L152.045 106.417L144.124 100.235L139.154 98.7809L139.642 103.432L138.866 106.577L139.289 110.803L150.286 115.744L154.688 119.693L150.073 116.307L139.311 111.682L138.438 110.749L135.584 110.398L132.071 108.134L130.569 105.72L121.268 98.796L130.921 105.201L132.646 107.675L135.435 109.542L138.283 109.966L138.295 106.053L138.877 102.796L138.318 97.916L143.734 99.4342Z" fill="black"/>
        <path d="M306.155 300.828L317.336 309.352L330.229 317.639L318.311 311.042L306.725 301.999L299.456 299.872L300.17 306.676L299.035 311.277L299.653 317.457L315.738 324.684L322.176 330.461L315.426 325.509L299.685 318.743L298.4 317.373L294.234 316.864L289.096 313.543L286.898 310.022L273.294 299.895L287.412 309.263L289.936 312.881L294.017 315.613L298.182 316.232L298.199 310.51L299.05 305.746L298.233 298.598L306.155 300.828Z" fill="black"/>
        <path d="M121.914 207.009L124.468 207.808L120.128 199.556L112.353 187.554L99.7261 177.273L112.883 187.131L120.718 199.352L125.265 207.784L129.941 208.161L140.192 211.088L149.273 216.331L140.274 212.112L130.154 208.865L125.929 208.746L129.126 215.018L129.33 218.681L135.147 230.405L128.795 218.742L128.384 214.792L124.925 208.687L122.6 208.288L121.914 207.009Z" fill="black"/>
        <path d="M319.336 241.991L306.724 237.944L301.458 237.797L305.443 245.614L305.698 250.179L312.946 264.789L305.03 250.253L304.519 245.332L300.209 237.723L296.585 237.1L289.002 232.416L298.594 245.014L300.055 244.64L302.656 245.911L300.606 245.484L298.944 246.048L303.57 249.86L298.485 246.552L287.459 231.502L282.839 225.634L272.195 217.668L283.241 225.11L288.062 230.787L296.456 235.633L299.639 236.628L294.229 226.344L284.54 211.387L268.804 198.574L285.201 210.859L294.965 226.089L300.632 236.597L306.46 237.067L319.234 240.716L330.551 247.249L319.336 241.991Z" fill="black"/>
    </g>
    <g opacity="0.1">
        <path d="M315.001 339.788C314.521 339.51 314.127 339.731 314.125 340.286L314.11 345.645C314.108 346.201 314.5 346.876 314.98 347.152L329.108 355.309C329.588 355.587 329.982 355.366 329.984 354.811L329.999 349.452C330.001 348.896 329.609 348.221 329.129 347.945L315.001 339.788Z" fill="black"/>
        <path d="M315.001 358.194C314.521 357.917 314.127 358.137 314.125 358.693L314.11 364.052C314.108 364.607 314.5 365.282 314.98 365.558L329.108 373.715C329.588 373.992 329.982 373.772 329.984 373.216L329.999 367.857C330.001 367.301 329.609 366.627 329.129 366.35L315.001 358.194Z" fill="black"/>
        <path d="M305.608 343.467C305.128 343.19 304.735 343.41 304.733 343.966L304.718 349.325C304.716 349.881 305.108 350.555 305.588 350.832L319.716 358.988C320.196 359.266 320.59 359.045 320.592 358.49L320.607 353.13C320.608 352.575 320.216 351.9 319.736 351.624L305.608 343.467Z" fill="black"/>
        <g opacity="0.07">
            <path d="M315.001 339.788C314.521 339.51 314.127 339.731 314.125 340.286L314.11 345.645C314.108 346.201 314.5 346.876 314.98 347.152L329.108 355.309C329.588 355.587 329.982 355.366 329.984 354.811L329.999 349.452C330.001 348.896 329.609 348.221 329.129 347.945L315.001 339.788Z" fill="black"/>
            <path d="M315.001 358.194C314.521 357.917 314.127 358.137 314.125 358.693L314.11 364.052C314.108 364.607 314.5 365.282 314.98 365.558L329.108 373.715C329.588 373.992 329.982 373.772 329.984 373.216L329.999 367.857C330.001 367.301 329.609 366.627 329.129 366.35L315.001 358.194Z" fill="black"/>
            <path d="M305.608 343.467C305.128 343.19 304.735 343.41 304.733 343.966L304.718 349.325C304.716 349.881 305.108 350.555 305.588 350.832L319.716 358.988C320.196 359.266 320.59 359.045 320.592 358.49L320.607 353.13C320.608 352.575 320.216 351.9 319.736 351.624L305.608 343.467Z" fill="black"/>
        </g>
    </g>
    <g opacity="0.1">
        <path d="M111.37 205.723C110.89 205.446 110.496 205.666 110.495 206.222L110.479 211.581C110.478 212.137 110.87 212.811 111.35 213.088L125.478 221.244C125.958 221.521 126.352 221.301 126.353 220.745L126.368 215.386C126.37 214.831 125.978 214.156 125.498 213.88L111.37 205.723Z" fill="black"/>
        <path d="M111.37 224.129C110.89 223.852 110.496 224.073 110.495 224.629L110.479 229.988C110.478 230.544 110.87 231.218 111.35 231.495L125.478 239.651C125.958 239.929 126.352 239.708 126.353 239.153L126.368 233.793C126.37 233.238 125.978 232.563 125.498 232.287L111.37 224.129Z" fill="black"/>
        <path d="M101.978 209.401C101.498 209.124 101.104 209.344 101.103 209.9L101.087 215.259C101.086 215.814 101.478 216.489 101.958 216.765L116.086 224.922C116.566 225.199 116.959 224.979 116.961 224.423L116.976 219.064C116.978 218.508 116.586 217.834 116.106 217.557L101.978 209.401Z" fill="black"/>
        <g opacity="0.07">
            <path d="M111.37 205.723C110.89 205.446 110.496 205.666 110.495 206.222L110.479 211.581C110.478 212.137 110.87 212.811 111.35 213.088L125.478 221.244C125.958 221.521 126.352 221.301 126.353 220.745L126.368 215.386C126.37 214.831 125.978 214.156 125.498 213.88L111.37 205.723Z" fill="black"/>
            <path d="M111.37 224.129C110.89 223.852 110.496 224.073 110.495 224.629L110.479 229.988C110.478 230.544 110.87 231.218 111.35 231.495L125.478 239.651C125.958 239.929 126.352 239.708 126.353 239.153L126.368 233.793C126.37 233.238 125.978 232.563 125.498 232.287L111.37 224.129Z" fill="black"/>
            <path d="M101.978 209.401C101.498 209.124 101.104 209.344 101.103 209.9L101.087 215.259C101.086 215.814 101.478 216.489 101.958 216.765L116.086 224.922C116.566 225.199 116.959 224.979 116.961 224.423L116.976 219.064C116.978 218.508 116.586 217.834 116.106 217.557L101.978 209.401Z" fill="black"/>
        </g>
    </g>
    <g opacity="0.1">
        <path d="M92.9629 214.926C92.4829 214.649 92.0892 214.869 92.0874 215.426L92.0723 220.785C92.0705 221.34 92.4625 222.015 92.9425 222.292L107.07 230.448C107.55 230.725 107.945 230.505 107.946 229.949L107.961 224.59C107.963 224.035 107.571 223.36 107.091 223.084L92.9629 214.926Z" fill="black"/>
        <path d="M92.9629 233.334C92.4829 233.058 92.0892 233.277 92.0874 233.834L92.0723 239.193C92.0705 239.748 92.4625 240.423 92.9425 240.699L107.07 248.856C107.55 249.133 107.945 248.913 107.946 248.357L107.961 242.998C107.963 242.443 107.571 241.768 107.091 241.491L92.9629 233.334Z" fill="black"/>
        <g opacity="0.07">
            <path d="M92.9629 214.926C92.4829 214.649 92.0892 214.869 92.0874 215.426L92.0723 220.785C92.0705 221.34 92.4625 222.015 92.9425 222.292L107.07 230.448C107.55 230.725 107.945 230.505 107.946 229.949L107.961 224.59C107.963 224.035 107.571 223.36 107.091 223.084L92.9629 214.926Z" fill="black"/>
            <path d="M92.9629 233.334C92.4829 233.058 92.0892 233.277 92.0874 233.834L92.0723 239.193C92.0705 239.748 92.4625 240.423 92.9425 240.699L107.07 248.856C107.55 249.133 107.945 248.913 107.946 248.357L107.961 242.998C107.963 242.443 107.571 241.768 107.091 241.491L92.9629 233.334Z" fill="black"/>
        </g>
    </g>
    <g opacity="0.1">
        <path d="M108.47 159.469C107.99 159.192 107.596 159.412 107.594 159.968L107.579 165.327C107.577 165.883 107.969 166.557 108.449 166.834L122.577 174.99C123.057 175.267 123.451 175.047 123.453 174.491L123.468 169.131C123.47 168.576 123.078 167.901 122.598 167.625L108.47 159.469Z" fill="black"/>
        <path d="M99.0787 163.149C98.5987 162.872 98.2049 163.092 98.2031 163.648L98.188 169.008C98.1862 169.563 98.5782 170.238 99.0582 170.514L113.186 178.671C113.666 178.948 114.06 178.728 114.062 178.172L114.077 172.813C114.079 172.257 113.687 171.583 113.207 171.306L99.0787 163.149Z" fill="black"/>
        <g opacity="0.07">
            <path d="M108.47 159.469C107.99 159.192 107.596 159.412 107.594 159.968L107.579 165.327C107.577 165.883 107.969 166.557 108.449 166.834L122.577 174.99C123.057 175.267 123.451 175.047 123.453 174.491L123.468 169.131C123.47 168.576 123.078 167.901 122.598 167.625L108.47 159.469Z" fill="black"/>
            <path d="M99.0787 163.149C98.5987 162.872 98.2049 163.092 98.2031 163.648L98.188 169.008C98.1862 169.563 98.5782 170.238 99.0582 170.514L113.186 178.671C113.666 178.948 114.06 178.728 114.062 178.172L114.077 172.813C114.079 172.257 113.687 171.583 113.207 171.306L99.0787 163.149Z" fill="black"/>
        </g>
    </g>
    <g opacity="0.1">
        <path d="M102.513 57.897C102.033 57.6197 101.639 57.8401 101.638 58.3957L101.623 63.7548C101.621 64.3103 102.013 64.985 102.493 65.2615L116.621 73.4188C117.101 73.6961 117.495 73.4757 117.496 72.9192L117.511 67.5601C117.513 67.0046 117.121 66.3299 116.641 66.0535L102.513 57.897Z" fill="black"/>
        <path d="M102.513 76.3033C102.033 76.0259 101.639 76.2464 101.638 76.8019L101.623 82.1601C101.621 82.7157 102.013 83.3904 102.493 83.6677L116.621 91.8241C117.101 92.1015 117.495 91.881 117.496 91.3246L117.511 85.9664C117.513 85.4108 117.121 84.7361 116.641 84.4597L102.513 76.3033Z" fill="black"/>
        <path d="M110.901 71.9615C110.421 71.6841 110.027 71.9046 110.025 72.4601L110.01 77.8192C110.008 78.3748 110.4 79.0495 110.88 79.3259L125.008 87.4824C125.488 87.7597 125.882 87.5392 125.884 86.9828L125.899 81.6246C125.901 81.069 125.509 80.3943 125.029 80.117L110.901 71.9615Z" fill="black"/>
        <path d="M93.1221 61.5747C92.6421 61.2974 92.2483 61.5179 92.2466 62.0734L92.2315 67.4325C92.2297 67.9881 92.6217 68.6627 93.1017 68.9392L107.23 77.0965C107.71 77.3739 108.103 77.1534 108.105 76.597L108.12 71.2387C108.122 70.6832 107.73 70.0085 107.25 69.7321L93.1221 61.5747Z" fill="black"/>
        <g opacity="0.07">
            <path d="M102.513 57.897C102.033 57.6197 101.639 57.8401 101.638 58.3957L101.623 63.7548C101.621 64.3103 102.013 64.985 102.493 65.2615L116.621 73.4188C117.101 73.6961 117.495 73.4757 117.496 72.9192L117.511 67.5601C117.513 67.0046 117.121 66.3299 116.641 66.0535L102.513 57.897Z" fill="black"/>
            <path d="M102.513 76.3033C102.033 76.0259 101.639 76.2464 101.638 76.8019L101.623 82.1601C101.621 82.7157 102.013 83.3904 102.493 83.6677L116.621 91.8241C117.101 92.1015 117.495 91.881 117.496 91.3246L117.511 85.9664C117.513 85.4108 117.121 84.7361 116.641 84.4597L102.513 76.3033Z" fill="black"/>
            <path d="M110.901 71.9615C110.421 71.6841 110.027 71.9046 110.025 72.4601L110.01 77.8192C110.008 78.3748 110.4 79.0495 110.88 79.3259L125.008 87.4824C125.488 87.7597 125.882 87.5392 125.884 86.9828L125.899 81.6246C125.901 81.069 125.509 80.3943 125.029 80.117L110.901 71.9615Z" fill="black"/>
            <path d="M93.1221 61.5747C92.6421 61.2974 92.2483 61.5179 92.2466 62.0734L92.2315 67.4325C92.2297 67.9881 92.6217 68.6627 93.1017 68.9392L107.23 77.0965C107.71 77.3739 108.103 77.1534 108.105 76.597L108.12 71.2387C108.122 70.6832 107.73 70.0085 107.25 69.7321L93.1221 61.5747Z" fill="black"/>
        </g>
    </g>
    <g opacity="0.1">
        <path d="M129.567 64.4107C129.087 64.1333 128.694 64.3538 128.692 64.9094L128.677 70.2685C128.675 70.824 129.067 71.4987 129.547 71.7751L143.675 79.9325C144.155 80.2098 144.55 79.9894 144.551 79.4329L144.566 74.0747C144.567 73.5191 144.175 72.8445 143.695 72.568L129.567 64.4107Z" fill="black"/>
        <path d="M129.567 82.8169C129.087 82.5396 128.694 82.76 128.692 83.3165L128.677 88.6756C128.675 89.2311 129.067 89.9058 129.547 90.1822L143.675 98.3396C144.155 98.6169 144.55 98.3965 144.551 97.84L144.566 92.4809C144.567 91.9254 144.175 91.2507 143.695 90.9742L129.567 82.8169Z" fill="black"/>
        <path d="M137.955 78.4751C137.475 78.1978 137.08 78.4182 137.08 78.9738L137.064 84.3329C137.063 84.8885 137.455 85.5631 137.935 85.8405L152.063 93.9969C152.543 94.2743 152.936 94.0538 152.938 93.4974L152.953 88.1382C152.955 87.5827 152.563 86.908 152.083 86.6316L137.955 78.4751Z" fill="black"/>
        <path d="M120.176 68.0884C119.696 67.8111 119.302 68.0315 119.301 68.588L119.286 73.9471C119.284 74.5026 119.676 75.1773 120.156 75.4537L134.284 83.6102C134.764 83.8875 135.158 83.6671 135.159 83.1106L135.175 77.7515C135.176 77.196 134.784 76.5213 134.304 76.2448L120.176 68.0884Z" fill="black"/>
        <g opacity="0.07">
            <path d="M129.567 64.4107C129.087 64.1333 128.694 64.3538 128.692 64.9094L128.677 70.2685C128.675 70.824 129.067 71.4987 129.547 71.7751L143.675 79.9325C144.155 80.2098 144.55 79.9894 144.551 79.4329L144.566 74.0747C144.567 73.5191 144.175 72.8445 143.695 72.568L129.567 64.4107Z" fill="black"/>
            <path d="M129.567 82.8169C129.087 82.5396 128.694 82.76 128.692 83.3165L128.677 88.6756C128.675 89.2311 129.067 89.9058 129.547 90.1822L143.675 98.3396C144.155 98.6169 144.55 98.3965 144.551 97.84L144.566 92.4809C144.567 91.9254 144.175 91.2507 143.695 90.9742L129.567 82.8169Z" fill="black"/>
            <path d="M137.955 78.4751C137.475 78.1978 137.08 78.4182 137.08 78.9738L137.064 84.3329C137.063 84.8885 137.455 85.5631 137.935 85.8405L152.063 93.9969C152.543 94.2743 152.936 94.0538 152.938 93.4974L152.953 88.1382C152.955 87.5827 152.563 86.908 152.083 86.6316L137.955 78.4751Z" fill="black"/>
            <path d="M120.176 68.0884C119.696 67.8111 119.302 68.0315 119.301 68.588L119.286 73.9471C119.284 74.5026 119.676 75.1773 120.156 75.4537L134.284 83.6102C134.764 83.8875 135.158 83.6671 135.159 83.1106L135.175 77.7515C135.176 77.196 134.784 76.5213 134.304 76.2448L120.176 68.0884Z" fill="black"/>
        </g>
    </g>
    <g opacity="0.1">
        <path d="M292.75 259.174C292.27 258.897 291.876 259.117 291.874 259.674L291.859 265.033C291.857 265.589 292.249 266.263 292.729 266.54L306.857 274.696C307.337 274.973 307.731 274.753 307.733 274.197L307.748 268.838C307.75 268.283 307.358 267.608 306.878 267.332L292.75 259.174Z" fill="black"/>
        <path d="M292.75 277.581C292.27 277.303 291.876 277.524 291.874 278.08L291.859 283.439C291.857 283.995 292.249 284.669 292.729 284.946L306.857 293.102C307.337 293.38 307.731 293.159 307.733 292.604L307.748 287.245C307.75 286.689 307.358 286.014 306.878 285.738L292.75 277.581Z" fill="black"/>
        <path d="M301.137 273.239C300.657 272.961 300.263 273.182 300.262 273.737L300.247 279.097C300.245 279.652 300.637 280.327 301.117 280.603L315.245 288.76C315.725 289.037 316.119 288.817 316.12 288.261L316.135 282.902C316.137 282.346 315.745 281.672 315.265 281.395L301.137 273.239Z" fill="black"/>
        <path d="M283.358 262.854C282.878 262.577 282.484 262.797 282.483 263.354L282.468 268.713C282.466 269.268 282.858 269.943 283.338 270.219L297.466 278.376C297.946 278.653 298.341 278.433 298.342 277.877L298.357 272.518C298.358 271.962 297.966 271.288 297.486 271.011L283.358 262.854Z" fill="black"/>
        <g opacity="0.07">
            <path d="M292.75 259.174C292.27 258.897 291.876 259.117 291.874 259.674L291.859 265.033C291.857 265.589 292.249 266.263 292.729 266.54L306.857 274.696C307.337 274.973 307.731 274.753 307.733 274.197L307.748 268.838C307.75 268.283 307.358 267.608 306.878 267.332L292.75 259.174Z" fill="black"/>
            <path d="M292.75 277.581C292.27 277.303 291.876 277.524 291.874 278.08L291.859 283.439C291.857 283.995 292.249 284.669 292.729 284.946L306.857 293.102C307.337 293.38 307.731 293.159 307.733 292.604L307.748 287.245C307.75 286.689 307.358 286.014 306.878 285.738L292.75 277.581Z" fill="black"/>
            <path d="M301.137 273.239C300.657 272.961 300.263 273.182 300.262 273.737L300.247 279.097C300.245 279.652 300.637 280.327 301.117 280.603L315.245 288.76C315.725 289.037 316.119 288.817 316.12 288.261L316.135 282.902C316.137 282.346 315.745 281.672 315.265 281.395L301.137 273.239Z" fill="black"/>
            <path d="M283.358 262.854C282.878 262.577 282.484 262.797 282.483 263.354L282.468 268.713C282.466 269.268 282.858 269.943 283.338 270.219L297.466 278.376C297.946 278.653 298.341 278.433 298.342 277.877L298.357 272.518C298.358 271.962 297.966 271.288 297.486 271.011L283.358 262.854Z" fill="black"/>
        </g>
    </g>
    <g opacity="0.1">
        <path d="M302.909 167.277C302.429 167.001 302.035 167.221 302.033 167.777L302.018 173.136C302.016 173.692 302.408 174.366 302.888 174.643L317.016 182.799C317.496 183.077 317.891 182.856 317.892 182.301L317.907 176.941C317.909 176.386 317.517 175.711 317.037 175.434L302.909 167.277Z" fill="black"/>
        <path d="M293.518 170.955C293.038 170.679 292.644 170.898 292.642 171.455L292.627 176.814C292.625 177.369 293.017 178.044 293.497 178.321L307.625 186.477C308.105 186.754 308.499 186.534 308.501 185.978L308.516 180.619C308.518 180.064 308.126 179.389 307.646 179.113L293.518 170.955Z" fill="black"/>
        <g opacity="0.07">
            <path d="M302.909 167.277C302.429 167.001 302.035 167.221 302.033 167.777L302.018 173.136C302.016 173.692 302.408 174.366 302.888 174.643L317.016 182.799C317.496 183.077 317.891 182.856 317.892 182.301L317.907 176.941C317.909 176.386 317.517 175.711 317.037 175.434L302.909 167.277Z" fill="black"/>
            <path d="M293.518 170.955C293.038 170.679 292.644 170.898 292.642 171.455L292.627 176.814C292.625 177.369 293.017 178.044 293.497 178.321L307.625 186.477C308.105 186.754 308.499 186.534 308.501 185.978L308.516 180.619C308.518 180.064 308.126 179.389 307.646 179.113L293.518 170.955Z" fill="black"/>
        </g>
    </g>
    <g opacity="0.1">
        <path d="M275.916 313.514C275.436 313.237 275.042 313.457 275.041 314.013L275.025 319.372C275.024 319.928 275.416 320.602 275.896 320.879L290.024 329.036C290.504 329.313 290.897 329.093 290.899 328.537L290.914 323.178C290.916 322.623 290.524 321.948 290.044 321.672L275.916 313.514Z" fill="black"/>
        <path d="M275.916 331.92C275.436 331.643 275.042 331.864 275.041 332.419L275.025 337.778C275.024 338.334 275.416 339.008 275.896 339.285L290.024 347.442C290.504 347.72 290.897 347.499 290.899 346.944L290.914 341.584C290.916 341.029 290.524 340.354 290.044 340.078L275.916 331.92Z" fill="black"/>
        <path d="M284.304 327.579C283.824 327.301 283.43 327.522 283.428 328.077L283.413 333.436C283.411 333.992 283.803 334.667 284.283 334.943L298.411 343.1C298.891 343.378 299.285 343.157 299.287 342.602L299.302 337.243C299.304 336.687 298.912 336.012 298.432 335.736L284.304 327.579Z" fill="black"/>
        <path d="M266.525 317.193C266.045 316.917 265.651 317.137 265.649 317.692L265.634 323.051C265.633 323.607 266.024 324.281 266.504 324.558L280.632 332.715C281.112 332.993 281.506 332.772 281.508 332.217L281.523 326.857C281.525 326.302 281.133 325.627 280.653 325.351L266.525 317.193Z" fill="black"/>
        <g opacity="0.07">
            <path d="M275.916 313.514C275.436 313.237 275.042 313.457 275.041 314.013L275.025 319.372C275.024 319.928 275.416 320.602 275.896 320.879L290.024 329.036C290.504 329.313 290.897 329.093 290.899 328.537L290.914 323.178C290.916 322.623 290.524 321.948 290.044 321.672L275.916 313.514Z" fill="black"/>
            <path d="M275.916 331.92C275.436 331.643 275.042 331.864 275.041 332.419L275.025 337.778C275.024 338.334 275.416 339.008 275.896 339.285L290.024 347.442C290.504 347.72 290.897 347.499 290.899 346.944L290.914 341.584C290.916 341.029 290.524 340.354 290.044 340.078L275.916 331.92Z" fill="black"/>
            <path d="M284.304 327.579C283.824 327.301 283.43 327.522 283.428 328.077L283.413 333.436C283.411 333.992 283.803 334.667 284.283 334.943L298.411 343.1C298.891 343.378 299.285 343.157 299.287 342.602L299.302 337.243C299.304 336.687 298.912 336.012 298.432 335.736L284.304 327.579Z" fill="black"/>
            <path d="M266.525 317.193C266.045 316.917 265.651 317.137 265.649 317.692L265.634 323.051C265.633 323.607 266.024 324.281 266.504 324.558L280.632 332.715C281.112 332.993 281.506 332.772 281.508 332.217L281.523 326.857C281.525 326.302 281.133 325.627 280.653 325.351L266.525 317.193Z" fill="black"/>
        </g>
    </g>
    <g opacity="0.1">
        <path d="M317.026 189.12C316.546 188.842 316.152 189.063 316.15 189.618L316.135 194.977C316.133 195.533 316.525 196.208 317.005 196.484L331.133 204.641C331.613 204.919 332.007 204.698 332.009 204.142L332.024 198.783C332.026 198.227 331.634 197.553 331.154 197.276L317.026 189.12Z" fill="black"/>
        <path d="M317.026 207.527C316.546 207.251 316.152 207.471 316.15 208.027L316.135 213.386C316.133 213.942 316.525 214.616 317.005 214.893L331.133 223.049C331.613 223.327 332.007 223.106 332.009 222.55L332.024 217.191C332.026 216.635 331.634 215.96 331.154 215.684L317.026 207.527Z" fill="black"/>
        <path d="M307.635 192.799C307.155 192.522 306.76 192.742 306.759 193.299L306.744 198.658C306.742 199.213 307.134 199.888 307.614 200.164L321.742 208.321C322.222 208.598 322.616 208.378 322.618 207.821L322.633 202.463C322.635 201.907 322.243 201.233 321.763 200.955L307.635 192.799Z" fill="black"/>
        <g opacity="0.07">
            <path d="M317.026 189.12C316.546 188.842 316.152 189.063 316.15 189.618L316.135 194.977C316.133 195.533 316.525 196.208 317.005 196.484L331.133 204.641C331.613 204.919 332.007 204.698 332.009 204.142L332.024 198.783C332.026 198.227 331.634 197.553 331.154 197.276L317.026 189.12Z" fill="black"/>
            <path d="M317.026 207.527C316.546 207.251 316.152 207.471 316.15 208.027L316.135 213.386C316.133 213.942 316.525 214.616 317.005 214.893L331.133 223.049C331.613 223.327 332.007 223.106 332.009 222.55L332.024 217.191C332.026 216.635 331.634 215.96 331.154 215.684L317.026 207.527Z" fill="black"/>
            <path d="M307.635 192.799C307.155 192.522 306.76 192.742 306.759 193.299L306.744 198.658C306.742 199.213 307.134 199.888 307.614 200.164L321.742 208.321C322.222 208.598 322.616 208.378 322.618 207.821L322.633 202.463C322.635 201.907 322.243 201.233 321.763 200.955L307.635 192.799Z" fill="black"/>
        </g>
    </g>
    <path d="M80.9369 245.044L90.9155 239.245L90.9297 234.175L87.7324 231.518L77.7529 237.317L74.9155 239.563L77.7315 244.796L80.9369 245.044Z" fill="#5C9EFF"/>
    <path opacity="0.3" d="M90.9298 234.175L87.7325 231.518L77.7529 237.317L80.9512 239.974L90.9298 234.175Z" fill="white"/>
    <path opacity="0.2" d="M80.937 245.044L90.9157 239.245L90.9299 234.176L80.9512 239.975L80.937 245.044Z" fill="white"/>
    <path d="M163.034 135.561L169.072 135.044L179.051 129.245L171.917 115.867L164.004 113.594L154.025 119.393L163.034 135.561Z" fill="#5C9EFF"/>
    <path opacity="0.3" d="M169.072 135.045L179.05 129.246L171.917 115.867L161.938 121.666L169.072 135.045Z" fill="white"/>
    <path opacity="0.4" d="M161.939 121.666L171.917 115.867L164.004 113.594L154.025 119.393L161.939 121.666Z" fill="white"/>
    <path d="M89.1865 275.313L89.1919 273.416L87.0648 272.187L85.2399 264.392L78.6568 263.227L68.6781 269.027L67.1545 274.154L65.6372 276.968L70.1359 286.883L73.1545 286.698L79.8434 289.054L89.8221 283.254L89.1865 275.313Z" fill="#5C9EFF"/>
    <path opacity="0.4" d="M89.1866 275.312L79.207 281.112L79.8435 289.054L89.8221 283.254L89.1866 275.312Z" fill="white"/>
    <path opacity="0.4" d="M79.2134 279.215L89.1921 273.416L87.065 272.188L77.0854 277.987L79.2134 279.215Z" fill="white"/>
    <path opacity="0.3" d="M79.207 281.112L89.1866 275.313L89.1919 273.416L79.2133 279.215L79.207 281.112Z" fill="white"/>
    <path opacity="0.3" d="M77.0851 277.987L87.0647 272.188L85.2398 264.393L75.2603 270.192L77.0851 277.987Z" fill="white"/>
    <path opacity="0.4" d="M85.24 264.392L78.6569 263.227L68.6782 269.027L75.2604 270.191L85.24 264.392Z" fill="white"/>
    <path d="M274.244 391.801L270.582 382.681L265.724 379.877L263.725 376.094L253.745 381.893L250.72 384.779L251.364 391.602L254.718 392.429L258.225 399.121L264.266 397.6L274.244 391.801Z" fill="#5C9EFF"/>
    <path opacity="0.4" d="M265.724 379.877L263.725 376.094L253.746 381.893L255.746 385.676L265.724 379.877Z" fill="white"/>
    <path opacity="0.3" d="M260.603 388.481L270.582 382.681L265.724 379.877L255.746 385.676L260.603 388.481Z" fill="white"/>
    <path opacity="0.4" d="M264.266 397.601L274.244 391.802L270.582 382.682L260.603 388.481L264.266 397.601Z" fill="white"/>
    <path d="M168.245 265.373L165.827 260.128L162.812 259.039L152.832 264.838L152.818 269.956L155.825 273.815L155.812 278.572L161.838 282.052L171.817 276.252L170.833 267.93L168.245 265.373Z" fill="#5C9EFF"/>
    <path opacity="0.3" d="M158.265 271.173L168.244 265.374L165.827 260.129L155.847 265.928L158.265 271.173Z" fill="white"/>
    <path opacity="0.4" d="M165.827 260.128L162.812 259.039L152.832 264.838L155.847 265.927L165.827 260.128Z" fill="white"/>
    <path opacity="0.4" d="M160.854 273.729L170.833 267.929L168.245 265.373L158.265 271.172L160.854 273.729Z" fill="white"/>
    <path opacity="0.3" d="M160.854 273.729L161.838 282.051L171.817 276.252L170.833 267.93L160.854 273.729Z" fill="white"/>
    <path d="M103.123 193.407L99.7598 197.888L105.217 204.479L115.195 198.679L116.439 194.631L113.102 187.607L103.123 193.407Z" fill="#5C9EFF"/>
    <path opacity="0.3" d="M105.217 204.478L115.195 198.679L116.439 194.631L106.459 200.43L105.217 204.478Z" fill="white"/>
    <path opacity="0.4" d="M103.124 193.407L106.46 200.431L116.439 194.631L113.102 187.607L103.124 193.407Z" fill="white"/>
    <path d="M55.0151 291.184L52.7057 294.997L45.7297 297.907L45.7075 305.601L51.3377 312.202L59.4213 310.862L59.4302 307.624L67.5582 306.133L67.5804 298.439L67.4311 291.09L55.0151 291.184Z" fill="#5C9EFF"/>
    <path opacity="0.2" d="M59.1279 303.22L59.4435 303.168L59.4302 307.624L67.5582 306.134L67.5804 298.439L59.1368 299.988L59.1279 303.22Z" fill="white"/>
    <path opacity="0.3" d="M59.1281 303.22L51.3592 304.508L51.3379 312.202L59.4214 310.862L59.4303 307.624L59.4437 303.168L59.1281 303.22Z" fill="white"/>
    <path opacity="0.2" d="M45.7297 297.906L45.7075 305.6L51.3377 312.201L51.3591 304.507L45.7297 297.906Z" fill="white"/>
    <path d="M192.95 368.271L192.973 360.575L183.084 357.162L182.657 367.883L182.636 375.577L192.117 377.049L192.95 368.271Z" fill="#5C9EFF"/>
    <path opacity="0.3" d="M192.95 368.271L192.973 360.576L192.139 369.356L192.117 377.05L192.95 368.271Z" fill="white"/>
    <path opacity="0.2" d="M192.139 369.355L182.657 367.883L182.636 375.577L192.117 377.049L192.139 369.355Z" fill="white"/>
    <path d="M121.395 317.322L131.746 318.289L134.105 312.645L134.126 304.951L129.53 302.297L129.537 299.672L122.524 300.257L117.619 303.875L117.597 311.57L121.409 312.784L121.395 317.322Z" fill="#5C9EFF"/>
    <path opacity="0.2" d="M121.418 309.627L121.921 309.674L121.933 305.249L117.619 303.875L117.597 311.569L121.409 312.783L121.418 309.627Z" fill="white"/>
    <path opacity="0.2" d="M134.105 312.645L134.126 304.951L131.767 310.595L131.746 318.289L134.105 312.645Z" fill="white"/>
    <path opacity="0.3" d="M121.409 312.783L121.396 317.321L131.746 318.288L131.767 310.594L121.921 309.674L121.418 309.627L121.409 312.783Z" fill="white"/>
    <path d="M118.492 364.391L111.199 363.393L109.316 367.106L109.294 374.8L121.68 378.948L128.596 374.929L128.618 367.234L120.94 361.803L118.492 364.391Z" fill="#5C9EFF"/>
    <path opacity="0.3" d="M121.68 378.948L128.596 374.929L128.618 367.234L121.702 371.254L121.68 378.948Z" fill="white"/>
    <path opacity="0.2" d="M109.316 367.105L109.294 374.8L121.68 378.947L121.702 371.253L109.316 367.105Z" fill="white"/>
    <path d="M204.806 361.471L205.209 357.529L205.231 349.835L203.614 346.396L198.559 346.947L198.306 348.839L194.787 349.139L194.777 352.636L190.885 354.897L190.863 362.592L195.026 363.663L198.263 363.528L204.806 361.471Z" fill="#5C9EFF"/>
    <path opacity="0.3" d="M205.209 357.528L205.231 349.834L204.827 353.776L204.806 361.47L205.209 357.528Z" fill="white"/>
    <path opacity="0.2" d="M204.805 361.472L204.827 353.777L198.285 355.833L198.263 363.528L204.805 361.472Z" fill="white"/>
    <path opacity="0.3" d="M198.285 355.832L195.048 355.968L195.026 363.662L198.263 363.527L198.285 355.832Z" fill="white"/>
    <path opacity="0.2" d="M195.018 355.961L194.768 355.896L190.885 354.896L190.863 362.592L195.026 363.663L195.048 355.968L195.018 355.961Z" fill="white"/>
    <path d="M239.7 342.665L228.074 342.049L223.496 344.192L223.475 351.886L225.832 356.751L235.253 353.901L239.679 350.359L239.7 342.665Z" fill="#5C9EFF"/>
    <path opacity="0.3" d="M239.701 342.664L235.276 346.206L235.253 353.901L239.679 350.358L239.701 342.664Z" fill="white"/>
    <path opacity="0.2" d="M225.854 349.057L225.832 356.751L235.253 353.901L235.276 346.207L225.854 349.057Z" fill="white"/>
    <path opacity="0.3" d="M223.496 344.191L223.475 351.886L225.832 356.751L225.854 349.056L223.496 344.191Z" fill="white"/>
    <path d="M256.431 239.41L256.453 231.716L253.954 229.461L247.774 229.778L247.493 233.216L247.471 240.91L252.049 241.958L256.431 239.41Z" fill="#5C9EFF"/>
    <path opacity="0.2" d="M256.431 239.411L256.453 231.717L252.07 234.263L252.049 241.959L256.431 239.411Z" fill="white"/>
    <path opacity="0.3" d="M252.07 234.262L247.493 233.215L247.471 240.909L252.049 241.957L252.07 234.262Z" fill="white"/>
    <path d="M261.045 284.194L251.195 279.834L246.741 280.593L244.031 292.204L248.59 296.691L250.88 304.965L260.984 303.765L265.438 303.006L265.499 294.662L261.181 293L261.045 284.194Z" fill="#5C9EFF"/>
    <path opacity="0.3" d="M250.88 304.964L260.984 303.764L265.438 303.006L255.333 304.205L250.88 304.964Z" fill="white"/>
    <path opacity="0.3" d="M253.045 295.932L248.59 296.691L250.88 304.965L255.333 304.205L253.045 295.932Z" fill="white"/>
    <path opacity="0.2" d="M248.485 291.445L244.031 292.204L248.59 296.692L253.045 295.932L248.485 291.445Z" fill="white"/>
    <path opacity="0.3" d="M251.195 279.834L246.741 280.593L244.031 292.204L248.485 291.445L251.195 279.834Z" fill="white"/>
    <path d="M149.637 180.332L148.739 178.221L146.013 178.686L141.579 173.02L137.125 173.779L131.798 180.509L133.13 188.05L133.364 193.01L141.344 198.534L145.798 197.776L147.901 193.895L153.869 188.356L149.637 180.332Z" fill="#5C9EFF"/>
    <path opacity="0.2" d="M136.253 179.75L131.798 180.509L133.13 188.05L137.584 187.291L136.253 179.75Z" fill="white"/>
    <path opacity="0.3" d="M141.579 173.02L137.125 173.779L131.798 180.509L136.253 179.75L141.579 173.02Z" fill="white"/>
    <path opacity="0.2" d="M133.364 193.01L141.344 198.535L145.798 197.776L137.818 192.252L133.364 193.01Z" fill="white"/>
    <path opacity="0.3" d="M137.584 187.291L133.13 188.049L133.364 193.009L137.818 192.251L137.584 187.291Z" fill="white"/>
    <path d="M131.777 228.662L127.323 229.42L121.043 233.046L121.351 240.775L129.003 242.757L133.458 241.999L135.51 237.436L131.377 234.497L131.777 228.662Z" fill="#5C9EFF"/>
    <path opacity="0.2" d="M131.777 228.662L127.323 229.42L121.043 233.046L125.498 232.288L131.777 228.662Z" fill="white"/>
    <path opacity="0.2" d="M121.351 240.776L129.004 242.758L133.458 242L125.805 240.018L121.351 240.776Z" fill="white"/>
    <path opacity="0.3" d="M125.498 232.287L121.043 233.045L121.351 240.774L125.805 240.016L125.498 232.287Z" fill="white"/>
    <path d="M232.77 284.63L236.903 276.698L225.374 270.545L220.92 271.303L214.091 278.421L228.316 285.388L232.77 284.63Z" fill="#5C9EFF"/>
    <path opacity="0.3" d="M232.77 284.631L218.546 277.664L214.091 278.422L228.316 285.389L232.77 284.631Z" fill="white"/>
    <path opacity="0.2" d="M225.374 270.545L220.92 271.303L214.091 278.421L218.546 277.663L225.374 270.545Z" fill="white"/>
    <path d="M208.121 333.133L212.575 332.375L216.234 323.334L209.239 317.672L204.785 318.431L202.759 319.601L201.136 318.723L196.682 319.483L195.854 326.36L199.571 333.138L204.026 332.379L204.924 331.371L208.121 333.133Z" fill="#5C9EFF"/>
    <path opacity="0.3" d="M202.68 329.925L200.308 325.602L195.854 326.361L199.571 333.138L204.026 332.379L202.843 330.223L202.68 329.925Z" fill="white"/>
    <path opacity="0.2" d="M200.852 321.076L200.901 320.672L201.136 318.723L196.682 319.482L195.854 326.359L200.308 325.6L200.852 321.076Z" fill="white"/>
    <path d="M137.182 142.449L132.728 143.207L132.215 155.287L136.668 154.528L142.586 152.503L143.419 146.63L137.182 142.449Z" fill="#5C9EFF"/>
    <path opacity="0.2" d="M132.215 155.287L136.668 154.528L137.182 142.449L132.728 143.207L132.215 155.287Z" fill="white"/>
    <path d="M234.618 309.012L230.164 309.771L229.65 321.85L234.105 321.091L240.022 319.066L240.856 313.192L234.618 309.012Z" fill="#5C9EFF"/>
    <path opacity="0.2" d="M229.65 321.85L234.105 321.091L234.618 309.012L230.164 309.771L229.65 321.85Z" fill="white"/>
    <path d="M146.953 331.304L137.941 335.125L140.839 338.988L137.833 345.157L142.365 349.19L146.819 348.432L155.193 339.442L151.407 330.545L146.953 331.304Z" fill="#5C9EFF"/>
    <path opacity="0.3" d="M146.953 331.304L137.941 335.125L142.396 334.366L151.407 330.545L146.953 331.304Z" fill="white"/>
    <path opacity="0.2" d="M140.839 338.989L145.293 338.231L142.396 334.367L137.941 335.126L140.839 338.989Z" fill="white"/>
    <path opacity="0.2" d="M142.365 349.19L146.819 348.432L142.287 344.398L137.833 345.158L142.365 349.19Z" fill="white"/>
    <path opacity="0.3" d="M137.833 345.158L142.287 344.398L145.293 338.23L140.839 338.989L137.833 345.158Z" fill="white"/>
    <path d="M262.425 342.748L258.173 339.867L253.72 340.626L251.018 343.097L253.44 348.79L257.452 349.4L259.707 354.699L264.162 353.941L270.188 350.461L265.517 342.43L262.425 342.748Z" fill="#5C9EFF"/>
    <path opacity="0.2" d="M257.452 349.4L259.707 354.699L264.161 353.941L261.906 348.641L257.452 349.4Z" fill="white"/>
    <path opacity="0.3" d="M257.894 348.031L253.44 348.789L257.452 349.399L261.907 348.64L257.894 348.031Z" fill="white"/>
    <path opacity="0.2" d="M255.472 342.34L251.018 343.098L253.44 348.791L257.894 348.032L255.472 342.34Z" fill="white"/>
    <path opacity="0.3" d="M258.173 339.867L253.72 340.626L251.018 343.097L255.472 342.339L258.173 339.867Z" fill="white"/>
    <path d="M118.261 118.275L114.01 115.395L109.556 116.153L106.854 118.625L109.276 124.317L113.289 124.927L115.543 130.226L119.998 129.467L126.024 125.988L121.354 117.957L118.261 118.275Z" fill="#5C9EFF"/>
    <path opacity="0.2" d="M113.289 124.927L115.543 130.226L119.998 129.468L117.742 124.168L113.289 124.927Z" fill="white"/>
    <path opacity="0.3" d="M113.73 123.559L109.276 124.318L113.289 124.927L117.743 124.168L113.73 123.559Z" fill="white"/>
    <path opacity="0.2" d="M111.308 117.865L106.854 118.624L109.276 124.317L113.73 123.558L111.308 117.865Z" fill="white"/>
    <path opacity="0.3" d="M114.01 115.395L109.556 116.153L106.854 118.625L111.308 117.866L114.01 115.395Z" fill="white"/>
    <path d="M159.187 208.049L154.733 208.808L154.422 217.872L161.511 218.529L165.965 217.77L164.946 211.776L159.187 208.049Z" fill="#5C9EFF"/>
    <path opacity="0.2" d="M154.422 217.872L161.511 218.529L165.965 217.77L158.877 217.113L154.422 217.872Z" fill="white"/>
    <path opacity="0.3" d="M159.187 208.049L154.733 208.808L154.422 217.872L158.877 217.113L159.187 208.049Z" fill="white"/>
    <path d="M133.935 282.911L136.206 288.249L140.661 287.491L143.041 284.264L143.605 281.176L142.355 273.828L137.178 271.031L132.22 270.439L127.765 271.198L127.343 276.239L129.813 277.634L129.405 281.085L133.935 282.911Z" fill="#5C9EFF"/>
    <path opacity="0.3" d="M136.206 288.249L140.66 287.491L138.389 282.152L133.935 282.911L136.206 288.249Z" fill="white"/>
    <path opacity="0.2" d="M133.935 282.912L138.39 282.153L133.859 280.326L129.405 281.085L133.935 282.912Z" fill="white"/>
    <path opacity="0.3" d="M133.859 280.326L134.268 276.875L129.814 277.634L129.405 281.085L133.859 280.326Z" fill="white"/>
    <path opacity="0.2" d="M131.797 275.48L127.343 276.24L129.813 277.634L134.268 276.875L131.797 275.48Z" fill="white"/>
    <path opacity="0.3" d="M132.22 270.439L127.765 271.198L127.343 276.239L131.797 275.48L132.22 270.439Z" fill="white"/>
    <path d="M240.411 181.213L244.865 180.454L243.213 169.941L239.495 163.654L235.041 164.413L231.558 174.858L233.37 180.423L240.411 181.213Z" fill="#5C9EFF"/>
    <path opacity="0.2" d="M240.411 181.213L244.865 180.454L237.824 179.664L233.37 180.423L240.411 181.213Z" fill="white"/>
    <path opacity="0.3" d="M237.824 179.664L236.011 174.1L231.558 174.858L233.37 180.423L237.824 179.664Z" fill="white"/>
    <path opacity="0.2" d="M239.495 163.654L235.041 164.413L231.558 174.858L236.011 174.1L239.495 163.654Z" fill="white"/>
    <path d="M225.361 148.475L227.804 144.847L225.404 139.209L220.95 139.967L217.37 140.922L216.376 146.86L220.907 149.233L225.361 148.475Z" fill="#5C9EFF"/>
    <path opacity="0.3" d="M225.404 139.209L220.95 139.967L217.37 140.922L221.824 140.163L225.404 139.209Z" fill="white"/>
    <path opacity="0.2" d="M225.361 148.474L220.829 146.1L216.376 146.859L220.907 149.232L225.361 148.474Z" fill="white"/>
    <path opacity="0.3" d="M221.824 140.162L217.37 140.921L216.376 146.859L220.829 146.1L221.824 140.162Z" fill="white"/>
    <path d="M162.604 316.396L162.425 311.405L165.947 306.944L157.966 304.029L153.512 304.788L152.712 316.14L158.15 317.156L162.604 316.396Z" fill="#5C9EFF"/>
    <path opacity="0.3" d="M162.604 316.397L157.165 315.383L152.712 316.141L158.15 317.156L162.604 316.397Z" fill="white"/>
    <path opacity="0.2" d="M157.966 304.029L153.512 304.788L152.712 316.14L157.165 315.382L157.966 304.029Z" fill="white"/>
    <path d="M118.934 320.515L118.944 316.891L120.776 314.837L120.798 307.142L111.954 304.672L105.261 306.815L100.57 307.796L98.7732 314.077L98.751 321.771L103.429 322.544L111.411 325.648L117.293 321.468L118.934 320.515Z" fill="#5C9EFF"/>
    <path opacity="0.2" d="M118.956 312.822L118.944 316.891L120.776 314.838L120.798 307.143L116.828 311.593L116.821 314.126L117.315 313.775L118.956 312.822Z" fill="white"/>
    <path opacity="0.3" d="M117.314 313.773L117.293 321.467L118.934 320.515L118.944 316.89L118.955 312.82L117.314 313.773Z" fill="white"/>
    <path opacity="0.3" d="M98.7732 314.078L98.751 321.772L103.429 322.545L103.451 314.851L98.7732 314.078Z" fill="white"/>
    <path opacity="0.3" d="M117.315 313.773L116.821 314.125L111.434 317.953L111.412 325.647L117.293 321.468L117.315 313.773Z" fill="white"/>
    <path opacity="0.2" d="M103.451 314.85L103.429 322.544L111.411 325.648L111.434 317.954L103.451 314.85Z" fill="white"/>
    <path d="M235.694 207.476L217.27 193.088L215.479 196.326L234.18 210.99L235.694 207.476Z" fill="#263238"/>
    <path d="M201.812 220.432L191.475 219.488C192.778 226.05 195.088 235.145 195.088 235.145L207.516 231.518L201.812 220.432Z" fill="#455A64"/>
    <path d="M171.623 318.625C173.929 319.045 176.37 318.679 178.451 317.6C179.985 316.807 181.299 315.655 182.742 314.705C183.877 313.957 184.919 313.459 186.251 313.279C187.652 313.091 189.056 312.801 190.346 312.204C191.712 311.571 192.994 310.682 193.759 308.97C194.022 308.382 194.006 307.717 193.752 307.143C193.854 307.254 193.962 307.375 194.077 307.507C194.661 308.181 194.816 309.14 194.452 309.954C193.672 311.701 192.363 312.608 190.969 313.254C189.653 313.863 188.22 314.159 186.791 314.351C185.431 314.535 184.369 315.043 183.21 315.807C181.738 316.776 180.395 317.951 178.831 318.761C176.707 319.861 174.216 320.235 171.862 319.807C170.882 319.628 169.85 319.258 169.311 318.422C169.03 317.986 168.925 317.469 168.954 316.951C169.002 317.06 169.058 317.166 169.122 317.268C169.652 318.088 170.663 318.45 171.623 318.625Z" fill="black"/>
    <path d="M193.391 306.572C193.541 306.746 193.66 306.939 193.751 307.143C194.006 307.717 194.021 308.382 193.758 308.971C192.993 310.683 191.711 311.571 190.345 312.204C189.055 312.802 187.651 313.092 186.251 313.28C184.918 313.46 183.877 313.957 182.741 314.706C181.299 315.656 179.984 316.807 178.451 317.601C176.37 318.679 173.928 319.045 171.622 318.626C170.662 318.451 169.651 318.089 169.122 317.269C169.056 317.168 169 317.061 168.954 316.952C168.626 316.185 168.745 315.246 169.155 314.506C169.625 313.66 170.417 313.037 171.255 312.554C172.093 312.07 172.994 311.701 173.833 311.22C175.211 310.428 176.396 309.346 177.57 308.273C178.658 307.277 179.746 306.283 180.833 305.287L192.641 305.761C192.641 305.759 193.003 306.125 193.391 306.572Z" fill="#263238"/>
    <path d="M258.565 262.765C258.574 260.421 257.787 258.082 256.361 256.221C255.311 254.85 253.948 253.757 252.76 252.504C251.825 251.516 251.152 250.578 250.742 249.298C250.311 247.952 249.782 246.621 248.967 245.456C248.105 244.221 247.006 243.114 245.186 242.661C244.56 242.505 243.909 242.637 243.389 242.988C243.48 242.868 243.58 242.74 243.691 242.604C244.253 241.911 245.169 241.591 246.034 241.807C247.89 242.27 249.013 243.399 249.893 244.659C250.723 245.848 251.264 247.207 251.704 248.58C252.122 249.887 252.809 250.844 253.764 251.851C254.976 253.13 256.367 254.247 257.438 255.645C258.894 257.544 259.697 259.931 259.687 262.323C259.683 263.319 259.5 264.4 258.771 265.078C258.391 265.431 257.901 265.625 257.385 265.686C257.485 265.621 257.58 265.547 257.668 265.465C258.382 264.8 258.561 263.741 258.565 262.765Z" fill="black"/>
    <path d="M242.89 243.442C243.034 243.264 243.204 243.113 243.389 242.988C243.909 242.637 244.561 242.504 245.186 242.661C247.005 243.115 248.104 244.221 248.967 245.455C249.782 246.621 250.311 247.951 250.742 249.298C251.152 250.578 251.825 251.517 252.76 252.503C253.948 253.757 255.311 254.85 256.361 256.221C257.787 258.081 258.574 260.421 258.565 262.765C258.56 263.741 258.381 264.799 257.666 265.464C257.578 265.547 257.483 265.62 257.383 265.686C256.685 266.143 255.741 266.19 254.94 265.915C254.024 265.601 253.273 264.93 252.65 264.19C252.027 263.449 251.507 262.627 250.885 261.886C249.865 260.667 248.591 259.689 247.33 258.722C246.16 257.825 244.989 256.928 243.82 256.031L242.22 244.323C242.22 244.323 242.518 243.902 242.89 243.442Z" fill="#263238"/>
    <path d="M217.859 241.468L218.398 255.941C224.961 249.289 242.041 243.086 242.041 243.086C248.513 247.851 247.076 253.334 244.648 255.941C231.254 263.223 215.972 273.021 212.466 272.212C208.96 271.404 204.326 266.092 200.935 256.072L203.976 239.277L217.859 241.468Z" fill="#37474F"/>
    <path d="M224.781 218.455C226.938 229.063 226.129 233.738 217.859 241.468C209.589 249.199 196.014 260.076 196.014 260.076C199.341 270.864 194.397 285.068 194.216 290.551C194.037 296.035 193.277 306.114 193.277 306.114C185.725 310.159 180.833 305.285 180.833 305.285L181.092 257.652C181.092 253.477 182.605 249.444 185.349 246.3L201.812 227.444V220.433L224.781 218.455Z" fill="#455A64"/>
    <path d="M166.607 190.474C165.188 190.954 163.649 191.056 162.175 190.792C162.173 187.921 162.194 184.722 161.943 180.549C161.403 171.56 163.831 166.616 165.838 164.818C167.845 163.02 171.291 162.99 172.58 164.129C173.868 165.267 170.723 169.402 170.273 172.998C172.071 170.9 172.97 170.181 174.678 171.47C174.678 171.47 172.85 173.597 172.491 175.395C172.131 177.194 170.213 178.451 169.674 179.946C169.259 181.098 169.697 184.812 170.358 187.994C169.344 189.118 168.043 189.987 166.607 190.474Z" fill="#FFA8A7"/>
    <path d="M166.607 190.473C168.044 189.987 169.343 189.118 170.359 187.993C170.557 188.942 170.773 189.846 170.993 190.617C170.993 190.617 177.945 181.088 179.503 179.289C181.062 177.491 182.5 173.177 189.317 172.383L188.493 189.178C188.493 189.178 174.709 204.88 169.974 207.517C165.24 210.154 163.682 206.738 162.723 200.385C162.209 196.981 162.177 194.106 162.175 190.792C163.649 191.056 165.189 190.953 166.607 190.473Z" fill="#E0E0E0"/>
    <path opacity="0.1" d="M172.057 200.79C173.136 196.88 171.517 192.026 170.993 190.617C170.993 190.617 171.46 189.976 172.178 188.998C173.025 190.633 174.637 195.669 172.057 200.79Z" fill="black"/>
    <path d="M209.678 172.025C213.634 171.485 217.859 172.16 222.174 172.879C223.163 184.565 222.726 196.723 222.174 201.106L225.59 219.444C212.195 227.535 195.115 223.939 191.699 221.602C186.305 200.566 184.957 180.699 189.317 172.384L199.966 170.592L209.678 172.025Z" fill="#F0F0F0"/>
    <path d="M211.358 170.91C215.314 170.37 217.859 172.16 222.174 172.879C223.163 184.565 222.726 196.723 222.174 201.106L225.59 219.444C212.195 227.535 195.115 223.939 191.699 221.602C186.305 200.566 184.957 180.699 189.317 172.384L199.966 170.592L211.358 170.91Z" fill="#E6E6E6"/>
    <path d="M201.136 180.203C202.18 179.377 203.223 178.55 204.266 177.724C203.299 177.237 202.244 176.857 201.205 176.555L199.966 177.166L201.136 180.203Z" fill="#BA68C8"/>
    <path d="M197.779 179.947L197.089 179.517L195.935 177.003L197.273 176.555L198.079 177.164L197.779 179.947Z" fill="#BA68C8"/>
    <path d="M200.299 181.928C202.659 191.311 213.658 197.428 222.726 196.773C224.016 196.68 225.317 196.962 226.366 197.717C228.04 198.922 229.172 200.195 229.874 201.14C230.435 201.895 230.149 202.969 229.284 203.336C227.298 204.18 224.961 204.812 223.094 205.238C220.888 205.741 218.585 205.695 216.411 205.066C199.938 200.297 197.65 189.745 198.097 181.928H200.299Z" fill="#BA68C8"/>
    <path opacity="0.3" d="M198.078 182.35C198.084 182.21 198.089 182.066 198.097 181.928H200.299C200.311 181.975 200.327 182.021 200.339 182.068C200.04 182.313 199.675 182.476 199.293 182.533C198.881 182.594 198.455 182.524 198.078 182.35Z" fill="black"/>
    <path d="M199.966 177.168C199.343 177.065 198.703 177.064 198.079 177.166C197.553 177.833 197.187 178.675 197.088 179.518C197.287 180.82 198.096 181.929 198.096 181.929C198.666 182.363 200.299 181.929 200.299 181.929C200.883 181.129 201.212 180.561 201.396 180.178C201.585 179.786 201.584 179.328 201.391 178.939C200.828 177.802 199.966 177.168 199.966 177.168Z" fill="#BA68C8"/>
    <path opacity="0.3" d="M194.007 224.904C194.864 226.154 197.507 228.261 200.652 228.773L195.087 235.145C195.792 232.261 197.863 229.547 197.863 229.547C195.114 228.047 194.007 224.904 194.007 224.904Z" fill="black"/>
    <path d="M199.116 176.878C196.576 176.204 194.958 179.013 194.958 179.013C194.801 172.788 198.037 170.406 198.037 170.406L199.116 176.878Z" fill="#E0E0E0"/>
    <path d="M209.917 146.133C211.05 145.386 212.183 144.637 213.315 143.89C212.73 143.251 211.841 142.751 210.978 142.819C210.474 142.858 209.989 143.102 209.658 143.485C209.328 143.867 209.155 144.383 209.19 144.887C209.082 142.858 207.33 141.03 205.5 140.147C203.67 139.263 201.562 139.139 199.535 139.277C197.507 139.416 195.499 139.801 193.468 139.875C191.127 139.962 188.772 139.627 186.546 138.899C185.458 138.544 184.374 139.54 184.707 140.634C185.097 141.912 185.754 143.102 186.637 144.143C186.181 144.281 185.687 144.331 185.192 144.303C184.036 144.236 183.261 145.504 183.88 146.483C184.862 148.036 186.47 148.986 187.503 149.408C192.89 157.922 207.43 165.515 207.43 165.515C208.418 165.456 209.269 164.735 209.752 163.872C210.234 163.009 210.413 162.013 210.576 161.038C211.201 157.308 211.717 153.56 212.123 149.8C212.21 149.004 212.288 148.177 212.021 147.421C211.755 146.667 211.042 146.006 210.243 146.073" fill="#37474F"/>
    <path d="M208.509 159.304C208.899 162.813 209.678 168.878 209.678 168.878C206.621 173.013 200.689 173.912 199.115 176.879C197.363 170.991 197.138 166.766 197.138 166.766L207.251 158.811L208.509 159.304Z" fill="#FFA8A7"/>
    <path d="M207.251 158.809L207.507 158.909C207.627 161.965 206.477 165.061 204.346 167.259C202.571 169.089 200.155 170.261 197.631 170.591C197.217 168.215 197.138 166.764 197.138 166.764L207.251 158.809Z" fill="#F28F8F"/>
    <path d="M187.502 149.407C186.733 155.225 187.394 161.225 189.391 166.743C189.902 168.154 191.273 169.065 192.774 169.069C200.454 169.085 206.51 166.446 207.567 159.618C208.149 160.649 209.81 160.947 210.914 160.519C212.018 160.09 212.814 159.105 213.375 158.063C213.682 157.491 213.938 156.879 214.01 156.233C214.082 155.588 213.954 154.901 213.557 154.387C212.908 153.547 211.645 153.348 210.662 153.75C209.68 154.152 208.963 155.041 208.531 156.011C208.367 156.382 208.148 156.834 207.743 156.845C207.325 156.857 207.082 156.385 206.959 155.985C206.469 154.387 206.256 152.705 206.333 151.035C205.139 151.237 203.817 151.057 202.818 150.373C201.818 149.689 201.099 148.608 200.855 147.422C200.255 148.631 198.961 149.527 197.625 149.718C196.29 149.91 194.873 149.407 193.957 148.417C193.221 149.226 192.097 149.735 191.018 149.921C189.94 150.109 188.467 149.921 187.502 149.407Z" fill="#FFA8A7"/>
    <path d="M194.488 156.033L190.975 160.462L194.299 161.563L194.488 156.033Z" fill="#F28F8F"/>
    <path d="M197.362 163.668C196.441 163.971 195.52 164.274 194.599 164.577C194.897 165.217 195.812 165.602 196.488 165.402C197.165 165.202 197.46 164.368 197.362 163.668Z" fill="#F28F8F"/>
    <path opacity="0.3" d="M197.362 163.668C196.441 163.971 195.52 164.274 194.599 164.577C194.897 165.217 195.812 165.602 196.488 165.402C197.165 165.202 197.46 164.368 197.362 163.668Z" fill="black"/>
    <path d="M195.578 165.364C195.882 165.461 196.205 165.485 196.489 165.402C197.02 165.244 197.312 164.696 197.367 164.13C196.999 164.082 196.614 164.152 196.298 164.347C195.932 164.571 195.676 164.949 195.578 165.364Z" fill="#F28F8F"/>
    <path d="M199.401 156.894C199.382 157.44 198.924 157.867 198.379 157.849C197.833 157.83 197.407 157.372 197.425 156.827C197.444 156.282 197.902 155.855 198.447 155.874C198.993 155.891 199.419 156.348 199.401 156.894Z" fill="#263238"/>
    <path d="M191.117 156.291C191.099 156.837 190.641 157.264 190.096 157.245C189.55 157.226 189.123 156.769 189.141 156.223C189.16 155.677 189.618 155.25 190.163 155.268C190.709 155.289 191.136 155.745 191.117 156.291Z" fill="#263238"/>
    <path d="M191.377 153.017C190.545 152.705 189.713 152.393 188.882 152.081C189.185 151.606 189.859 151.393 190.401 151.548C190.942 151.702 191.369 152.453 191.377 153.017Z" fill="#263238"/>
    <path d="M197.104 153.527C197.977 153.363 198.85 153.201 199.723 153.037C199.506 152.517 198.88 152.191 198.32 152.249C197.759 152.308 197.208 152.973 197.104 153.527Z" fill="#263238"/>
    <path d="M209.678 168.878L209.48 167.318C209.48 167.318 209.785 167.317 209.871 167.365C210.939 167.946 212.974 171.11 212.974 171.11C212.255 172.789 208.839 178.032 206.142 179.83C203.026 178.272 200.779 176.085 199.116 176.879C199.76 173.237 209.678 168.878 209.678 168.878Z" fill="#E0E0E0"/>
    <path d="M215.723 226.48C208.24 215.973 191.757 191.661 192.717 171.812L189.317 172.385C187.901 191.947 203.407 217.467 214.209 230.7L215.723 226.48Z" fill="#263238"/>
    <path d="M218.081 234.812L240.958 215.541L244.99 229.789C245.046 229.987 244.984 230.169 244.875 230.311L244.878 230.324L244.854 230.345L244.779 230.413L222.218 250.582C222.365 250.437 222.44 250.217 222.375 249.989L218.081 234.812Z" fill="#BA68C8"/>
    <path opacity="0.15" d="M218.081 234.812L240.958 215.541L244.99 229.789C245.046 229.987 244.984 230.169 244.875 230.311L244.878 230.324L244.854 230.345L244.779 230.413L222.218 250.582C222.365 250.437 222.44 250.217 222.375 249.989L218.081 234.812Z" fill="black"/>
    <path d="M219.062 238.28L215.479 225.619L219.061 238.28H219.062Z" fill="#BA68C8"/>
    <path d="M213.046 224.27L213.022 224.29C213.03 224.283 213.038 224.277 213.046 224.27Z" fill="#BA68C8"/>
    <path d="M213.009 224.303L213.023 224.291C213.019 224.295 213.018 224.302 213.013 224.306L213.009 224.303Z" fill="#BA68C8"/>
    <path d="M222.206 250.593L222.206 250.589L222.217 250.582L222.206 250.593Z" fill="#BA68C8"/>
    <path d="M241.795 218.504L241.796 218.505L241.795 218.504Z" fill="#BA68C8"/>
    <path d="M212.787 224.982C212.751 224.719 212.848 224.479 213.012 224.306C213.017 224.301 213.018 224.295 213.022 224.291L213.045 224.27C213.223 224.105 213.471 224.014 213.738 224.058C214.573 224.195 215.252 224.804 215.479 225.62L219.061 238.282L222.374 249.99C222.439 250.219 222.364 250.438 222.217 250.583C222.213 250.587 222.208 250.587 222.204 250.59C222.057 250.729 221.844 250.797 221.621 250.731L217.145 249.381C216.461 249.175 215.962 248.589 215.867 247.882L212.787 224.982Z" fill="#BA68C8"/>
    <path opacity="0.3" d="M212.787 224.982C212.751 224.719 212.848 224.479 213.012 224.306C213.017 224.301 213.018 224.295 213.022 224.291L213.045 224.27C213.223 224.105 213.471 224.014 213.738 224.058C214.573 224.195 215.252 224.804 215.479 225.62L219.061 238.282L222.374 249.99C222.439 250.219 222.364 250.438 222.217 250.583C222.213 250.587 222.208 250.587 222.204 250.59C222.057 250.729 221.844 250.797 221.621 250.731L217.145 249.381C216.461 249.175 215.962 248.589 215.867 247.882L212.787 224.982Z" fill="black"/>
    <path d="M226.107 226.59L230.151 241.101L229.513 241.71L225.604 227.316L226.107 226.59Z" fill="#BA68C8"/>
    <path d="M234.685 218.92L238.728 233.431L238.09 234.04L234.181 219.646L234.685 218.92Z" fill="#BA68C8"/>
    <path d="M235.641 204.086L235.652 204.076C235.662 204.066 235.677 204.063 235.688 204.055C235.864 203.903 236.098 203.816 236.354 203.858C237.188 203.995 237.868 204.604 238.095 205.42L241.186 216.343C241.559 217.662 241.137 219.077 240.103 219.976L237.724 222.046L221.44 236.213C220.334 237.175 218.604 236.659 218.205 235.249L215.481 225.619C215.254 224.804 214.575 224.194 213.739 224.057C213.473 224.014 213.225 224.105 213.047 224.27L235.641 204.086Z" fill="#BA68C8"/>
    <path opacity="0.2" d="M235.641 204.086L235.652 204.076C235.662 204.066 235.677 204.063 235.688 204.055C235.864 203.903 236.098 203.816 236.354 203.858C237.188 203.995 237.868 204.604 238.095 205.42L241.186 216.343C241.559 217.662 241.137 219.077 240.103 219.976L237.724 222.046L221.44 236.213C220.334 237.175 218.604 236.659 218.205 235.249L215.481 225.619C215.254 224.804 214.575 224.194 213.739 224.057C213.473 224.014 213.225 224.105 213.047 224.27L235.641 204.086Z" fill="white"/>
    <path d="M249.636 205.151L248.902 216.208C247.344 227.236 245.307 228.973 240.272 230.471C235.238 231.969 238.174 225.623 238.834 224.452C239.493 223.28 239.852 221.152 239.852 221.152C237.365 223.399 236.736 223.16 235.747 222.47C235.358 222.171 237.216 220.553 237.216 220.553C238.294 217.797 241.021 214.71 241.021 214.71L240.437 205.15H249.636V205.151Z" fill="#FFA8A7"/>
    <path d="M216.877 172.093C223.971 170.901 228.646 174.478 231.883 176.554C234.222 178.056 242.811 184.533 247.39 188.007C249.226 189.399 250.282 191.586 250.233 193.889L249.982 205.58C244.588 208.297 240.274 205.181 240.274 205.181L239.435 196.611C239.435 196.611 229.46 191.759 222.761 188.702C216.06 185.643 215.221 177.089 216.877 172.093Z" fill="#E0E0E0"/>
</svg>
