<svg width="37" height="37" viewBox="0 0 37 37" fill="none" xmlns="http://www.w3.org/2000/svg">
    <g filter="url(#filter0_d_567_12916)">
        <path d="M5 17.5C5 10.5964 10.5964 5 17.5 5C24.4036 5 30 10.5964 30 17.5C30 24.4036 24.4036 30 17.5 30C10.5964 30 5 24.4036 5 17.5Z" fill="white"/>
        <path d="M18.0503 12H14.0838L12.1005 14H10.1173C9.7175 14 9.4083 13.7149 9.12563 14C8.84296 14.2851 9.12563 14.5969 9.12563 15V22C9.12563 22.4031 8.84296 22.7149 9.12563 23C9.4083 23.2851 9.7175 24 10.1173 24H22.0168C22.4165 24 22.7257 23.2851 23.0084 23C23.291 22.7149 24 22.4031 24 22V15C24 14.5969 23.291 14.2851 23.0084 14C22.7257 13.7149 22.4165 14 22.0168 14H20.0335L18.0503 12Z" stroke="#5A5A5A" stroke-linecap="round" stroke-linejoin="round"/>
        <path d="M17 20C18.2592 20 19 19.2592 19 18C19 16.7408 18.2592 16 17 16C15.7408 16 15 16.7408 15 18C15 19.2592 15.7408 20 17 20Z" stroke="#5A5A5A" stroke-linecap="round" stroke-linejoin="round"/>
    </g>
    <defs>
        <filter id="filter0_d_567_12916" x="0" y="0" width="37" height="37" filterUnits="userSpaceOnUse" color-interpolation-filters="sRGB">
            <feFlood flood-opacity="0" result="BackgroundImageFix"/>
            <feColorMatrix in="SourceAlpha" type="matrix" values="0 0 0 0 0 0 0 0 0 0 0 0 0 0 0 0 0 0 127 0" result="hardAlpha"/>
            <feOffset dx="1" dy="1"/>
            <feGaussianBlur stdDeviation="3"/>
            <feComposite in2="hardAlpha" operator="out"/>
            <feColorMatrix type="matrix" values="0 0 0 0 0 0 0 0 0 0 0 0 0 0 0 0 0 0 0.08 0"/>
            <feBlend mode="normal" in2="BackgroundImageFix" result="effect1_dropShadow_567_12916"/>
            <feBlend mode="normal" in="SourceGraphic" in2="effect1_dropShadow_567_12916" result="shape"/>
        </filter>
    </defs>
</svg>
