<svg width="36" height="36" viewBox="0 0 36 36" fill="none" xmlns="http://www.w3.org/2000/svg">
<path d="M18.0732 22.0488L22.0488 18.0732M22.0488 18.0732L18.0732 13.1037M22.0488 18.0732H6.14637M6.14637 10.122V10.122C6.14637 8.42996 5.81703 7.78687 6.14637 7.14027C6.43643 6.57073 6.57073 6.43643 7.14027 6.14637C7.78687 5.81703 8.42996 6.14637 10.122 6.14637H25.0305C26.7225 6.14637 27.3671 5.81703 28.0122 6.14637C28.5817 6.43643 28.716 6.57073 29.0061 7.14027C29.3354 7.78536 30 8.43298 30 10.122V25.0305C30 26.7195 29.3354 27.3671 29.0061 28.0122C28.7159 28.5808 28.5811 28.7165 28.0122 29.0061C27.3671 29.3354 26.7195 30 25.0305 30H10.122C8.43298 30 7.78536 29.3354 7.14027 29.0061C6.57178 28.7164 6.43605 28.5807 6.14637 28.0122C5.81703 27.3656 6.14637 26.7225 6.14637 25.0305V25.0305" stroke="#FF0000" stroke-width="3" stroke-linecap="round" stroke-linejoin="round"/>
</svg>
