<svg width="36" height="36" viewBox="0 0 36 36" fill="none" xmlns="http://www.w3.org/2000/svg">
<path d="M28.501 9.00024H7.50098C5.84412 9.00024 4.50098 10.3434 4.50098 12.0002V28.5002C4.50098 30.1571 5.84412 31.5002 7.50098 31.5002H28.501C30.1578 31.5002 31.501 30.1571 31.501 28.5002V12.0002C31.501 10.3434 30.1578 9.00024 28.501 9.00024Z" stroke="#5C9EFF" stroke-width="3.04"/>
<path d="M4.50098 15.0002C4.50098 12.1712 4.50098 10.7582 5.37998 9.87924C6.25898 9.00024 7.67198 9.00024 10.501 9.00024H25.501C28.33 9.00024 29.743 9.00024 30.622 9.87924C31.501 10.7582 31.501 12.1712 31.501 15.0002H4.50098Z" fill="#5C9EFF"/>
<path d="M10.501 4.50024V9.00024M25.501 4.50024V9.00024" stroke="#5C9EFF" stroke-width="3.04" stroke-linecap="round"/>
</svg>
