<svg width="19" height="18" viewBox="0 0 19 18" fill="none" xmlns="http://www.w3.org/2000/svg">
<path d="M3.75952 9C3.75952 9.19891 3.83854 9.38968 3.97919 9.53033C4.11984 9.67098 4.31061 9.75 4.50952 9.75C4.70843 9.75 4.8992 9.67098 5.03985 9.53033C5.1805 9.38968 5.25952 9.19891 5.25952 9C5.25952 8.80109 5.1805 8.61032 5.03985 8.46967C4.8992 8.32902 4.70843 8.25 4.50952 8.25C4.31061 8.25 4.11984 8.32902 3.97919 8.46967C3.83854 8.61032 3.75952 8.80109 3.75952 9ZM9.00952 9C9.00952 9.19891 9.08854 9.38968 9.22919 9.53033C9.36984 9.67098 9.56061 9.75 9.75952 9.75C9.95843 9.75 10.1492 9.67098 10.2899 9.53033C10.4305 9.38968 10.5095 9.19891 10.5095 9C10.5095 8.80109 10.4305 8.61032 10.2899 8.46967C10.1492 8.32902 9.95843 8.25 9.75952 8.25C9.56061 8.25 9.36984 8.32902 9.22919 8.46967C9.08854 8.61032 9.00952 8.80109 9.00952 9ZM14.2595 9C14.2595 9.19891 14.3385 9.38968 14.4792 9.53033C14.6198 9.67098 14.8106 9.75 15.0095 9.75C15.2084 9.75 15.3992 9.67098 15.5399 9.53033C15.6805 9.38968 15.7595 9.19891 15.7595 9C15.7595 8.80109 15.6805 8.61032 15.5399 8.46967C15.3992 8.32902 15.2084 8.25 15.0095 8.25C14.8106 8.25 14.6198 8.32902 14.4792 8.46967C14.3385 8.61032 14.2595 8.80109 14.2595 9Z" fill="#1D1D1D" stroke="#1D1D1D" stroke-width="0.76" stroke-linecap="round" stroke-linejoin="round"/>
</svg>
