<svg width="19" height="18" viewBox="0 0 19 18" fill="none" xmlns="http://www.w3.org/2000/svg">
<path d="M9.61979 2.28003C9.20005 2.28003 8.85979 2.62029 8.85979 3.04003V8.36003H3.53979C3.12005 8.36003 2.77979 8.70029 2.77979 9.12003C2.77979 9.53977 3.12005 9.88003 3.53979 9.88003H8.85979V15.2C8.85979 15.6198 9.20005 15.96 9.61979 15.96C10.0395 15.96 10.3798 15.6198 10.3798 15.2V9.88003H15.6998C16.1195 9.88003 16.4598 9.53977 16.4598 9.12003C16.4598 8.70029 16.1195 8.36003 15.6998 8.36003H10.3798V3.04003C10.3798 2.62029 10.0395 2.28003 9.61979 2.28003Z" fill="#5C9EFF"/>
</svg>
