<svg width="18" height="18" viewBox="0 0 18 18" fill="none" xmlns="http://www.w3.org/2000/svg">
<path d="M4.8362 5.97797C4.9498 4.95303 5.43742 4.006 6.20571 3.31816C6.97401 2.63032 7.96899 2.25 9.0002 2.25C10.0314 2.25 11.0264 2.63032 11.7947 3.31816C12.563 4.006 13.0506 4.95303 13.1642 5.97797L13.3532 7.67747L13.3577 7.72022C13.4545 8.56323 13.7291 9.37612 14.1632 10.1052L14.1857 10.1427L14.6185 10.865C15.0122 11.5205 15.2087 11.8482 15.166 12.1175C15.1377 12.2962 15.0458 12.4587 14.9072 12.575C14.698 12.7505 14.3155 12.7505 13.5512 12.7505H4.4492C3.6842 12.7505 3.3017 12.7505 3.0932 12.5757C2.95415 12.4594 2.86197 12.2966 2.8337 12.1175C2.7917 11.8482 2.9882 11.5205 3.3812 10.865L3.81545 10.142L3.83795 10.1045C4.27172 9.37553 4.546 8.56292 4.6427 7.72022L4.6472 7.67747L4.8362 5.97797Z" stroke="white" stroke-width="1.52"/>
<path d="M6.00024 12.751C6.00024 13.5466 6.31631 14.3097 6.87892 14.8723C7.44153 15.4349 8.20459 15.751 9.00024 15.751C9.79589 15.751 10.559 15.4349 11.1216 14.8723C11.6842 14.3097 12.0002 13.5466 12.0002 12.751" stroke="white" stroke-width="1.52" stroke-linecap="round"/>
</svg>
