<svg width="36" height="36" viewBox="0 0 48 48" fill="none" xmlns="http://www.w3.org/2000/svg">
<path d="M12.8959 15.9403C13.1988 13.2071 14.4991 10.6817 16.5479 8.84745C18.5967 7.01321 21.25 5.99902 23.9999 5.99902C26.7498 5.99902 29.4031 7.01321 31.4518 8.84745C33.5006 10.6817 34.8009 13.2071 35.1039 15.9403L35.6079 20.4723L35.6199 20.5863C35.8781 22.8343 36.6102 25.002 37.7679 26.9463L37.8279 27.0463L38.9819 28.9723C40.0319 30.7203 40.5559 31.5943 40.4419 32.3123C40.3666 32.7888 40.1215 33.2221 39.7519 33.5323C39.1939 34.0003 38.1739 34.0003 36.1359 34.0003H11.8639C9.82389 34.0003 8.80389 34.0003 8.24789 33.5343C7.87709 33.224 7.63126 32.7898 7.55589 32.3123C7.44389 31.5943 7.96789 30.7203 9.01588 28.9723L10.1739 27.0443L10.2339 26.9443C11.3906 25.0004 12.122 22.8335 12.3799 20.5863L12.3919 20.4723L12.8959 15.9403Z" stroke="#5A5A5A" stroke-width="3"/>
<path d="M16 34C16 36.1217 16.8429 38.1566 18.3431 39.6569C19.8434 41.1571 21.8783 42 24 42C26.1217 42 28.1566 41.1571 29.6569 39.6569C31.1571 38.1566 32 36.1217 32 34" stroke="#5A5A5A" stroke-width="3" stroke-linecap="round"/>
</svg>
