<svg width="48" height="48" viewBox="0 0 48 48" fill="none" xmlns="http://www.w3.org/2000/svg">
<path d="M38 12H10C7.79086 12 6 13.7909 6 16V38C6 40.2091 7.79086 42 10 42H38C40.2091 42 42 40.2091 42 38V16C42 13.7909 40.2091 12 38 12Z" stroke="#5A5A5A" stroke-width="3"/>
<path d="M6 20C6 16.228 6 14.344 7.172 13.172C8.344 12 10.228 12 14 12H34C37.772 12 39.656 12 40.828 13.172C42 14.344 42 16.228 42 20H6Z" fill="#5A5A5A"/>
<path d="M14 6V12M34 6V12" stroke="#5A5A5A" stroke-width="3" stroke-linecap="round"/>
</svg>
