<svg width="37" height="37" viewBox="0 0 38 38" fill="none" xmlns="http://www.w3.org/2000/svg">
    <path d="M19.1132 23.2087L23.0888 19.2331M23.0888 19.2331L19.1132 14.2636M23.0888 19.2331H7.18641M7.18641 11.2819V11.2819C7.18641 9.58987 6.85707 8.94678 7.18641 8.30019C7.47647 7.73064 7.61077 7.59635 8.18031 7.30629C8.82691 6.97695 9.47 7.30629 11.162 7.30629H26.0705C27.7626 7.30629 28.4072 6.97695 29.0522 7.30629C29.6218 7.59635 29.7561 7.73064 30.0461 8.30019C30.3755 8.94527 31.04 9.59289 31.04 11.2819V26.1904C31.04 27.8794 30.3755 28.527 30.0461 29.1721C29.7559 29.7407 29.6212 29.8764 29.0522 30.166C28.4072 30.4954 27.7595 31.1599 26.0705 31.1599H11.162C9.47302 31.1599 8.82539 30.4954 8.18031 30.166C7.61181 29.8763 7.47609 29.7406 7.18641 29.1721C6.85707 28.5255 7.18641 27.8824 7.18641 26.1904V26.1904" stroke="#FF0000" stroke-width="2" stroke-linecap="round" stroke-linejoin="round"/>
</svg>
