<svg width="36" height="36" viewBox="0 0 48 48" fill="none" xmlns="http://www.w3.org/2000/svg">
<path d="M12.266 41.9996C9.91 41.9996 8 40.0396 8 37.6196V20.0156C8 18.6856 8.59 17.4256 9.6 16.5956L21.334 6.95958C22.0837 6.33874 23.0266 5.99902 24 5.99902C24.9734 5.99902 25.9163 6.33874 26.666 6.95958L38.398 16.5956C39.41 17.4256 40 18.6856 40 20.0156V37.6196C40 40.0396 38.09 41.9996 35.734 41.9996H12.266Z" stroke="#5A5A5A" stroke-width="3" stroke-linecap="round" stroke-linejoin="round"/>
<path d="M19 42V31C19 29.9391 19.4214 28.9217 20.1716 28.1716C20.9217 27.4214 21.9391 27 23 27H25C26.0609 27 27.0783 27.4214 27.8284 28.1716C28.5786 28.9217 29 29.9391 29 31V42" stroke="#5A5A5A" stroke-width="3" stroke-linecap="round" stroke-linejoin="round"/>
</svg>
