<svg width="36" height="36" viewBox="0 0 48 48" fill="none" xmlns="http://www.w3.org/2000/svg">
<path d="M40 41.0005V20.0166C40 18.6866 39.41 17.4266 38.398 16.5966L26.666 6.96055C25.9163 6.33972 24.9734 6 24 6C23.0266 6 22.0837 6.33972 21.334 6.96055L9.6 16.5966C8.59 17.4266 8 18.6866 8 20.0166V41.0005C8 41.5528 8.44771 42.0005 9 42.0005H18C18.5523 42.0005 19 41.5528 19 41.0005V31.0005C19 29.9396 19.4214 28.9222 20.1716 28.1721C20.9217 27.4219 21.9391 27.0005 23 27.0005H25C26.0609 27.0005 27.0783 27.4219 27.8284 28.1721C28.5786 28.9222 29 29.9396 29 31.0005V41.0005C29 41.5528 29.4477 42.0005 30 42.0005H39C39.5523 42.0005 40 41.5528 40 41.0005Z" fill="#1D1D1D"/>
</svg>
