<svg width="48" height="48" viewBox="0 0 48 48" fill="none" xmlns="http://www.w3.org/2000/svg">
<path d="M26 40H14.394C12.158 40 11.038 40 10.184 39.564C9.43139 39.1805 8.81949 38.5686 8.436 37.816C8 36.96 8 35.84 8 33.6V14.4C8 12.16 8 11.04 8.436 10.184C8.82 9.43 9.43 8.82 10.184 8.436C11.04 8 12.16 8 14.4 8H33.6C35.84 8 36.96 8 37.814 8.436C38.568 8.82 39.18 9.43 39.564 10.184C40 11.038 40 12.158 40 14.394V26M26 40C26.572 39.994 26.932 39.972 27.278 39.89C27.686 39.79 28.076 39.63 28.434 39.41C28.838 39.162 29.184 38.818 29.874 38.126L38.126 29.876C38.818 29.184 39.162 28.836 39.41 28.434C39.63 28.074 39.79 27.684 39.89 27.276C39.97 26.932 39.994 26.572 40 26M26 40V29.2C26 28.08 26 27.52 26.218 27.092C26.4097 26.7157 26.7157 26.4097 27.092 26.218C27.52 26 28.08 26 29.2 26H40" stroke="#5A5A5A" stroke-width="3" stroke-linecap="round" stroke-linejoin="round"/>
</svg>
