<svg width="18" height="18" viewBox="0 0 18 18" fill="none" xmlns="http://www.w3.org/2000/svg">
    <path d="M15.7502 15.75L12.4929 12.4928M12.4929 12.4928C13.0501 11.9356 13.492 11.2742 13.7936 10.5462C14.0951 9.81822 14.2503 9.03798 14.2503 8.25003C14.2503 7.46208 14.0951 6.68185 13.7936 5.95387C13.492 5.2259 13.0501 4.56445 12.4929 4.00728C11.9357 3.45012 11.2743 3.00815 10.5463 2.70661C9.81834 2.40508 9.03811 2.24988 8.25015 2.24988C7.4622 2.24988 6.68197 2.40508 5.954 2.70661C5.22602 3.00815 4.56457 3.45012 4.0074 4.00728C2.88216 5.13253 2.25 6.65869 2.25 8.25003C2.25 9.84137 2.88216 11.3675 4.0074 12.4928C5.13265 13.618 6.65881 14.2502 8.25015 14.2502C9.8415 14.2502 11.3677 13.618 12.4929 12.4928Z" stroke="#1D1D1D" stroke-linecap="round" stroke-linejoin="round"/>
</svg>
