<svg width="48" height="48" viewBox="0 0 48 48" fill="none" xmlns="http://www.w3.org/2000/svg">
<circle cx="24" cy="12" r="6" stroke="#1D1D1D" stroke-width="4"/>
<circle cx="37" cy="21" r="3" stroke="#1D1D1D" stroke-width="4"/>
<circle cx="11" cy="21" r="3" stroke="#1D1D1D" stroke-width="4"/>
<path d="M16 44C16 42.3333 16 37.6 16 32M32 32V43.9991M16 32C16 27.5817 19.5817 24 24 24C28.4183 24 32 27.5817 32 32" stroke="#1D1D1D" stroke-width="4"/>
<path d="M42 44V35.6002C42 32.5073 39.3137 30 36 30" stroke="#1D1D1D" stroke-width="4"/>
<path d="M6 44V35.6002C6 32.5073 8.68629 30 12 30" stroke="#1D1D1D" stroke-width="4"/>
<path d="M20 34H24M28 34H24M24 34V42" stroke="#1D1D1D" stroke-width="2"/>
</svg>
