<svg width="35" height="22" viewBox="0 0 350 218" fill="none" xmlns="http://www.w3.org/2000/svg">
<g clip-path="url(#clip0_3_6)">
<path d="M349.719 182.308L330.164 29.6836C327.96 12.4583 312.051 0.200291 294.819 2.40352L293.857 2.5237C285.923 3.52517 279.07 7.49099 274.141 13.0992C273.981 13.2595 273.821 13.4598 273.66 13.66C273.3 14.1007 272.939 14.5413 272.619 14.982C271.777 16.1036 270.976 17.2253 270.254 18.4671L183.135 169.329C174.399 184.471 179.649 204.019 194.756 212.752C209.864 221.485 229.46 216.237 238.196 201.135L278.549 131.273L286.163 190.52C288.367 207.745 304.276 220.003 321.508 217.8L322.47 217.68C339.701 215.476 351.964 199.573 349.76 182.348L349.719 182.308Z" fill="url(#paint0_linear_3_6)"/>
<path d="M242.724 180.665L223.168 28.0412C220.964 10.8159 205.055 -1.44212 187.823 0.761115L186.862 0.881291C178.927 1.88276 172.075 5.84858 167.146 11.4568C166.985 11.617 166.825 11.8173 166.665 12.0176C166.304 12.4583 165.943 12.8989 165.623 13.3396C164.781 14.4612 163.98 15.5829 163.259 16.8247L76.1392 167.686C67.4033 182.828 72.6529 202.377 87.7605 211.11C102.868 219.843 122.464 214.595 131.2 199.493L171.554 129.63L179.168 188.877C181.372 206.103 197.281 218.361 214.512 216.157L215.474 216.037C232.706 213.834 244.968 197.931 242.764 180.705L242.724 180.665Z" fill="url(#paint1_linear_3_6)"/>
<path d="M100.464 0C93.8521 0 87.6808 2.043 82.5915 5.48806C79.9066 6.81 77.3419 8.53253 75.0578 10.6556L10.2593 70.4634C-2.68441 82.441 -3.48587 102.791 8.45597 115.73C20.3978 128.669 40.7951 129.47 53.7388 117.533L68.3655 104.033V184.27C68.3655 201.896 82.7919 216.318 100.424 216.318C118.056 216.318 132.483 201.896 132.483 184.27V32.047C132.483 14.4212 118.056 0 100.424 0H100.464Z" fill="url(#paint2_linear_3_6)"/>
</g>
<defs>
<linearGradient id="paint0_linear_3_6" x1="148.512" y1="110.723" x2="369.916" y2="109.801" gradientUnits="userSpaceOnUse">
<stop stop-color="#4A4FFF"/>
<stop offset="0.6" stop-color="#5C8AFF"/>
<stop offset="1" stop-color="#5C99FF" stop-opacity="0.9"/>
</linearGradient>
<linearGradient id="paint1_linear_3_6" x1="41.5159" y1="109.08" x2="262.881" y2="108.158" gradientUnits="userSpaceOnUse">
<stop stop-color="#4A4FFF"/>
<stop offset="0.6" stop-color="#5C8AFF"/>
<stop offset="1" stop-color="#5C99FF" stop-opacity="0.9"/>
</linearGradient>
<linearGradient id="paint2_linear_3_6" x1="0.000503465" y1="108.159" x2="132.523" y2="108.159" gradientUnits="userSpaceOnUse">
<stop stop-color="#4A4FFF"/>
<stop offset="0.6" stop-color="#5C8AFF"/>
<stop offset="1" stop-color="#5C99FF" stop-opacity="0.9"/>
</linearGradient>
<clipPath id="clip0_3_6">
<rect width="350" height="218" fill="white"/>
</clipPath>
</defs>
</svg>
