<svg width="18" height="18" viewBox="0 0 18 18" fill="none" xmlns="http://www.w3.org/2000/svg">
    <path d="M2.99951 9C2.99951 9.19891 3.07853 9.38968 3.21918 9.53033C3.35983 9.67098 3.5506 9.75 3.74951 9.75C3.94842 9.75 4.13919 9.67098 4.27984 9.53033C4.42049 9.38968 4.49951 9.19891 4.49951 9C4.49951 8.80109 4.42049 8.61032 4.27984 8.46967C4.13919 8.32902 3.94842 8.25 3.74951 8.25C3.5506 8.25 3.35983 8.32902 3.21918 8.46967C3.07853 8.61032 2.99951 8.80109 2.99951 9ZM8.24951 9C8.24951 9.19891 8.32853 9.38968 8.46918 9.53033C8.60983 9.67098 8.8006 9.75 8.99951 9.75C9.19842 9.75 9.38919 9.67098 9.52984 9.53033C9.67049 9.38968 9.74951 9.19891 9.74951 9C9.74951 8.80109 9.67049 8.61032 9.52984 8.46967C9.38919 8.32902 9.19842 8.25 8.99951 8.25C8.8006 8.25 8.60983 8.32902 8.46918 8.46967C8.32853 8.61032 8.24951 8.80109 8.24951 9ZM13.4995 9C13.4995 9.19891 13.5785 9.38968 13.7192 9.53033C13.8598 9.67098 14.0506 9.75 14.2495 9.75C14.4484 9.75 14.6392 9.67098 14.7798 9.53033C14.9205 9.38968 14.9995 9.19891 14.9995 9C14.9995 8.80109 14.9205 8.61032 14.7798 8.46967C14.6392 8.32902 14.4484 8.25 14.2495 8.25C14.0506 8.25 13.8598 8.32902 13.7192 8.46967C13.5785 8.61032 13.4995 8.80109 13.4995 9Z" fill="#1D1D1D" stroke="#1D1D1D" stroke-width="0.76" stroke-linecap="round" stroke-linejoin="round"/>
</svg>
