<svg width="131" height="81" viewBox="0 0 131 81" fill="none" xmlns="http://www.w3.org/2000/svg">
<g clip-path="url(#clip0_1692_4494)">
<path d="M129.996 67.4111L122.778 11.0102C121.964 4.64477 116.091 0.114932 109.73 0.929119L109.375 0.973529C106.446 1.34361 103.917 2.80915 102.097 4.88162C102.038 4.94084 101.979 5.01485 101.92 5.08887C101.787 5.25171 101.653 5.41454 101.535 5.57738C101.224 5.99188 100.929 6.40637 100.662 6.86528L68.5029 62.6148C65.278 68.2105 67.2159 75.4345 72.7928 78.6617C78.3696 81.8888 85.6033 79.9496 88.8281 74.3687L103.724 48.5516L106.535 70.4458C107.349 76.8113 113.221 81.3411 119.582 80.5269L119.937 80.4825C126.298 79.6683 130.825 73.7914 130.011 67.4259L129.996 67.4111Z" fill="url(#paint0_linear_1692_4494)"/>
<path d="M90.4996 66.8039L83.2808 10.403C82.4672 4.03759 76.5944 -0.492245 70.2335 0.321941L69.8785 0.366351C66.9495 0.736436 64.42 2.20197 62.6005 4.27444C62.5413 4.33366 62.4821 4.40767 62.423 4.48169C62.2898 4.64453 62.1567 4.80737 62.0383 4.9702C61.7277 5.3847 61.4318 5.79919 61.1656 6.2581L29.0061 62.0076C25.7813 67.6033 27.7191 74.8274 33.296 78.0545C38.8729 81.2816 46.1065 79.3424 49.3314 73.7615L64.2277 47.9444L67.0383 69.8386C67.8519 76.2041 73.7246 80.7339 80.0855 79.9197L80.4405 79.8753C86.8014 79.0611 91.328 73.1842 90.5144 66.8187L90.4996 66.8039Z" fill="url(#paint1_linear_1692_4494)"/>
<path d="M37.9855 0.0409546C35.5447 0.0409546 33.2667 0.795927 31.388 2.06902C30.3969 2.55753 29.4501 3.19407 28.6069 3.97865L4.68704 26.0801C-0.0910272 30.5063 -0.386883 38.0264 4.02136 42.8079C8.42961 47.5894 15.9591 47.8855 20.7372 43.4741L26.1365 38.4853V68.1365C26.1365 74.65 31.4619 79.9792 37.9708 79.9792C44.4796 79.9792 49.805 74.65 49.805 68.1365V11.8837C49.805 5.37017 44.4796 0.0409546 37.9708 0.0409546H37.9855Z" fill="url(#paint2_linear_1692_4494)"/>
</g>
<defs>
<linearGradient id="paint0_linear_1692_4494" x1="55.7219" y1="40.9575" x2="137.452" y2="40.6175" gradientUnits="userSpaceOnUse">
<stop stop-color="#4A4FFF"/>
<stop offset="0.6" stop-color="#5C8AFF"/>
<stop offset="1" stop-color="#5C99FF" stop-opacity="0.9"/>
</linearGradient>
<linearGradient id="paint1_linear_1692_4494" x1="16.2252" y1="40.3503" x2="97.9404" y2="40.0103" gradientUnits="userSpaceOnUse">
<stop stop-color="#4A4FFF"/>
<stop offset="0.6" stop-color="#5C8AFF"/>
<stop offset="1" stop-color="#5C99FF" stop-opacity="0.9"/>
</linearGradient>
<linearGradient id="paint2_linear_1692_4494" x1="0.900088" y1="40.0101" x2="49.8198" y2="40.0101" gradientUnits="userSpaceOnUse">
<stop stop-color="#4A4FFF"/>
<stop offset="0.6" stop-color="#5C8AFF"/>
<stop offset="1" stop-color="#5C99FF" stop-opacity="0.9"/>
</linearGradient>
<clipPath id="clip0_1692_4494">
<rect width="129.2" height="80.56" fill="white" transform="translate(0.89978 0.0403442)"/>
</clipPath>
</defs>
</svg>
