<svg width="24" height="25" viewBox="0 0 24 25" fill="none" xmlns="http://www.w3.org/2000/svg">
<path d="M0 12.5C0 5.87258 5.37258 0.5 12 0.5V0.5C18.6274 0.5 24 5.87258 24 12.5V12.5C24 19.1274 18.6274 24.5 12 24.5V24.5C5.37258 24.5 0 19.1274 0 12.5V12.5Z" fill="#5C9EFF"/>
<path d="M17.7227 8.25115C18.1804 8.68345 18.201 9.40496 17.7687 9.86269L11.3087 16.7027C11.0972 16.9266 10.8042 17.0554 10.4962 17.0598C10.1882 17.0642 9.8916 16.9438 9.67382 16.726L6.25382 13.306C5.80862 12.8608 5.80862 12.139 6.25382 11.6938C6.69902 11.2486 7.42083 11.2486 7.86602 11.6938L10.4566 14.2844L16.1111 8.29719C16.5434 7.83946 17.2649 7.81885 17.7227 8.25115Z" fill="white"/>
</svg>
