<svg width="92" height="92" viewBox="0 0 92 92" fill="none" xmlns="http://www.w3.org/2000/svg">
<path d="M86.0154 62.6675L81.5142 27.55C81.0069 23.5866 77.3451 20.7661 73.3789 21.273L73.1575 21.3007C71.3312 21.5311 69.754 22.4436 68.6195 23.734C68.5826 23.7709 68.5457 23.817 68.5088 23.8631C68.4258 23.9645 68.3427 24.0659 68.269 24.1672C68.0753 24.4253 67.8908 24.6834 67.7248 24.9691L47.6724 59.6811C45.6616 63.1652 46.8699 67.6632 50.3473 69.6726C53.8246 71.6819 58.335 70.4745 60.3458 66.9996L69.6341 50.9248L71.3866 64.557C71.8939 68.5204 75.5557 71.3409 79.5219 70.8339L79.7433 70.8063C83.7095 70.2993 86.5319 66.6401 86.0246 62.6767L86.0154 62.6675Z" fill="url(#paint0_linear_272_7341)"/>
<path d="M61.3882 62.2896L56.887 27.172C56.3797 23.2086 52.7179 20.3882 48.7517 20.8951L48.5303 20.9228C46.704 21.1532 45.1268 22.0657 43.9923 23.3561C43.9554 23.393 43.9185 23.4391 43.8816 23.4851C43.7986 23.5865 43.7155 23.6879 43.6418 23.7893C43.4481 24.0474 43.2636 24.3055 43.0976 24.5912L23.0452 59.3032C21.0344 62.7873 22.2427 67.2853 25.7201 69.2946C29.1974 71.304 33.7078 70.0965 35.7186 66.6216L45.0069 50.5468L46.7594 64.1791C47.2667 68.1425 50.9285 70.9629 54.8947 70.456L55.1161 70.4283C59.0823 69.9214 61.9047 66.2622 61.3974 62.2988L61.3882 62.2896Z" fill="url(#paint1_linear_272_7341)"/>
<path d="M28.644 20.72C27.1221 20.72 25.7016 21.19 24.5302 21.9827C23.9122 22.2869 23.3219 22.6832 22.7962 23.1717L7.88141 36.933C4.90215 39.689 4.71767 44.3713 7.46634 47.3485C10.215 50.3256 14.9099 50.51 17.8891 47.7632L21.2558 44.657V63.1191C21.2558 67.1747 24.5763 70.4929 28.6348 70.4929C32.6932 70.4929 36.0138 67.1747 36.0138 63.1191V28.0937C36.0138 24.0382 32.6932 20.72 28.6348 20.72H28.644Z" fill="url(#paint2_linear_272_7341)"/>
<defs>
<linearGradient id="paint0_linear_272_7341" x1="39.7031" y1="46.1964" x2="90.6642" y2="45.9841" gradientUnits="userSpaceOnUse">
<stop stop-color="#4A4FFF"/>
<stop offset="0.6" stop-color="#5C8AFF"/>
<stop offset="1" stop-color="#5C99FF" stop-opacity="0.9"/>
</linearGradient>
<linearGradient id="paint1_linear_272_7341" x1="15.0759" y1="45.8184" x2="66.0277" y2="45.6061" gradientUnits="userSpaceOnUse">
<stop stop-color="#4A4FFF"/>
<stop offset="0.6" stop-color="#5C8AFF"/>
<stop offset="1" stop-color="#5C99FF" stop-opacity="0.9"/>
</linearGradient>
<linearGradient id="paint2_linear_272_7341" x1="5.52014" y1="45.6064" x2="36.023" y2="45.6064" gradientUnits="userSpaceOnUse">
<stop stop-color="#4A4FFF"/>
<stop offset="0.6" stop-color="#5C8AFF"/>
<stop offset="1" stop-color="#5C99FF" stop-opacity="0.9"/>
</linearGradient>
</defs>
</svg>
