<svg width="31" height="31" viewBox="0 0 31 31" fill="none" xmlns="http://www.w3.org/2000/svg">
<circle cx="15.44" cy="15.4792" r="11.5267" stroke="#1D1D1D" stroke-width="2.28"/>
<path d="M16.5782 8.51172L16.3579 17.9383H14.4671L14.2376 8.51172H16.5782ZM14.1733 20.8296C14.1733 20.493 14.2835 20.2116 14.5038 19.9851C14.7302 19.7526 15.0423 19.6364 15.44 19.6364C15.8316 19.6364 16.1407 19.7526 16.3671 19.9851C16.5935 20.2116 16.7067 20.493 16.7067 20.8296C16.7067 21.1539 16.5935 21.4323 16.3671 21.6649C16.1407 21.8913 15.8316 22.0045 15.44 22.0045C15.0423 22.0045 14.7302 21.8913 14.5038 21.6649C14.2835 21.4323 14.1733 21.1539 14.1733 20.8296Z" fill="#1D1D1D"/>
</svg>
