<svg width="31" height="31" viewBox="0 0 31 31" fill="none" xmlns="http://www.w3.org/2000/svg">
<path d="M5.30665 15.0069L4.69232 15.1602C4.14426 15.2972 3.65771 15.6134 3.31001 16.0587C2.96231 16.5039 2.7734 17.0526 2.77332 17.6175V19.995C2.7734 20.56 2.96231 21.1086 3.31001 21.5539C3.65771 21.9991 4.14426 22.3154 4.69232 22.4524L6.89632 23.0034C7.00831 23.0313 7.12518 23.0333 7.23808 23.0093C7.35097 22.9853 7.4569 22.9359 7.54786 22.8648C7.63881 22.7938 7.71238 22.7029 7.763 22.5992C7.81361 22.4955 7.83994 22.3816 7.83998 22.2662V15.3464C7.83999 15.2308 7.81365 15.1168 7.76296 15.0129C7.71227 14.9091 7.63857 14.8182 7.54747 14.7471C7.45636 14.676 7.35025 14.6267 7.23719 14.6028C7.12414 14.5789 7.00713 14.581 6.89505 14.6092L5.30665 15.0069ZM5.30665 15.0069V14.3736C5.30665 11.686 6.37426 9.10859 8.27463 7.20822C10.175 5.30785 12.7525 4.24023 15.44 4.24023C18.1275 4.24023 20.705 5.30785 22.6053 7.20822C24.5057 9.10859 25.5733 11.686 25.5733 14.3736V15.0069M25.5733 15.0069L26.1876 15.1602C26.7357 15.2972 27.2223 15.6134 27.57 16.0587C27.9177 16.5039 28.1066 17.0526 28.1066 17.6175V19.995C28.1066 20.56 27.9177 21.1086 27.57 21.5539C27.2223 21.9991 26.7357 22.3154 26.1876 22.4524L25.5733 22.6069M25.5733 15.0069L23.9836 14.6092C23.8717 14.5813 23.7548 14.5793 23.6419 14.6033C23.529 14.6273 23.4231 14.6767 23.3321 14.7477C23.2412 14.8188 23.1676 14.9096 23.117 15.0133C23.0664 15.1171 23.04 15.231 23.04 15.3464V22.2662C23.04 22.3816 23.0664 22.4955 23.117 22.5992C23.1676 22.7029 23.2412 22.7938 23.3321 22.8648C23.4231 22.9359 23.529 22.9853 23.6419 23.0093C23.7548 23.0333 23.8717 23.0313 23.9836 23.0034L25.5733 22.6069M25.5733 22.6069V23.8736C25.5733 24.5454 25.3064 25.1898 24.8313 25.6649C24.3562 26.14 23.7119 26.4069 23.04 26.4069H19.24M19.24 26.4069C19.24 25.903 19.0398 25.4197 18.6835 25.0634C18.3272 24.7071 17.8439 24.5069 17.34 24.5069H13.54C13.0361 24.5069 12.5528 24.7071 12.1965 25.0634C11.8402 25.4197 11.64 25.903 11.64 26.4069C11.64 26.9108 11.8402 27.3941 12.1965 27.7504C12.5528 28.1067 13.0361 28.3069 13.54 28.3069H17.34C17.8439 28.3069 18.3272 28.1067 18.6835 27.7504C19.0398 27.3941 19.24 26.9108 19.24 26.4069Z" stroke="#1D1D1D" stroke-width="2.28"/>
</svg>
