<svg width="31" height="31" viewBox="0 0 31 31" fill="none" xmlns="http://www.w3.org/2000/svg">
<path d="M11.64 22.0536H19.24M11.64 18.2536H19.24M16.7067 4.32031H10.6267C9.20803 4.32031 8.4987 4.32031 7.95656 4.59645C7.47986 4.83925 7.0923 5.2268 6.8495 5.70351C6.57336 6.24565 6.57336 6.95498 6.57336 8.37365V23.067C6.57336 24.4856 6.57336 25.195 6.8495 25.7371C7.09237 26.2138 7.47991 26.6013 7.95656 26.8442C8.49743 27.1203 9.20676 27.1203 10.6229 27.1203H20.2572C21.6733 27.1203 22.3814 27.1203 22.9222 26.8442C23.3998 26.601 23.7874 26.2134 24.0306 25.7371C24.3067 25.195 24.3067 24.4882 24.3067 23.072V12.3332L24.3054 11.9203M16.7067 4.32031C17.069 4.32411 17.297 4.33805 17.5148 4.38998C17.7732 4.45331 18.0215 4.55465 18.2482 4.69398C18.5041 4.85105 18.7232 5.07018 19.1602 5.50845L23.1198 9.46678C23.5581 9.90505 23.776 10.1229 23.933 10.3788C24.0724 10.6068 24.1737 10.8525 24.237 11.1109C24.2877 11.33 24.3016 11.5593 24.3054 11.9203M16.7067 4.32031V7.86698C16.7067 9.28565 16.7067 9.99498 16.9828 10.5371C17.2257 11.0138 17.6132 11.4013 18.0899 11.6442C18.6308 11.9203 19.3401 11.9203 20.7562 11.9203H24.3054" stroke="#1D1D1D" stroke-width="2.28" stroke-linecap="round" stroke-linejoin="round"/>
</svg>
