<svg width="37" height="38" viewBox="0 0 37 38" fill="none" xmlns="http://www.w3.org/2000/svg">
<g opacity="0.3">
<path opacity="0.3" d="M25.2528 10.3958C24.588 10.3951 23.9506 10.1308 23.4805 9.66069C23.0104 9.19062 22.7461 8.55325 22.7454 7.88848V4.40723H11.5412C10.6733 4.40723 9.84102 4.75198 9.22735 5.36562C8.61369 5.97926 8.26892 6.81152 8.26892 7.67934V27.4045C8.26892 28.2723 8.61369 29.1046 9.22735 29.7182C9.84102 30.3319 10.6733 30.6766 11.5412 30.6766H24.9901C25.42 30.6768 25.8456 30.5922 26.2427 30.4279C26.6399 30.2635 27.0008 30.0225 27.3048 29.7187C27.6087 29.4148 27.8499 29.054 28.0144 28.657C28.1789 28.2599 28.2636 27.8343 28.2636 27.4045V10.3958H25.2528Z" fill="#FF0000"/>
</g>
<path d="M28.2634 10.3958H25.2526C24.5878 10.3951 23.9504 10.1308 23.4803 9.66069C23.0102 9.19062 22.7459 8.55325 22.7452 7.88848V4.40723L28.2634 10.3958Z" fill="#FF0000"/>
<path d="M30.6361 25.1523H15.4313C14.3527 25.1523 13.4784 26.0266 13.4784 27.1052V31.6382C13.4784 32.7167 14.3527 33.591 15.4313 33.591H30.6361C31.7147 33.591 32.589 32.7167 32.589 31.6382V27.1052C32.589 26.0266 31.7147 25.1523 30.6361 25.1523Z" fill="#FF0000"/>
<path d="M18.8237 30.3535V31.2375H17.9081V30.3535H18.8237Z" fill="white"/>
<path d="M20.1685 29.9546V31.2374H19.2844V27.5811H20.7169C21.1514 27.5811 21.4821 27.6889 21.7091 27.9045C21.8243 28.0175 21.9144 28.1536 21.9733 28.3039C22.0321 28.4541 22.0586 28.6151 22.0508 28.7763C22.0547 28.9888 22.0022 29.1986 21.8988 29.3843C21.7925 29.566 21.6347 29.712 21.4453 29.8038C21.2176 29.9119 20.9675 29.964 20.7157 29.9558L20.1685 29.9546ZM21.151 28.7763C21.151 28.4521 20.9734 28.2899 20.6184 28.2899H20.1685V29.242H20.6184C20.9734 29.2453 21.151 29.09 21.151 28.7763Z" fill="white"/>
<path d="M23.3704 29.9546V31.2374H22.4851V27.5811H23.9176C24.3529 27.5811 24.6841 27.6889 24.9111 27.9045C25.0263 28.0175 25.1163 28.1536 25.1752 28.3039C25.234 28.4541 25.2605 28.6151 25.2527 28.7763C25.2567 28.989 25.2038 29.1989 25.0995 29.3843C24.994 29.5661 24.8364 29.7123 24.6472 29.8038C24.4195 29.9119 24.1694 29.964 23.9176 29.9558L23.3704 29.9546ZM24.3529 28.7763C24.3529 28.4521 24.1753 28.2899 23.8203 28.2899H23.3704V29.242H23.8203C24.1753 29.2453 24.3529 29.09 24.3529 28.7763Z" fill="white"/>
<path d="M28.3149 27.5811V28.2851H27.3214V31.2374H26.4325V28.2851H25.4487V27.5811H28.3149Z" fill="white"/>
<path d="M17.3511 14.5885H12.0384C11.9177 14.5885 11.8019 14.5407 11.7164 14.4554C11.6309 14.3701 11.5827 14.2545 11.5824 14.1337C11.5824 14.0128 11.6304 13.8968 11.716 13.8113C11.8015 13.7258 11.9175 13.6777 12.0384 13.6777H17.3462C17.4672 13.6777 17.5832 13.7258 17.6687 13.8113C17.7542 13.8968 17.8022 14.0128 17.8022 14.1337C17.8019 14.2536 17.7544 14.3686 17.67 14.4537C17.5855 14.5388 17.471 14.5872 17.3511 14.5885Z" fill="#FF0000"/>
<path d="M17.3511 17.3082H12.0384C11.9177 17.3082 11.8019 17.2603 11.7164 17.1751C11.6309 17.0898 11.5827 16.9742 11.5824 16.8535C11.5824 16.7325 11.6304 16.6165 11.716 16.531C11.8015 16.4455 11.9175 16.3975 12.0384 16.3975H17.3462C17.4672 16.3975 17.5832 16.4455 17.6687 16.531C17.7542 16.6165 17.8022 16.7325 17.8022 16.8535C17.8019 16.9734 17.7544 17.0883 17.67 17.1734C17.5855 17.2585 17.471 17.307 17.3511 17.3082Z" fill="#FF0000"/>
<path d="M17.3511 20.0285H12.0384C11.9175 20.0285 11.8015 19.9804 11.716 19.8949C11.6304 19.8094 11.5824 19.6934 11.5824 19.5725C11.5834 19.4522 11.6318 19.3371 11.7172 19.2524C11.8027 19.1676 11.9181 19.1201 12.0384 19.1201H17.3462C17.467 19.1201 17.5828 19.168 17.6682 19.2532C17.7537 19.3385 17.8019 19.4542 17.8022 19.5749C17.8016 19.6946 17.754 19.8092 17.6696 19.8941C17.5852 19.9789 17.4708 20.0272 17.3511 20.0285Z" fill="#FF0000"/>
<path d="M17.3511 22.7487H12.0384C11.9175 22.7487 11.8015 22.7006 11.716 22.6151C11.6304 22.5296 11.5824 22.4136 11.5824 22.2927C11.5827 22.1719 11.6309 22.0563 11.7164 21.971C11.8019 21.8858 11.9177 21.8379 12.0384 21.8379H17.3462C17.467 21.8379 17.5828 21.8858 17.6682 21.971C17.7537 22.0563 17.8019 22.1719 17.8022 22.2927C17.8022 22.4128 17.7549 22.528 17.6704 22.6134C17.5859 22.6988 17.4712 22.7474 17.3511 22.7487Z" fill="#FF0000"/>
<path d="M22.5265 18.7557V14.7139C21.5418 14.7659 20.6146 15.1936 19.9359 15.9089C19.2572 16.6242 18.8787 17.5726 18.8785 18.5587C18.8784 19.0643 18.9778 19.565 19.1713 20.0321C19.3647 20.4992 19.6483 20.9237 20.0058 21.2812C20.3633 21.6387 20.7878 21.9223 21.2549 22.1157C21.7221 22.3091 22.2228 22.4086 22.7284 22.4084C23.7144 22.4085 24.6629 22.0301 25.3781 21.3514C26.0934 20.6726 26.5208 19.7452 26.5722 18.7606L22.5265 18.7557Z" fill="#FF0000"/>
<path d="M23.2633 14.4062V18.0541H26.9113C26.8626 17.1024 26.4626 16.2026 25.7887 15.5288C25.1149 14.8549 24.215 14.455 23.2633 14.4062Z" fill="#FF0000"/>
</svg>
