<svg width="31" height="31" viewBox="0 0 31 31" fill="none" xmlns="http://www.w3.org/2000/svg">
<path d="M19.24 12.0003H23.04M19.24 15.8003H23.04M19.24 19.6003H23.04M15.44 20.8669C15.0524 20.0905 14.2582 19.6003 13.3906 19.6003H9.88951C9.02184 19.6003 8.22764 20.0905 7.84004 20.8669M5.30671 6.93359H25.5734C25.9093 6.93359 26.2315 7.06705 26.469 7.30459C26.7066 7.54214 26.84 7.86432 26.84 8.20026V23.4003C26.84 23.7362 26.7066 24.0584 26.469 24.2959C26.2315 24.5335 25.9093 24.6669 25.5734 24.6669H5.30671C4.97076 24.6669 4.64858 24.5335 4.41104 24.2959C4.17349 24.0584 4.04004 23.7362 4.04004 23.4003V8.20026C4.04004 7.86432 4.17349 7.54214 4.41104 7.30459C4.64858 7.06705 4.97076 6.93359 5.30671 6.93359ZM14.1734 13.2669C14.1734 13.9388 13.9065 14.5832 13.4314 15.0583C12.9563 15.5334 12.3119 15.8003 11.64 15.8003C10.9682 15.8003 10.3238 15.5334 9.8487 15.0583C9.37361 14.5832 9.10671 13.9388 9.10671 13.2669C9.10671 12.595 9.37361 11.9507 9.8487 11.4756C10.3238 11.0005 10.9682 10.7336 11.64 10.7336C12.3119 10.7336 12.9563 11.0005 13.4314 11.4756C13.9065 11.9507 14.1734 12.595 14.1734 13.2669Z" stroke="#1D1D1D" stroke-width="2.28" stroke-linecap="round" stroke-linejoin="round"/>
</svg>
