<svg width="26" height="25" viewBox="0 0 26 25" fill="none" xmlns="http://www.w3.org/2000/svg">
<path d="M13 21.6199C14.9891 21.6194 16.9235 20.9687 18.5085 19.7668C20.0934 18.565 21.242 16.8779 21.7791 14.9627C22.3163 13.0475 22.2125 11.0092 21.4837 9.15841C20.755 7.30762 19.4411 5.74585 17.7423 4.71109C16.0435 3.67633 14.053 3.22532 12.0742 3.4268C10.0953 3.62828 8.23655 4.47119 6.78118 5.82709C5.32582 7.18299 4.35365 8.97751 4.01282 10.9372C3.67199 12.8969 3.98119 14.9143 4.89331 16.6819L3.87998 21.6199L8.81795 20.6066C10.0704 21.2541 11.4931 21.6199 13 21.6199Z" stroke="#1D1D1D" stroke-width="1.52" stroke-linecap="round" stroke-linejoin="round"/>
<path d="M8.44019 12.5H8.45032V12.5101H8.44019V12.5ZM13.0002 12.5H13.0103V12.5101H13.0002V12.5ZM17.5602 12.5H17.5703V12.5101H17.5602V12.5Z" stroke="#1D1D1D" stroke-width="2.28" stroke-linejoin="round"/>
</svg>
