<svg width="26" height="25" viewBox="0 0 26 25" fill="none" xmlns="http://www.w3.org/2000/svg">
<path d="M13 21.2791C14.9891 21.2786 16.9235 20.6279 18.5085 19.426C20.0934 18.2242 21.242 16.5371 21.7791 14.6219C22.3163 12.7067 22.2125 10.6684 21.4837 8.81759C20.755 6.9668 19.4411 5.40503 17.7423 4.37027C16.0435 3.33551 14.053 2.8845 12.0742 3.08598C10.0953 3.28746 8.23655 4.13037 6.78118 5.48627C5.32582 6.84216 4.35365 8.63669 4.01282 10.5964C3.67199 12.5561 3.98119 14.5735 4.89331 16.3411L3.87998 21.2791L8.81795 20.2657C10.0704 20.9133 11.4931 21.2791 13 21.2791Z" stroke="#5A5A5A" stroke-width="1.52" stroke-linecap="round" stroke-linejoin="round"/>
<path d="M8.44019 12.1592H8.45032V12.1693H8.44019V12.1592ZM13.0002 12.1592H13.0103V12.1693H13.0002V12.1592ZM17.5602 12.1592H17.5703V12.1693H17.5602V12.1592Z" stroke="#5A5A5A" stroke-width="2.28" stroke-linejoin="round"/>
</svg>
