<svg width="19" height="19" viewBox="0 0 19 19" fill="none" xmlns="http://www.w3.org/2000/svg">
<path d="M3.7998 9.50023C3.7998 9.7018 3.87988 9.89511 4.0224 10.0376C4.16493 10.1802 4.35824 10.2602 4.5598 10.2602C4.76137 10.2602 4.95468 10.1802 5.09721 10.0376C5.23973 9.89511 5.3198 9.7018 5.3198 9.50023C5.3198 9.29867 5.23973 9.10536 5.09721 8.96283C4.95468 8.82031 4.76137 8.74023 4.5598 8.74023C4.35824 8.74023 4.16493 8.82031 4.0224 8.96283C3.87988 9.10536 3.7998 9.29867 3.7998 9.50023ZM9.1198 9.50023C9.1198 9.7018 9.19988 9.89511 9.3424 10.0376C9.48493 10.1802 9.67824 10.2602 9.8798 10.2602C10.0814 10.2602 10.2747 10.1802 10.4172 10.0376C10.5597 9.89511 10.6398 9.7018 10.6398 9.50023C10.6398 9.29867 10.5597 9.10536 10.4172 8.96283C10.2747 8.82031 10.0814 8.74023 9.8798 8.74023C9.67824 8.74023 9.48493 8.82031 9.3424 8.96283C9.19988 9.10536 9.1198 9.29867 9.1198 9.50023ZM14.4398 9.50023C14.4398 9.7018 14.5199 9.89511 14.6624 10.0376C14.8049 10.1802 14.9982 10.2602 15.1998 10.2602C15.4014 10.2602 15.5947 10.1802 15.7372 10.0376C15.8797 9.89511 15.9598 9.7018 15.9598 9.50023C15.9598 9.29867 15.8797 9.10536 15.7372 8.96283C15.5947 8.82031 15.4014 8.74023 15.1998 8.74023C14.9982 8.74023 14.8049 8.82031 14.6624 8.96283C14.5199 9.10536 14.4398 9.29867 14.4398 9.50023Z" fill="#1D1D1D" stroke="#1D1D1D" stroke-width="0.76" stroke-linecap="round" stroke-linejoin="round"/>
</svg>
