<svg width="37" height="37" viewBox="0 0 37 37" fill="none" xmlns="http://www.w3.org/2000/svg">
<g opacity="0.3">
<path opacity="0.3" d="M24.9894 10.9257C24.3243 10.9253 23.6865 10.6638 23.2162 10.1985C22.7459 9.73322 22.4815 9.10223 22.4812 8.4442V5H11.2733C10.8434 5 10.4176 5.0838 10.0204 5.24662C9.6232 5.40944 9.26227 5.64809 8.9583 5.94893C8.65433 6.24977 8.41326 6.60692 8.24883 6.99996C8.0844 7.393 7.99984 7.81425 8 8.23963V27.7604C7.99984 28.1858 8.0844 28.607 8.24883 29C8.41326 29.3931 8.65433 29.7502 8.9583 30.0511C9.26227 30.3519 9.6232 30.5905 10.0204 30.7534C10.4176 30.9162 10.8434 31 11.2733 31H24.7267C25.1566 31 25.5824 30.9162 25.9796 30.7534C26.3768 30.5905 26.7377 30.3519 27.0417 30.0511C27.3456 29.7502 27.5867 29.3931 27.7512 29C27.9156 28.607 28.0002 28.1858 28 27.7604V10.9269L24.9894 10.9257Z" fill="#0072FF"/>
</g>
<path d="M28 10.9257H24.9894C24.3243 10.9253 23.6865 10.6638 23.2162 10.1985C22.7459 9.73321 22.4815 9.10223 22.4812 8.4442V5L28 10.9257Z" fill="#0072FF"/>
<path d="M20.6871 22.619H15.3143C14.7883 22.6184 14.284 22.4114 13.9121 22.0434C13.5402 21.6755 13.331 21.1766 13.3303 20.6562V15.3407C13.331 14.8204 13.5402 14.3215 13.9121 13.9535C14.284 13.5856 14.7883 13.3786 15.3143 13.3779H20.6871C21.2129 13.3786 21.7171 13.5856 22.0888 13.9536C22.4605 14.3216 22.6695 14.8205 22.6698 15.3407V20.6562C22.6695 21.1765 22.4605 21.6754 22.0888 22.0434C21.7171 22.4114 21.2129 22.6184 20.6871 22.619ZM15.3143 14.2456C15.0208 14.2459 14.7394 14.3614 14.5319 14.5667C14.3244 14.772 14.2077 15.0504 14.2073 15.3407V20.6562C14.2077 20.9466 14.3244 21.2249 14.5319 21.4303C14.7394 21.6356 15.0208 21.751 15.3143 21.7514H20.6871C20.9804 21.751 21.2617 21.6355 21.469 21.4302C21.6763 21.2248 21.7928 20.9465 21.7928 20.6562V15.3407C21.7928 15.0505 21.6763 14.7721 21.469 14.5668C21.2617 14.3614 20.9804 14.2459 20.6871 14.2456H15.3143Z" fill="#0072FF"/>
<path d="M22.232 19.6455V20.6563C22.2317 21.0616 22.0688 21.4501 21.7792 21.7367C21.4895 22.0232 21.0968 22.1844 20.6872 22.1847H15.3143C14.9046 22.1847 14.5117 22.0237 14.222 21.737C13.9323 21.4504 13.7695 21.0617 13.7695 20.6563V18.9595C14.6295 18.7766 15.9396 18.7188 17.5294 19.347L18.5147 18.418L19.1861 20.1028C19.1861 20.1028 19.3661 19.483 19.9476 19.5708C20.529 19.6587 21.4705 19.9704 21.8731 19.7044C21.9816 19.6425 22.1091 19.6216 22.232 19.6455V19.6455Z" fill="#0072FF"/>
<path d="M20.35 16.4259C20.6797 16.4259 20.947 16.1614 20.947 15.835C20.947 15.5087 20.6797 15.2441 20.35 15.2441C20.0202 15.2441 19.7529 15.5087 19.7529 15.835C19.7529 16.1614 20.0202 16.4259 20.35 16.4259Z" fill="#0072FF"/>
</svg>
