<svg width="37" height="37" viewBox="0 0 37 37" fill="none" xmlns="http://www.w3.org/2000/svg">
<g opacity="0.3">
<path opacity="0.3" d="M24.9883 10.9271C24.3233 10.9265 23.6857 10.6648 23.2155 10.1996C22.7453 9.73434 22.4809 9.10351 22.4802 8.44555V5H11.2743C10.8444 4.99984 10.4186 5.08348 10.0214 5.24616C9.62413 5.40884 9.26316 5.64738 8.95909 5.94812C8.65503 6.24887 8.41383 6.60594 8.24926 6.99894C8.0847 7.39194 8 7.81316 8 8.23856V27.7614C8 28.1868 8.0847 28.6081 8.24926 29.0011C8.41383 29.3941 8.65503 29.7511 8.95909 30.0519C9.26316 30.3526 9.62413 30.5911 10.0214 30.7538C10.4186 30.9165 10.8444 31.0002 11.2743 31H24.7268C25.5948 31 26.4274 30.6588 27.0412 30.0514C27.655 29.4441 27.9998 28.6203 27.9998 27.7614V10.9271H24.9883Z" fill="#FF0000"/>
</g>
<path d="M27.9999 10.9271H24.9883C24.3233 10.9265 23.6857 10.6648 23.2155 10.1996C22.7453 9.73434 22.4809 9.10351 22.4802 8.44555V5L27.9999 10.9271Z" fill="#FF0000"/>
<path d="M23.8852 15.0772H11.3279C11.2073 15.0772 11.0916 15.0298 11.0063 14.9454C10.921 14.861 10.873 14.7465 10.873 14.6271C10.8729 14.5679 10.8845 14.5092 10.9073 14.4545C10.9301 14.3997 10.9636 14.35 11.0059 14.308C11.0481 14.2661 11.0983 14.2329 11.1536 14.2102C11.2088 14.1875 11.2681 14.1758 11.3279 14.1758H23.8852C24.0061 14.1758 24.1222 14.2233 24.2077 14.308C24.2932 14.3926 24.3413 14.5074 24.3413 14.6271C24.341 14.7466 24.2928 14.8611 24.2073 14.9455C24.1218 15.0299 24.0059 15.0772 23.8852 15.0772V15.0772Z" fill="#FF0000"/>
<path d="M23.8852 17.7696H11.3279C11.2073 17.7696 11.0916 17.7222 11.0063 17.6378C10.921 17.5534 10.873 17.4389 10.873 17.3195C10.8729 17.2603 10.8845 17.2016 10.9073 17.1469C10.9301 17.0921 10.9636 17.0423 11.0059 17.0004C11.0481 16.9585 11.0983 16.9252 11.1536 16.9025C11.2088 16.8798 11.2681 16.8682 11.3279 16.8682H23.8852C24.0061 16.8682 24.1222 16.9157 24.2077 17.0003C24.2932 17.085 24.3413 17.1998 24.3413 17.3195C24.341 17.439 24.2928 17.5534 24.2073 17.6378C24.1218 17.7222 24.0059 17.7696 23.8852 17.7696V17.7696Z" fill="#FF0000"/>
<path d="M23.8852 20.462H11.3279C11.2681 20.462 11.2088 20.4503 11.1536 20.4276C11.0983 20.4049 11.0481 20.3717 11.0059 20.3297C10.9636 20.2878 10.9301 20.238 10.9073 20.1833C10.8845 20.1285 10.8729 20.0699 10.873 20.0107C10.873 19.8913 10.921 19.7768 11.0063 19.6924C11.0916 19.608 11.2073 19.5605 11.3279 19.5605H23.8852C24.0059 19.5605 24.1218 19.6079 24.2073 19.6923C24.2928 19.7767 24.341 19.8912 24.3413 20.0107C24.3413 20.1304 24.2932 20.2452 24.2077 20.3298C24.1222 20.4144 24.0061 20.462 23.8852 20.462Z" fill="#FF0000"/>
<path d="M18.9299 23.1534H11.3279C11.2681 23.1534 11.2088 23.1417 11.1536 23.119C11.0983 23.0963 11.0481 23.063 11.0059 23.0211C10.9636 22.9792 10.9301 22.9294 10.9073 22.8747C10.8845 22.8199 10.8729 22.7613 10.873 22.7021C10.873 22.5827 10.921 22.4682 11.0063 22.3838C11.0916 22.2994 11.2073 22.252 11.3279 22.252H18.9299C19.0506 22.252 19.1663 22.2994 19.2516 22.3838C19.3369 22.4682 19.3848 22.5827 19.3848 22.7021C19.385 22.7613 19.3733 22.8199 19.3505 22.8747C19.3277 22.9294 19.2943 22.9792 19.252 23.0211C19.2097 23.063 19.1596 23.0963 19.1043 23.119C19.049 23.1417 18.9898 23.1534 18.9299 23.1534Z" fill="#FF0000"/>
</svg>
